%TF.GenerationSoftware,KiCad,Pcbnew,(6.0.7)*%
%TF.CreationDate,2022-11-13T23:25:29+01:00*%
%TF.ProjectId,cncBord4sdo,636e6342-6f72-4643-9473-646f2e6b6963,rev?*%
%TF.SameCoordinates,Original*%
%TF.FileFunction,Drillmap*%
%TF.FilePolarity,Positive*%
%FSLAX45Y45*%
G04 Gerber Fmt 4.5, Leading zero omitted, Abs format (unit mm)*
G04 Created by KiCad (PCBNEW (6.0.7)) date 2022-11-13 23:25:29*
%MOMM*%
%LPD*%
G01*
G04 APERTURE LIST*
%ADD10C,0.100000*%
%ADD11C,0.200000*%
%ADD12C,0.040000*%
%ADD13C,0.060000*%
%ADD14C,0.075000*%
%ADD15C,0.077000*%
%ADD16C,0.080000*%
%ADD17C,0.090000*%
%ADD18C,0.095000*%
%ADD19C,0.104000*%
%ADD20C,0.120000*%
%ADD21C,0.140000*%
G04 APERTURE END LIST*
D10*
X12700000Y-6129000D02*
X12700000Y-15240000D01*
X12700000Y-15240000D02*
X24271000Y-15240000D01*
X12700000Y-6129000D02*
X24271000Y-6129000D01*
X24271000Y-6129000D02*
X24271000Y-15240000D01*
D11*
D12*
X12933900Y-10571900D02*
X12973900Y-10611900D01*
X12973900Y-10571900D02*
X12933900Y-10611900D01*
X14026200Y-11613200D02*
X14066200Y-11653200D01*
X14066200Y-11613200D02*
X14026200Y-11653200D01*
X14153200Y-10902000D02*
X14193200Y-10942000D01*
X14193200Y-10902000D02*
X14153200Y-10942000D01*
X15118400Y-11765600D02*
X15158400Y-11805600D01*
X15158400Y-11765600D02*
X15118400Y-11805600D01*
X15169200Y-9708200D02*
X15209200Y-9748200D01*
X15209200Y-9708200D02*
X15169200Y-9748200D01*
X15171840Y-8786610D02*
X15211840Y-8826610D01*
X15211840Y-8786610D02*
X15171840Y-8826610D01*
X16325390Y-10921680D02*
X16365390Y-10961680D01*
X16365390Y-10921680D02*
X16325390Y-10961680D01*
X16467060Y-11594410D02*
X16507060Y-11634410D01*
X16507060Y-11594410D02*
X16467060Y-11634410D01*
X17988600Y-9708200D02*
X18028600Y-9748200D01*
X18028600Y-9708200D02*
X17988600Y-9748200D01*
X18115600Y-10571800D02*
X18155600Y-10611800D01*
X18155600Y-10571800D02*
X18115600Y-10611800D01*
X18217200Y-9962200D02*
X18257200Y-10002200D01*
X18257200Y-9962200D02*
X18217200Y-10002200D01*
X18379680Y-11972860D02*
X18419680Y-12012860D01*
X18419680Y-11972860D02*
X18379680Y-12012860D01*
X18750600Y-12730800D02*
X18790600Y-12770800D01*
X18790600Y-12730800D02*
X18750600Y-12770800D01*
X19258600Y-10292400D02*
X19298600Y-10332400D01*
X19298600Y-10292400D02*
X19258600Y-10332400D01*
X19562970Y-10257650D02*
X19602970Y-10297650D01*
X19602970Y-10257650D02*
X19562970Y-10297650D01*
X19766600Y-9479600D02*
X19806600Y-9519600D01*
X19806600Y-9479600D02*
X19766600Y-9519600D01*
X19902640Y-10214390D02*
X19942640Y-10254390D01*
X19942640Y-10214390D02*
X19902640Y-10254390D01*
X19944400Y-12502200D02*
X19984400Y-12542200D01*
X19984400Y-12502200D02*
X19944400Y-12542200D01*
X19995200Y-11054400D02*
X20035200Y-11094400D01*
X20035200Y-11054400D02*
X19995200Y-11094400D01*
X20471900Y-11872590D02*
X20511900Y-11912590D01*
X20511900Y-11872590D02*
X20471900Y-11912590D01*
X20503200Y-11435400D02*
X20543200Y-11475400D01*
X20543200Y-11435400D02*
X20503200Y-11475400D01*
X20555200Y-12999440D02*
X20595200Y-13039440D01*
X20595200Y-12999440D02*
X20555200Y-13039440D01*
X20630200Y-10495600D02*
X20670200Y-10535600D01*
X20670200Y-10495600D02*
X20630200Y-10535600D01*
X20802850Y-11975130D02*
X20842850Y-12015130D01*
X20842850Y-11975130D02*
X20802850Y-12015130D01*
X20808000Y-12476800D02*
X20848000Y-12516800D01*
X20848000Y-12476800D02*
X20808000Y-12516800D01*
X21263340Y-13840500D02*
X21303340Y-13880500D01*
X21303340Y-13840500D02*
X21263340Y-13880500D01*
X21747800Y-11816400D02*
X21787800Y-11856400D01*
X21787800Y-11816400D02*
X21747800Y-11856400D01*
X21824000Y-12375200D02*
X21864000Y-12415200D01*
X21864000Y-12375200D02*
X21824000Y-12415200D01*
X21890550Y-10226330D02*
X21930550Y-10266330D01*
X21930550Y-10226330D02*
X21890550Y-10266330D01*
X21969600Y-9995370D02*
X22009600Y-10035370D01*
X22009600Y-9995370D02*
X21969600Y-10035370D01*
X22357400Y-8311200D02*
X22397400Y-8351200D01*
X22397400Y-8311200D02*
X22357400Y-8351200D01*
X22662200Y-9073200D02*
X22702200Y-9113200D01*
X22702200Y-9073200D02*
X22662200Y-9113200D01*
X22870010Y-6686580D02*
X22910010Y-6726580D01*
X22910010Y-6686580D02*
X22870010Y-6726580D01*
X24084600Y-11283000D02*
X24124600Y-11323000D01*
X24124600Y-11283000D02*
X24084600Y-11323000D01*
D13*
X14457200Y-10414000D02*
G75*
G03*
X14457200Y-10414000I-30000J0D01*
G01*
X17505200Y-11379200D02*
G75*
G03*
X17505200Y-11379200I-30000J0D01*
G01*
X18419600Y-12319000D02*
G75*
G03*
X18419600Y-12319000I-30000J0D01*
G01*
X19227851Y-12955265D02*
G75*
G03*
X19227851Y-12955265I-30000J0D01*
G01*
X20223000Y-9372600D02*
G75*
G03*
X20223000Y-9372600I-30000J0D01*
G01*
X20724745Y-13036455D02*
G75*
G03*
X20724745Y-13036455I-30000J0D01*
G01*
X20756400Y-12187790D02*
G75*
G03*
X20756400Y-12187790I-30000J0D01*
G01*
X21416800Y-10388600D02*
G75*
G03*
X21416800Y-10388600I-30000J0D01*
G01*
X21848100Y-10998200D02*
G75*
G03*
X21848100Y-10998200I-30000J0D01*
G01*
D14*
X18745200Y-11166500D02*
X18745200Y-11241500D01*
X18707700Y-11204000D02*
X18782700Y-11204000D01*
X18745200Y-11725300D02*
X18745200Y-11800300D01*
X18707700Y-11762800D02*
X18782700Y-11762800D01*
X18872200Y-11039500D02*
X18872200Y-11114500D01*
X18834700Y-11077000D02*
X18909700Y-11077000D01*
X18872200Y-11293500D02*
X18872200Y-11368500D01*
X18834700Y-11331000D02*
X18909700Y-11331000D01*
X18872200Y-11598300D02*
X18872200Y-11673300D01*
X18834700Y-11635800D02*
X18909700Y-11635800D01*
X18872200Y-11852300D02*
X18872200Y-11927300D01*
X18834700Y-11889800D02*
X18909700Y-11889800D01*
X20345400Y-14364300D02*
X20345400Y-14439300D01*
X20307900Y-14401800D02*
X20382900Y-14401800D01*
X20472400Y-14237300D02*
X20472400Y-14312300D01*
X20434900Y-14274800D02*
X20509900Y-14274800D01*
X20599400Y-14364300D02*
X20599400Y-14439300D01*
X20561900Y-14401800D02*
X20636900Y-14401800D01*
X20916900Y-14364300D02*
X20916900Y-14439300D01*
X20879400Y-14401800D02*
X20954400Y-14401800D01*
X21043900Y-14237300D02*
X21043900Y-14312300D01*
X21006400Y-14274800D02*
X21081400Y-14274800D01*
X21170900Y-14364300D02*
X21170900Y-14439300D01*
X21133400Y-14401800D02*
X21208400Y-14401800D01*
X22765100Y-14366900D02*
X22765100Y-14441900D01*
X22727600Y-14404400D02*
X22802600Y-14404400D01*
X22892100Y-14239900D02*
X22892100Y-14314900D01*
X22854600Y-14277400D02*
X22929600Y-14277400D01*
X23019100Y-14366900D02*
X23019100Y-14441900D01*
X22981600Y-14404400D02*
X23056600Y-14404400D01*
X23261800Y-12068300D02*
X23261800Y-12143300D01*
X23224300Y-12105800D02*
X23299300Y-12105800D01*
X23261800Y-12639800D02*
X23261800Y-12714800D01*
X23224300Y-12677300D02*
X23299300Y-12677300D01*
X23263000Y-6882000D02*
X23263000Y-6957000D01*
X23225500Y-6919500D02*
X23300500Y-6919500D01*
X23263000Y-7453500D02*
X23263000Y-7528500D01*
X23225500Y-7491000D02*
X23300500Y-7491000D01*
X23274500Y-9452000D02*
X23274500Y-9527000D01*
X23237000Y-9489500D02*
X23312000Y-9489500D01*
X23274500Y-10051000D02*
X23274500Y-10126000D01*
X23237000Y-10088500D02*
X23312000Y-10088500D01*
X23352600Y-14366900D02*
X23352600Y-14441900D01*
X23315100Y-14404400D02*
X23390100Y-14404400D01*
X23388800Y-11941300D02*
X23388800Y-12016300D01*
X23351300Y-11978800D02*
X23426300Y-11978800D01*
X23388800Y-12195300D02*
X23388800Y-12270300D01*
X23351300Y-12232800D02*
X23426300Y-12232800D01*
X23388800Y-12512800D02*
X23388800Y-12587800D01*
X23351300Y-12550300D02*
X23426300Y-12550300D01*
X23388800Y-12766800D02*
X23388800Y-12841800D01*
X23351300Y-12804300D02*
X23426300Y-12804300D01*
X23390000Y-6755000D02*
X23390000Y-6830000D01*
X23352500Y-6792500D02*
X23427500Y-6792500D01*
X23390000Y-7009000D02*
X23390000Y-7084000D01*
X23352500Y-7046500D02*
X23427500Y-7046500D01*
X23390000Y-7326500D02*
X23390000Y-7401500D01*
X23352500Y-7364000D02*
X23427500Y-7364000D01*
X23390000Y-7580500D02*
X23390000Y-7655500D01*
X23352500Y-7618000D02*
X23427500Y-7618000D01*
X23401500Y-9325000D02*
X23401500Y-9400000D01*
X23364000Y-9362500D02*
X23439000Y-9362500D01*
X23401500Y-9579000D02*
X23401500Y-9654000D01*
X23364000Y-9616500D02*
X23439000Y-9616500D01*
X23401500Y-9924000D02*
X23401500Y-9999000D01*
X23364000Y-9961500D02*
X23439000Y-9961500D01*
X23401500Y-10178000D02*
X23401500Y-10253000D01*
X23364000Y-10215500D02*
X23439000Y-10215500D01*
X23479600Y-14239900D02*
X23479600Y-14314900D01*
X23442100Y-14277400D02*
X23517100Y-14277400D01*
X23606600Y-14366900D02*
X23606600Y-14441900D01*
X23569100Y-14404400D02*
X23644100Y-14404400D01*
D15*
X20194824Y-9993424D02*
X20194824Y-9938976D01*
X20140376Y-9938976D01*
X20140376Y-9993424D01*
X20194824Y-9993424D01*
X20194824Y-10787424D02*
X20194824Y-10732976D01*
X20140376Y-10732976D01*
X20140376Y-10787424D01*
X20194824Y-10787424D01*
X20448824Y-9993424D02*
X20448824Y-9938976D01*
X20394376Y-9938976D01*
X20394376Y-9993424D01*
X20448824Y-9993424D01*
X20448824Y-10787424D02*
X20448824Y-10732976D01*
X20394376Y-10732976D01*
X20394376Y-10787424D01*
X20448824Y-10787424D01*
X20702824Y-9993424D02*
X20702824Y-9938976D01*
X20648376Y-9938976D01*
X20648376Y-9993424D01*
X20702824Y-9993424D01*
X20702824Y-10787424D02*
X20702824Y-10732976D01*
X20648376Y-10732976D01*
X20648376Y-10787424D01*
X20702824Y-10787424D01*
X20956824Y-9993424D02*
X20956824Y-9938976D01*
X20902376Y-9938976D01*
X20902376Y-9993424D01*
X20956824Y-9993424D01*
X20956824Y-10787424D02*
X20956824Y-10732976D01*
X20902376Y-10732976D01*
X20902376Y-10787424D01*
X20956824Y-10787424D01*
X21210824Y-9993424D02*
X21210824Y-9938976D01*
X21156376Y-9938976D01*
X21156376Y-9993424D01*
X21210824Y-9993424D01*
X21210824Y-10787424D02*
X21210824Y-10732976D01*
X21156376Y-10732976D01*
X21156376Y-10787424D01*
X21210824Y-10787424D01*
X21347224Y-7670624D02*
X21347224Y-7616176D01*
X21292776Y-7616176D01*
X21292776Y-7670624D01*
X21347224Y-7670624D01*
X21347224Y-7924624D02*
X21347224Y-7870176D01*
X21292776Y-7870176D01*
X21292776Y-7924624D01*
X21347224Y-7924624D01*
X21347224Y-8178624D02*
X21347224Y-8124176D01*
X21292776Y-8124176D01*
X21292776Y-8178624D01*
X21347224Y-8178624D01*
X21347224Y-8432624D02*
X21347224Y-8378176D01*
X21292776Y-8378176D01*
X21292776Y-8432624D01*
X21347224Y-8432624D01*
X21347224Y-8686624D02*
X21347224Y-8632176D01*
X21292776Y-8632176D01*
X21292776Y-8686624D01*
X21347224Y-8686624D01*
X21347224Y-8940624D02*
X21347224Y-8886176D01*
X21292776Y-8886176D01*
X21292776Y-8940624D01*
X21347224Y-8940624D01*
X21347224Y-9194624D02*
X21347224Y-9140176D01*
X21292776Y-9140176D01*
X21292776Y-9194624D01*
X21347224Y-9194624D01*
X21464824Y-9993424D02*
X21464824Y-9938976D01*
X21410376Y-9938976D01*
X21410376Y-9993424D01*
X21464824Y-9993424D01*
X21464824Y-10787424D02*
X21464824Y-10732976D01*
X21410376Y-10732976D01*
X21410376Y-10787424D01*
X21464824Y-10787424D01*
X21718824Y-9993424D02*
X21718824Y-9938976D01*
X21664376Y-9938976D01*
X21664376Y-9993424D01*
X21718824Y-9993424D01*
X21718824Y-10787424D02*
X21718824Y-10732976D01*
X21664376Y-10732976D01*
X21664376Y-10787424D01*
X21718824Y-10787424D01*
X22141224Y-7670624D02*
X22141224Y-7616176D01*
X22086776Y-7616176D01*
X22086776Y-7670624D01*
X22141224Y-7670624D01*
X22141224Y-7924624D02*
X22141224Y-7870176D01*
X22086776Y-7870176D01*
X22086776Y-7924624D01*
X22141224Y-7924624D01*
X22141224Y-8178624D02*
X22141224Y-8124176D01*
X22086776Y-8124176D01*
X22086776Y-8178624D01*
X22141224Y-8178624D01*
X22141224Y-8432624D02*
X22141224Y-8378176D01*
X22086776Y-8378176D01*
X22086776Y-8432624D01*
X22141224Y-8432624D01*
X22141224Y-8686624D02*
X22141224Y-8632176D01*
X22086776Y-8632176D01*
X22086776Y-8686624D01*
X22141224Y-8686624D01*
X22141224Y-8940624D02*
X22141224Y-8886176D01*
X22086776Y-8886176D01*
X22086776Y-8940624D01*
X22141224Y-8940624D01*
X22141224Y-9194624D02*
X22141224Y-9140176D01*
X22086776Y-9140176D01*
X22086776Y-9194624D01*
X22141224Y-9194624D01*
D16*
X15468600Y-8637900D02*
X15508600Y-8597900D01*
X15468600Y-8557900D01*
X15428600Y-8597900D01*
X15468600Y-8637900D01*
X15519400Y-7431400D02*
X15559400Y-7391400D01*
X15519400Y-7351400D01*
X15479400Y-7391400D01*
X15519400Y-7431400D01*
X15519400Y-8193400D02*
X15559400Y-8153400D01*
X15519400Y-8113400D01*
X15479400Y-8153400D01*
X15519400Y-8193400D01*
X15718600Y-8637900D02*
X15758600Y-8597900D01*
X15718600Y-8557900D01*
X15678600Y-8597900D01*
X15718600Y-8637900D01*
X15773400Y-7431400D02*
X15813400Y-7391400D01*
X15773400Y-7351400D01*
X15733400Y-7391400D01*
X15773400Y-7431400D01*
X15773400Y-8193400D02*
X15813400Y-8153400D01*
X15773400Y-8113400D01*
X15733400Y-8153400D01*
X15773400Y-8193400D01*
X16040600Y-8637900D02*
X16080600Y-8597900D01*
X16040600Y-8557900D01*
X16000600Y-8597900D01*
X16040600Y-8637900D01*
X16103600Y-7431400D02*
X16143600Y-7391400D01*
X16103600Y-7351400D01*
X16063600Y-7391400D01*
X16103600Y-7431400D01*
X16103600Y-8193400D02*
X16143600Y-8153400D01*
X16103600Y-8113400D01*
X16063600Y-8153400D01*
X16103600Y-8193400D01*
X16290600Y-8637900D02*
X16330600Y-8597900D01*
X16290600Y-8557900D01*
X16250600Y-8597900D01*
X16290600Y-8637900D01*
X16357600Y-7431400D02*
X16397600Y-7391400D01*
X16357600Y-7351400D01*
X16317600Y-7391400D01*
X16357600Y-7431400D01*
X16357600Y-8193400D02*
X16397600Y-8153400D01*
X16357600Y-8113400D01*
X16317600Y-8153400D01*
X16357600Y-8193400D01*
X16611600Y-8637900D02*
X16651600Y-8597900D01*
X16611600Y-8557900D01*
X16571600Y-8597900D01*
X16611600Y-8637900D01*
X16687800Y-7431400D02*
X16727800Y-7391400D01*
X16687800Y-7351400D01*
X16647800Y-7391400D01*
X16687800Y-7431400D01*
X16687800Y-8193400D02*
X16727800Y-8153400D01*
X16687800Y-8113400D01*
X16647800Y-8153400D01*
X16687800Y-8193400D01*
X16861600Y-8637900D02*
X16901600Y-8597900D01*
X16861600Y-8557900D01*
X16821600Y-8597900D01*
X16861600Y-8637900D01*
X16941800Y-7431400D02*
X16981800Y-7391400D01*
X16941800Y-7351400D01*
X16901800Y-7391400D01*
X16941800Y-7431400D01*
X16941800Y-8193400D02*
X16981800Y-8153400D01*
X16941800Y-8113400D01*
X16901800Y-8153400D01*
X16941800Y-8193400D01*
X17172400Y-8637900D02*
X17212400Y-8597900D01*
X17172400Y-8557900D01*
X17132400Y-8597900D01*
X17172400Y-8637900D01*
X17272000Y-7430400D02*
X17312000Y-7390400D01*
X17272000Y-7350400D01*
X17232000Y-7390400D01*
X17272000Y-7430400D01*
X17272000Y-8192400D02*
X17312000Y-8152400D01*
X17272000Y-8112400D01*
X17232000Y-8152400D01*
X17272000Y-8192400D01*
X17422400Y-8637900D02*
X17462400Y-8597900D01*
X17422400Y-8557900D01*
X17382400Y-8597900D01*
X17422400Y-8637900D01*
X17526000Y-7430400D02*
X17566000Y-7390400D01*
X17526000Y-7350400D01*
X17486000Y-7390400D01*
X17526000Y-7430400D01*
X17526000Y-8192400D02*
X17566000Y-8152400D01*
X17526000Y-8112400D01*
X17486000Y-8152400D01*
X17526000Y-8192400D01*
X18009100Y-7431400D02*
X18049100Y-7391400D01*
X18009100Y-7351400D01*
X17969100Y-7391400D01*
X18009100Y-7431400D01*
X18009100Y-8193400D02*
X18049100Y-8153400D01*
X18009100Y-8113400D01*
X17969100Y-8153400D01*
X18009100Y-8193400D01*
X18010600Y-8638900D02*
X18050600Y-8598900D01*
X18010600Y-8558900D01*
X17970600Y-8598900D01*
X18010600Y-8638900D01*
X18260600Y-8638900D02*
X18300600Y-8598900D01*
X18260600Y-8558900D01*
X18220600Y-8598900D01*
X18260600Y-8638900D01*
X18263100Y-7431400D02*
X18303100Y-7391400D01*
X18263100Y-7351400D01*
X18223100Y-7391400D01*
X18263100Y-7431400D01*
X18263100Y-8193400D02*
X18303100Y-8153400D01*
X18263100Y-8113400D01*
X18223100Y-8153400D01*
X18263100Y-8193400D01*
X18581100Y-7432400D02*
X18621100Y-7392400D01*
X18581100Y-7352400D01*
X18541100Y-7392400D01*
X18581100Y-7432400D01*
X18581100Y-8194400D02*
X18621100Y-8154400D01*
X18581100Y-8114400D01*
X18541100Y-8154400D01*
X18581100Y-8194400D01*
X18585100Y-8638900D02*
X18625100Y-8598900D01*
X18585100Y-8558900D01*
X18545100Y-8598900D01*
X18585100Y-8638900D01*
X18728560Y-9796200D02*
X18768560Y-9756200D01*
X18728560Y-9716200D01*
X18688560Y-9756200D01*
X18728560Y-9796200D01*
X18728560Y-10555600D02*
X18768560Y-10515600D01*
X18728560Y-10475600D01*
X18688560Y-10515600D01*
X18728560Y-10555600D01*
X18835100Y-7432400D02*
X18875100Y-7392400D01*
X18835100Y-7352400D01*
X18795100Y-7392400D01*
X18835100Y-7432400D01*
X18835100Y-8194400D02*
X18875100Y-8154400D01*
X18835100Y-8114400D01*
X18795100Y-8154400D01*
X18835100Y-8194400D01*
X18835100Y-8638900D02*
X18875100Y-8598900D01*
X18835100Y-8558900D01*
X18795100Y-8598900D01*
X18835100Y-8638900D01*
X18978560Y-9796200D02*
X19018560Y-9756200D01*
X18978560Y-9716200D01*
X18938560Y-9756200D01*
X18978560Y-9796200D01*
X18978560Y-10555600D02*
X19018560Y-10515600D01*
X18978560Y-10475600D01*
X18938560Y-10515600D01*
X18978560Y-10555600D01*
X19152600Y-7432400D02*
X19192600Y-7392400D01*
X19152600Y-7352400D01*
X19112600Y-7392400D01*
X19152600Y-7432400D01*
X19152600Y-8194400D02*
X19192600Y-8154400D01*
X19152600Y-8114400D01*
X19112600Y-8154400D01*
X19152600Y-8194400D01*
X19152600Y-8638900D02*
X19192600Y-8598900D01*
X19152600Y-8558900D01*
X19112600Y-8598900D01*
X19152600Y-8638900D01*
X19402600Y-8638900D02*
X19442600Y-8598900D01*
X19402600Y-8558900D01*
X19362600Y-8598900D01*
X19402600Y-8638900D01*
X19406600Y-7432400D02*
X19446600Y-7392400D01*
X19406600Y-7352400D01*
X19366600Y-7392400D01*
X19406600Y-7432400D01*
X19406600Y-8194400D02*
X19446600Y-8154400D01*
X19406600Y-8114400D01*
X19366600Y-8154400D01*
X19406600Y-8194400D01*
X19724100Y-7432400D02*
X19764100Y-7392400D01*
X19724100Y-7352400D01*
X19684100Y-7392400D01*
X19724100Y-7432400D01*
X19724100Y-8194400D02*
X19764100Y-8154400D01*
X19724100Y-8114400D01*
X19684100Y-8154400D01*
X19724100Y-8194400D01*
X19726100Y-8638900D02*
X19766100Y-8598900D01*
X19726100Y-8558900D01*
X19686100Y-8598900D01*
X19726100Y-8638900D01*
X19761200Y-10073000D02*
X19801200Y-10033000D01*
X19761200Y-9993000D01*
X19721200Y-10033000D01*
X19761200Y-10073000D01*
X19761200Y-10323000D02*
X19801200Y-10283000D01*
X19761200Y-10243000D01*
X19721200Y-10283000D01*
X19761200Y-10323000D01*
X19976100Y-8638900D02*
X20016100Y-8598900D01*
X19976100Y-8558900D01*
X19936100Y-8598900D01*
X19976100Y-8638900D01*
X19978100Y-7432400D02*
X20018100Y-7392400D01*
X19978100Y-7352400D01*
X19938100Y-7392400D01*
X19978100Y-7432400D01*
X19978100Y-8194400D02*
X20018100Y-8154400D01*
X19978100Y-8114400D01*
X19938100Y-8154400D01*
X19978100Y-8194400D01*
X20269200Y-11444600D02*
X20309200Y-11404600D01*
X20269200Y-11364600D01*
X20229200Y-11404600D01*
X20269200Y-11444600D01*
X20269200Y-11698600D02*
X20309200Y-11658600D01*
X20269200Y-11618600D01*
X20229200Y-11658600D01*
X20269200Y-11698600D01*
X20269200Y-11952600D02*
X20309200Y-11912600D01*
X20269200Y-11872600D01*
X20229200Y-11912600D01*
X20269200Y-11952600D01*
X20269200Y-12206600D02*
X20309200Y-12166600D01*
X20269200Y-12126600D01*
X20229200Y-12166600D01*
X20269200Y-12206600D01*
X20269200Y-12460600D02*
X20309200Y-12420600D01*
X20269200Y-12380600D01*
X20229200Y-12420600D01*
X20269200Y-12460600D01*
X20269200Y-12714600D02*
X20309200Y-12674600D01*
X20269200Y-12634600D01*
X20229200Y-12674600D01*
X20269200Y-12714600D01*
X20269200Y-12968600D02*
X20309200Y-12928600D01*
X20269200Y-12888600D01*
X20229200Y-12928600D01*
X20269200Y-12968600D01*
X20269200Y-13222600D02*
X20309200Y-13182600D01*
X20269200Y-13142600D01*
X20229200Y-13182600D01*
X20269200Y-13222600D01*
X20472400Y-7432400D02*
X20512400Y-7392400D01*
X20472400Y-7352400D01*
X20432400Y-7392400D01*
X20472400Y-7432400D01*
X20472400Y-8194400D02*
X20512400Y-8154400D01*
X20472400Y-8114400D01*
X20432400Y-8154400D01*
X20472400Y-8194400D01*
X20476400Y-8649600D02*
X20516400Y-8609600D01*
X20476400Y-8569600D01*
X20436400Y-8609600D01*
X20476400Y-8649600D01*
X20726400Y-7432400D02*
X20766400Y-7392400D01*
X20726400Y-7352400D01*
X20686400Y-7392400D01*
X20726400Y-7432400D01*
X20726400Y-8194400D02*
X20766400Y-8154400D01*
X20726400Y-8114400D01*
X20686400Y-8154400D01*
X20726400Y-8194400D01*
X20726400Y-8649600D02*
X20766400Y-8609600D01*
X20726400Y-8569600D01*
X20686400Y-8609600D01*
X20726400Y-8649600D01*
X21031200Y-11444600D02*
X21071200Y-11404600D01*
X21031200Y-11364600D01*
X20991200Y-11404600D01*
X21031200Y-11444600D01*
X21031200Y-11698600D02*
X21071200Y-11658600D01*
X21031200Y-11618600D01*
X20991200Y-11658600D01*
X21031200Y-11698600D01*
X21031200Y-11952600D02*
X21071200Y-11912600D01*
X21031200Y-11872600D01*
X20991200Y-11912600D01*
X21031200Y-11952600D01*
X21031200Y-12206600D02*
X21071200Y-12166600D01*
X21031200Y-12126600D01*
X20991200Y-12166600D01*
X21031200Y-12206600D01*
X21031200Y-12460600D02*
X21071200Y-12420600D01*
X21031200Y-12380600D01*
X20991200Y-12420600D01*
X21031200Y-12460600D01*
X21031200Y-12714600D02*
X21071200Y-12674600D01*
X21031200Y-12634600D01*
X20991200Y-12674600D01*
X21031200Y-12714600D01*
X21031200Y-12968600D02*
X21071200Y-12928600D01*
X21031200Y-12888600D01*
X20991200Y-12928600D01*
X21031200Y-12968600D01*
X21031200Y-13222600D02*
X21071200Y-13182600D01*
X21031200Y-13142600D01*
X20991200Y-13182600D01*
X21031200Y-13222600D01*
X21539200Y-11444600D02*
X21579200Y-11404600D01*
X21539200Y-11364600D01*
X21499200Y-11404600D01*
X21539200Y-11444600D01*
X21539200Y-11698600D02*
X21579200Y-11658600D01*
X21539200Y-11618600D01*
X21499200Y-11658600D01*
X21539200Y-11698600D01*
X21539200Y-11952600D02*
X21579200Y-11912600D01*
X21539200Y-11872600D01*
X21499200Y-11912600D01*
X21539200Y-11952600D01*
X21539200Y-12206600D02*
X21579200Y-12166600D01*
X21539200Y-12126600D01*
X21499200Y-12166600D01*
X21539200Y-12206600D01*
X21539200Y-12460600D02*
X21579200Y-12420600D01*
X21539200Y-12380600D01*
X21499200Y-12420600D01*
X21539200Y-12460600D01*
X21539200Y-12714600D02*
X21579200Y-12674600D01*
X21539200Y-12634600D01*
X21499200Y-12674600D01*
X21539200Y-12714600D01*
X21539200Y-12968600D02*
X21579200Y-12928600D01*
X21539200Y-12888600D01*
X21499200Y-12928600D01*
X21539200Y-12968600D01*
X21539200Y-13222600D02*
X21579200Y-13182600D01*
X21539200Y-13142600D01*
X21499200Y-13182600D01*
X21539200Y-13222600D01*
X22301200Y-11444600D02*
X22341200Y-11404600D01*
X22301200Y-11364600D01*
X22261200Y-11404600D01*
X22301200Y-11444600D01*
X22301200Y-11698600D02*
X22341200Y-11658600D01*
X22301200Y-11618600D01*
X22261200Y-11658600D01*
X22301200Y-11698600D01*
X22301200Y-11952600D02*
X22341200Y-11912600D01*
X22301200Y-11872600D01*
X22261200Y-11912600D01*
X22301200Y-11952600D01*
X22301200Y-12206600D02*
X22341200Y-12166600D01*
X22301200Y-12126600D01*
X22261200Y-12166600D01*
X22301200Y-12206600D01*
X22301200Y-12460600D02*
X22341200Y-12420600D01*
X22301200Y-12380600D01*
X22261200Y-12420600D01*
X22301200Y-12460600D01*
X22301200Y-12714600D02*
X22341200Y-12674600D01*
X22301200Y-12634600D01*
X22261200Y-12674600D01*
X22301200Y-12714600D01*
X22301200Y-12968600D02*
X22341200Y-12928600D01*
X22301200Y-12888600D01*
X22261200Y-12928600D01*
X22301200Y-12968600D01*
X22301200Y-13222600D02*
X22341200Y-13182600D01*
X22301200Y-13142600D01*
X22261200Y-13182600D01*
X22301200Y-13222600D01*
X22377400Y-7562400D02*
X22417400Y-7522400D01*
X22377400Y-7482400D01*
X22337400Y-7522400D01*
X22377400Y-7562400D01*
X22377400Y-7812400D02*
X22417400Y-7772400D01*
X22377400Y-7732400D01*
X22337400Y-7772400D01*
X22377400Y-7812400D01*
D17*
X15855400Y-12693100D02*
X15945400Y-12783100D01*
X15945400Y-12693100D02*
X15855400Y-12783100D01*
X15945400Y-12738100D02*
G75*
G03*
X15945400Y-12738100I-45000J0D01*
G01*
X15855400Y-13455100D02*
X15945400Y-13545100D01*
X15945400Y-13455100D02*
X15855400Y-13545100D01*
X15945400Y-13500100D02*
G75*
G03*
X15945400Y-13500100I-45000J0D01*
G01*
X19208200Y-12655000D02*
X19298200Y-12745000D01*
X19298200Y-12655000D02*
X19208200Y-12745000D01*
X19298200Y-12700000D02*
G75*
G03*
X19298200Y-12700000I-45000J0D01*
G01*
X19208200Y-13417000D02*
X19298200Y-13507000D01*
X19298200Y-13417000D02*
X19208200Y-13507000D01*
X19298200Y-13462000D02*
G75*
G03*
X19298200Y-13462000I-45000J0D01*
G01*
D18*
X19617400Y-14842700D02*
X19712400Y-14937700D01*
X19712400Y-14842700D02*
X19617400Y-14937700D01*
X19664900Y-14842700D02*
X19664900Y-14937700D01*
X19617400Y-14890200D02*
X19712400Y-14890200D01*
X19867400Y-14842700D02*
X19962400Y-14937700D01*
X19962400Y-14842700D02*
X19867400Y-14937700D01*
X19914900Y-14842700D02*
X19914900Y-14937700D01*
X19867400Y-14890200D02*
X19962400Y-14890200D01*
X20117400Y-14842700D02*
X20212400Y-14937700D01*
X20212400Y-14842700D02*
X20117400Y-14937700D01*
X20164900Y-14842700D02*
X20164900Y-14937700D01*
X20117400Y-14890200D02*
X20212400Y-14890200D01*
X20367400Y-14842700D02*
X20462400Y-14937700D01*
X20462400Y-14842700D02*
X20367400Y-14937700D01*
X20414900Y-14842700D02*
X20414900Y-14937700D01*
X20367400Y-14890200D02*
X20462400Y-14890200D01*
X20617400Y-14842700D02*
X20712400Y-14937700D01*
X20712400Y-14842700D02*
X20617400Y-14937700D01*
X20664900Y-14842700D02*
X20664900Y-14937700D01*
X20617400Y-14890200D02*
X20712400Y-14890200D01*
X20867400Y-14842700D02*
X20962400Y-14937700D01*
X20962400Y-14842700D02*
X20867400Y-14937700D01*
X20914900Y-14842700D02*
X20914900Y-14937700D01*
X20867400Y-14890200D02*
X20962400Y-14890200D01*
X20907500Y-6454900D02*
X21002500Y-6549900D01*
X21002500Y-6454900D02*
X20907500Y-6549900D01*
X20955000Y-6454900D02*
X20955000Y-6549900D01*
X20907500Y-6502400D02*
X21002500Y-6502400D01*
X21117400Y-14842700D02*
X21212400Y-14937700D01*
X21212400Y-14842700D02*
X21117400Y-14937700D01*
X21164900Y-14842700D02*
X21164900Y-14937700D01*
X21117400Y-14890200D02*
X21212400Y-14890200D01*
X21157500Y-6454900D02*
X21252500Y-6549900D01*
X21252500Y-6454900D02*
X21157500Y-6549900D01*
X21205000Y-6454900D02*
X21205000Y-6549900D01*
X21157500Y-6502400D02*
X21252500Y-6502400D01*
X21367400Y-14842700D02*
X21462400Y-14937700D01*
X21462400Y-14842700D02*
X21367400Y-14937700D01*
X21414900Y-14842700D02*
X21414900Y-14937700D01*
X21367400Y-14890200D02*
X21462400Y-14890200D01*
X21407500Y-6454900D02*
X21502500Y-6549900D01*
X21502500Y-6454900D02*
X21407500Y-6549900D01*
X21455000Y-6454900D02*
X21455000Y-6549900D01*
X21407500Y-6502400D02*
X21502500Y-6502400D01*
X21657500Y-6454900D02*
X21752500Y-6549900D01*
X21752500Y-6454900D02*
X21657500Y-6549900D01*
X21705000Y-6454900D02*
X21705000Y-6549900D01*
X21657500Y-6502400D02*
X21752500Y-6502400D01*
X21907500Y-6454900D02*
X22002500Y-6549900D01*
X22002500Y-6454900D02*
X21907500Y-6549900D01*
X21955000Y-6454900D02*
X21955000Y-6549900D01*
X21907500Y-6502400D02*
X22002500Y-6502400D01*
X22027700Y-14844100D02*
X22122700Y-14939100D01*
X22122700Y-14844100D02*
X22027700Y-14939100D01*
X22075200Y-14844100D02*
X22075200Y-14939100D01*
X22027700Y-14891600D02*
X22122700Y-14891600D01*
X22157500Y-6454900D02*
X22252500Y-6549900D01*
X22252500Y-6454900D02*
X22157500Y-6549900D01*
X22205000Y-6454900D02*
X22205000Y-6549900D01*
X22157500Y-6502400D02*
X22252500Y-6502400D01*
X22277700Y-14844100D02*
X22372700Y-14939100D01*
X22372700Y-14844100D02*
X22277700Y-14939100D01*
X22325200Y-14844100D02*
X22325200Y-14939100D01*
X22277700Y-14891600D02*
X22372700Y-14891600D01*
X22527700Y-14844100D02*
X22622700Y-14939100D01*
X22622700Y-14844100D02*
X22527700Y-14939100D01*
X22575200Y-14844100D02*
X22575200Y-14939100D01*
X22527700Y-14891600D02*
X22622700Y-14891600D01*
X22777700Y-14844100D02*
X22872700Y-14939100D01*
X22872700Y-14844100D02*
X22777700Y-14939100D01*
X22825200Y-14844100D02*
X22825200Y-14939100D01*
X22777700Y-14891600D02*
X22872700Y-14891600D01*
X23027700Y-14844100D02*
X23122700Y-14939100D01*
X23122700Y-14844100D02*
X23027700Y-14939100D01*
X23075200Y-14844100D02*
X23075200Y-14939100D01*
X23027700Y-14891600D02*
X23122700Y-14891600D01*
X23277700Y-14844100D02*
X23372700Y-14939100D01*
X23372700Y-14844100D02*
X23277700Y-14939100D01*
X23325200Y-14844100D02*
X23325200Y-14939100D01*
X23277700Y-14891600D02*
X23372700Y-14891600D01*
X23527700Y-14844100D02*
X23622700Y-14939100D01*
X23622700Y-14844100D02*
X23527700Y-14939100D01*
X23575200Y-14844100D02*
X23575200Y-14939100D01*
X23527700Y-14891600D02*
X23622700Y-14891600D01*
X23777700Y-14844100D02*
X23872700Y-14939100D01*
X23872700Y-14844100D02*
X23777700Y-14939100D01*
X23825200Y-14844100D02*
X23825200Y-14939100D01*
X23777700Y-14891600D02*
X23872700Y-14891600D01*
X23828500Y-6564500D02*
X23923500Y-6659500D01*
X23923500Y-6564500D02*
X23828500Y-6659500D01*
X23876000Y-6564500D02*
X23876000Y-6659500D01*
X23828500Y-6612000D02*
X23923500Y-6612000D01*
X23828500Y-6814500D02*
X23923500Y-6909500D01*
X23923500Y-6814500D02*
X23828500Y-6909500D01*
X23876000Y-6814500D02*
X23876000Y-6909500D01*
X23828500Y-6862000D02*
X23923500Y-6862000D01*
X23828500Y-7064500D02*
X23923500Y-7159500D01*
X23923500Y-7064500D02*
X23828500Y-7159500D01*
X23876000Y-7064500D02*
X23876000Y-7159500D01*
X23828500Y-7112000D02*
X23923500Y-7112000D01*
X23828500Y-7314500D02*
X23923500Y-7409500D01*
X23923500Y-7314500D02*
X23828500Y-7409500D01*
X23876000Y-7314500D02*
X23876000Y-7409500D01*
X23828500Y-7362000D02*
X23923500Y-7362000D01*
X23828500Y-7564500D02*
X23923500Y-7659500D01*
X23923500Y-7564500D02*
X23828500Y-7659500D01*
X23876000Y-7564500D02*
X23876000Y-7659500D01*
X23828500Y-7612000D02*
X23923500Y-7612000D01*
X23828500Y-7814500D02*
X23923500Y-7909500D01*
X23923500Y-7814500D02*
X23828500Y-7909500D01*
X23876000Y-7814500D02*
X23876000Y-7909500D01*
X23828500Y-7862000D02*
X23923500Y-7862000D01*
X23828500Y-8064500D02*
X23923500Y-8159500D01*
X23923500Y-8064500D02*
X23828500Y-8159500D01*
X23876000Y-8064500D02*
X23876000Y-8159500D01*
X23828500Y-8112000D02*
X23923500Y-8112000D01*
X23828500Y-8314500D02*
X23923500Y-8409500D01*
X23923500Y-8314500D02*
X23828500Y-8409500D01*
X23876000Y-8314500D02*
X23876000Y-8409500D01*
X23828500Y-8362000D02*
X23923500Y-8362000D01*
X23828500Y-9098500D02*
X23923500Y-9193500D01*
X23923500Y-9098500D02*
X23828500Y-9193500D01*
X23876000Y-9098500D02*
X23876000Y-9193500D01*
X23828500Y-9146000D02*
X23923500Y-9146000D01*
X23828500Y-9348500D02*
X23923500Y-9443500D01*
X23923500Y-9348500D02*
X23828500Y-9443500D01*
X23876000Y-9348500D02*
X23876000Y-9443500D01*
X23828500Y-9396000D02*
X23923500Y-9396000D01*
X23828500Y-9598500D02*
X23923500Y-9693500D01*
X23923500Y-9598500D02*
X23828500Y-9693500D01*
X23876000Y-9598500D02*
X23876000Y-9693500D01*
X23828500Y-9646000D02*
X23923500Y-9646000D01*
X23828500Y-9848500D02*
X23923500Y-9943500D01*
X23923500Y-9848500D02*
X23828500Y-9943500D01*
X23876000Y-9848500D02*
X23876000Y-9943500D01*
X23828500Y-9896000D02*
X23923500Y-9896000D01*
X23828500Y-10098500D02*
X23923500Y-10193500D01*
X23923500Y-10098500D02*
X23828500Y-10193500D01*
X23876000Y-10098500D02*
X23876000Y-10193500D01*
X23828500Y-10146000D02*
X23923500Y-10146000D01*
X23828500Y-10348500D02*
X23923500Y-10443500D01*
X23923500Y-10348500D02*
X23828500Y-10443500D01*
X23876000Y-10348500D02*
X23876000Y-10443500D01*
X23828500Y-10396000D02*
X23923500Y-10396000D01*
X23828500Y-10598500D02*
X23923500Y-10693500D01*
X23923500Y-10598500D02*
X23828500Y-10693500D01*
X23876000Y-10598500D02*
X23876000Y-10693500D01*
X23828500Y-10646000D02*
X23923500Y-10646000D01*
X23828500Y-10848500D02*
X23923500Y-10943500D01*
X23923500Y-10848500D02*
X23828500Y-10943500D01*
X23876000Y-10848500D02*
X23876000Y-10943500D01*
X23828500Y-10896000D02*
X23923500Y-10896000D01*
X23828500Y-11687300D02*
X23923500Y-11782300D01*
X23923500Y-11687300D02*
X23828500Y-11782300D01*
X23876000Y-11687300D02*
X23876000Y-11782300D01*
X23828500Y-11734800D02*
X23923500Y-11734800D01*
X23828500Y-11937300D02*
X23923500Y-12032300D01*
X23923500Y-11937300D02*
X23828500Y-12032300D01*
X23876000Y-11937300D02*
X23876000Y-12032300D01*
X23828500Y-11984800D02*
X23923500Y-11984800D01*
X23828500Y-12187300D02*
X23923500Y-12282300D01*
X23923500Y-12187300D02*
X23828500Y-12282300D01*
X23876000Y-12187300D02*
X23876000Y-12282300D01*
X23828500Y-12234800D02*
X23923500Y-12234800D01*
X23828500Y-12437300D02*
X23923500Y-12532300D01*
X23923500Y-12437300D02*
X23828500Y-12532300D01*
X23876000Y-12437300D02*
X23876000Y-12532300D01*
X23828500Y-12484800D02*
X23923500Y-12484800D01*
X23828500Y-12687300D02*
X23923500Y-12782300D01*
X23923500Y-12687300D02*
X23828500Y-12782300D01*
X23876000Y-12687300D02*
X23876000Y-12782300D01*
X23828500Y-12734800D02*
X23923500Y-12734800D01*
X23828500Y-12937300D02*
X23923500Y-13032300D01*
X23923500Y-12937300D02*
X23828500Y-13032300D01*
X23876000Y-12937300D02*
X23876000Y-13032300D01*
X23828500Y-12984800D02*
X23923500Y-12984800D01*
X23828500Y-13187300D02*
X23923500Y-13282300D01*
X23923500Y-13187300D02*
X23828500Y-13282300D01*
X23876000Y-13187300D02*
X23876000Y-13282300D01*
X23828500Y-13234800D02*
X23923500Y-13234800D01*
X23828500Y-13437300D02*
X23923500Y-13532300D01*
X23923500Y-13437300D02*
X23828500Y-13532300D01*
X23876000Y-13437300D02*
X23876000Y-13532300D01*
X23828500Y-13484800D02*
X23923500Y-13484800D01*
D10*
X13107200Y-6452400D02*
X13207200Y-6552400D01*
X13207200Y-6452400D02*
X13107200Y-6552400D01*
X13192556Y-6537756D02*
X13192556Y-6467044D01*
X13121844Y-6467044D01*
X13121844Y-6537756D01*
X13192556Y-6537756D01*
X13107200Y-6935000D02*
X13207200Y-7035000D01*
X13207200Y-6935000D02*
X13107200Y-7035000D01*
X13192556Y-7020356D02*
X13192556Y-6949644D01*
X13121844Y-6949644D01*
X13121844Y-7020356D01*
X13192556Y-7020356D01*
X13107200Y-8382800D02*
X13207200Y-8482800D01*
X13207200Y-8382800D02*
X13107200Y-8482800D01*
X13192556Y-8468156D02*
X13192556Y-8397444D01*
X13121844Y-8397444D01*
X13121844Y-8468156D01*
X13192556Y-8468156D01*
X13108700Y-7443000D02*
X13208700Y-7543000D01*
X13208700Y-7443000D02*
X13108700Y-7543000D01*
X13194056Y-7528356D02*
X13194056Y-7457644D01*
X13123344Y-7457644D01*
X13123344Y-7528356D01*
X13194056Y-7528356D01*
X13108700Y-7925600D02*
X13208700Y-8025600D01*
X13208700Y-7925600D02*
X13108700Y-8025600D01*
X13194056Y-8010956D02*
X13194056Y-7940244D01*
X13123344Y-7940244D01*
X13123344Y-8010956D01*
X13194056Y-8010956D01*
X13361200Y-6452400D02*
X13461200Y-6552400D01*
X13461200Y-6452400D02*
X13361200Y-6552400D01*
X13446556Y-6537756D02*
X13446556Y-6467044D01*
X13375844Y-6467044D01*
X13375844Y-6537756D01*
X13446556Y-6537756D01*
X13361200Y-6935000D02*
X13461200Y-7035000D01*
X13461200Y-6935000D02*
X13361200Y-7035000D01*
X13446556Y-7020356D02*
X13446556Y-6949644D01*
X13375844Y-6949644D01*
X13375844Y-7020356D01*
X13446556Y-7020356D01*
X13361200Y-8382800D02*
X13461200Y-8482800D01*
X13461200Y-8382800D02*
X13361200Y-8482800D01*
X13446556Y-8468156D02*
X13446556Y-8397444D01*
X13375844Y-8397444D01*
X13375844Y-8468156D01*
X13446556Y-8468156D01*
X13362700Y-7443000D02*
X13462700Y-7543000D01*
X13462700Y-7443000D02*
X13362700Y-7543000D01*
X13448056Y-7528356D02*
X13448056Y-7457644D01*
X13377344Y-7457644D01*
X13377344Y-7528356D01*
X13448056Y-7528356D01*
X13362700Y-7925600D02*
X13462700Y-8025600D01*
X13462700Y-7925600D02*
X13362700Y-8025600D01*
X13448056Y-8010956D02*
X13448056Y-7940244D01*
X13377344Y-7940244D01*
X13377344Y-8010956D01*
X13448056Y-8010956D01*
X13615200Y-6452400D02*
X13715200Y-6552400D01*
X13715200Y-6452400D02*
X13615200Y-6552400D01*
X13700556Y-6537756D02*
X13700556Y-6467044D01*
X13629844Y-6467044D01*
X13629844Y-6537756D01*
X13700556Y-6537756D01*
X13615200Y-6935000D02*
X13715200Y-7035000D01*
X13715200Y-6935000D02*
X13615200Y-7035000D01*
X13700556Y-7020356D02*
X13700556Y-6949644D01*
X13629844Y-6949644D01*
X13629844Y-7020356D01*
X13700556Y-7020356D01*
X13615200Y-8382800D02*
X13715200Y-8482800D01*
X13715200Y-8382800D02*
X13615200Y-8482800D01*
X13700556Y-8468156D02*
X13700556Y-8397444D01*
X13629844Y-8397444D01*
X13629844Y-8468156D01*
X13700556Y-8468156D01*
X13615200Y-8941600D02*
X13715200Y-9041600D01*
X13715200Y-8941600D02*
X13615200Y-9041600D01*
X13700556Y-9026956D02*
X13700556Y-8956244D01*
X13629844Y-8956244D01*
X13629844Y-9026956D01*
X13700556Y-9026956D01*
X13616700Y-7443000D02*
X13716700Y-7543000D01*
X13716700Y-7443000D02*
X13616700Y-7543000D01*
X13702056Y-7528356D02*
X13702056Y-7457644D01*
X13631344Y-7457644D01*
X13631344Y-7528356D01*
X13702056Y-7528356D01*
X13616700Y-7925600D02*
X13716700Y-8025600D01*
X13716700Y-7925600D02*
X13616700Y-8025600D01*
X13702056Y-8010956D02*
X13702056Y-7940244D01*
X13631344Y-7940244D01*
X13631344Y-8010956D01*
X13702056Y-8010956D01*
X13869200Y-6452400D02*
X13969200Y-6552400D01*
X13969200Y-6452400D02*
X13869200Y-6552400D01*
X13954556Y-6537756D02*
X13954556Y-6467044D01*
X13883844Y-6467044D01*
X13883844Y-6537756D01*
X13954556Y-6537756D01*
X13869200Y-6935000D02*
X13969200Y-7035000D01*
X13969200Y-6935000D02*
X13869200Y-7035000D01*
X13954556Y-7020356D02*
X13954556Y-6949644D01*
X13883844Y-6949644D01*
X13883844Y-7020356D01*
X13954556Y-7020356D01*
X13869200Y-8382800D02*
X13969200Y-8482800D01*
X13969200Y-8382800D02*
X13869200Y-8482800D01*
X13954556Y-8468156D02*
X13954556Y-8397444D01*
X13883844Y-8397444D01*
X13883844Y-8468156D01*
X13954556Y-8468156D01*
X13869200Y-8941600D02*
X13969200Y-9041600D01*
X13969200Y-8941600D02*
X13869200Y-9041600D01*
X13954556Y-9026956D02*
X13954556Y-8956244D01*
X13883844Y-8956244D01*
X13883844Y-9026956D01*
X13954556Y-9026956D01*
X13870700Y-7443000D02*
X13970700Y-7543000D01*
X13970700Y-7443000D02*
X13870700Y-7543000D01*
X13956056Y-7528356D02*
X13956056Y-7457644D01*
X13885344Y-7457644D01*
X13885344Y-7528356D01*
X13956056Y-7528356D01*
X13870700Y-7925600D02*
X13970700Y-8025600D01*
X13970700Y-7925600D02*
X13870700Y-8025600D01*
X13956056Y-8010956D02*
X13956056Y-7940244D01*
X13885344Y-7940244D01*
X13885344Y-8010956D01*
X13956056Y-8010956D01*
X14123200Y-6452400D02*
X14223200Y-6552400D01*
X14223200Y-6452400D02*
X14123200Y-6552400D01*
X14208556Y-6537756D02*
X14208556Y-6467044D01*
X14137844Y-6467044D01*
X14137844Y-6537756D01*
X14208556Y-6537756D01*
X14123200Y-6935000D02*
X14223200Y-7035000D01*
X14223200Y-6935000D02*
X14123200Y-7035000D01*
X14208556Y-7020356D02*
X14208556Y-6949644D01*
X14137844Y-6949644D01*
X14137844Y-7020356D01*
X14208556Y-7020356D01*
X14123200Y-8382800D02*
X14223200Y-8482800D01*
X14223200Y-8382800D02*
X14123200Y-8482800D01*
X14208556Y-8468156D02*
X14208556Y-8397444D01*
X14137844Y-8397444D01*
X14137844Y-8468156D01*
X14208556Y-8468156D01*
X14123200Y-8941600D02*
X14223200Y-9041600D01*
X14223200Y-8941600D02*
X14123200Y-9041600D01*
X14208556Y-9026956D02*
X14208556Y-8956244D01*
X14137844Y-8956244D01*
X14137844Y-9026956D01*
X14208556Y-9026956D01*
X14124700Y-7443000D02*
X14224700Y-7543000D01*
X14224700Y-7443000D02*
X14124700Y-7543000D01*
X14210056Y-7528356D02*
X14210056Y-7457644D01*
X14139344Y-7457644D01*
X14139344Y-7528356D01*
X14210056Y-7528356D01*
X14124700Y-7925600D02*
X14224700Y-8025600D01*
X14224700Y-7925600D02*
X14124700Y-8025600D01*
X14210056Y-8010956D02*
X14210056Y-7940244D01*
X14139344Y-7940244D01*
X14139344Y-8010956D01*
X14210056Y-8010956D01*
X14377200Y-6452400D02*
X14477200Y-6552400D01*
X14477200Y-6452400D02*
X14377200Y-6552400D01*
X14462556Y-6537756D02*
X14462556Y-6467044D01*
X14391844Y-6467044D01*
X14391844Y-6537756D01*
X14462556Y-6537756D01*
X14377200Y-6935000D02*
X14477200Y-7035000D01*
X14477200Y-6935000D02*
X14377200Y-7035000D01*
X14462556Y-7020356D02*
X14462556Y-6949644D01*
X14391844Y-6949644D01*
X14391844Y-7020356D01*
X14462556Y-7020356D01*
X14377200Y-8382800D02*
X14477200Y-8482800D01*
X14477200Y-8382800D02*
X14377200Y-8482800D01*
X14462556Y-8468156D02*
X14462556Y-8397444D01*
X14391844Y-8397444D01*
X14391844Y-8468156D01*
X14462556Y-8468156D01*
X14377200Y-8941600D02*
X14477200Y-9041600D01*
X14477200Y-8941600D02*
X14377200Y-9041600D01*
X14462556Y-9026956D02*
X14462556Y-8956244D01*
X14391844Y-8956244D01*
X14391844Y-9026956D01*
X14462556Y-9026956D01*
X14378700Y-7443000D02*
X14478700Y-7543000D01*
X14478700Y-7443000D02*
X14378700Y-7543000D01*
X14464056Y-7528356D02*
X14464056Y-7457644D01*
X14393344Y-7457644D01*
X14393344Y-7528356D01*
X14464056Y-7528356D01*
X14378700Y-7925600D02*
X14478700Y-8025600D01*
X14478700Y-7925600D02*
X14378700Y-8025600D01*
X14464056Y-8010956D02*
X14464056Y-7940244D01*
X14393344Y-7940244D01*
X14393344Y-8010956D01*
X14464056Y-8010956D01*
X14631200Y-6452400D02*
X14731200Y-6552400D01*
X14731200Y-6452400D02*
X14631200Y-6552400D01*
X14716556Y-6537756D02*
X14716556Y-6467044D01*
X14645844Y-6467044D01*
X14645844Y-6537756D01*
X14716556Y-6537756D01*
X14631200Y-6935000D02*
X14731200Y-7035000D01*
X14731200Y-6935000D02*
X14631200Y-7035000D01*
X14716556Y-7020356D02*
X14716556Y-6949644D01*
X14645844Y-6949644D01*
X14645844Y-7020356D01*
X14716556Y-7020356D01*
X14631200Y-8382800D02*
X14731200Y-8482800D01*
X14731200Y-8382800D02*
X14631200Y-8482800D01*
X14716556Y-8468156D02*
X14716556Y-8397444D01*
X14645844Y-8397444D01*
X14645844Y-8468156D01*
X14716556Y-8468156D01*
X14631200Y-8941600D02*
X14731200Y-9041600D01*
X14731200Y-8941600D02*
X14631200Y-9041600D01*
X14716556Y-9026956D02*
X14716556Y-8956244D01*
X14645844Y-8956244D01*
X14645844Y-9026956D01*
X14716556Y-9026956D01*
X14632700Y-7443000D02*
X14732700Y-7543000D01*
X14732700Y-7443000D02*
X14632700Y-7543000D01*
X14718056Y-7528356D02*
X14718056Y-7457644D01*
X14647344Y-7457644D01*
X14647344Y-7528356D01*
X14718056Y-7528356D01*
X14632700Y-7925600D02*
X14732700Y-8025600D01*
X14732700Y-7925600D02*
X14632700Y-8025600D01*
X14718056Y-8010956D02*
X14718056Y-7940244D01*
X14647344Y-7940244D01*
X14647344Y-8010956D01*
X14718056Y-8010956D01*
X14885200Y-6452400D02*
X14985200Y-6552400D01*
X14985200Y-6452400D02*
X14885200Y-6552400D01*
X14970556Y-6537756D02*
X14970556Y-6467044D01*
X14899844Y-6467044D01*
X14899844Y-6537756D01*
X14970556Y-6537756D01*
X14885200Y-6935000D02*
X14985200Y-7035000D01*
X14985200Y-6935000D02*
X14885200Y-7035000D01*
X14970556Y-7020356D02*
X14970556Y-6949644D01*
X14899844Y-6949644D01*
X14899844Y-7020356D01*
X14970556Y-7020356D01*
X14885200Y-8382800D02*
X14985200Y-8482800D01*
X14985200Y-8382800D02*
X14885200Y-8482800D01*
X14970556Y-8468156D02*
X14970556Y-8397444D01*
X14899844Y-8397444D01*
X14899844Y-8468156D01*
X14970556Y-8468156D01*
X14885200Y-8941600D02*
X14985200Y-9041600D01*
X14985200Y-8941600D02*
X14885200Y-9041600D01*
X14970556Y-9026956D02*
X14970556Y-8956244D01*
X14899844Y-8956244D01*
X14899844Y-9026956D01*
X14970556Y-9026956D01*
X14886700Y-7443000D02*
X14986700Y-7543000D01*
X14986700Y-7443000D02*
X14886700Y-7543000D01*
X14972056Y-7528356D02*
X14972056Y-7457644D01*
X14901344Y-7457644D01*
X14901344Y-7528356D01*
X14972056Y-7528356D01*
X14886700Y-7925600D02*
X14986700Y-8025600D01*
X14986700Y-7925600D02*
X14886700Y-8025600D01*
X14972056Y-8010956D02*
X14972056Y-7940244D01*
X14901344Y-7940244D01*
X14901344Y-8010956D01*
X14972056Y-8010956D01*
X15494800Y-12751100D02*
X15594800Y-12851100D01*
X15594800Y-12751100D02*
X15494800Y-12851100D01*
X15580156Y-12836456D02*
X15580156Y-12765744D01*
X15509444Y-12765744D01*
X15509444Y-12836456D01*
X15580156Y-12836456D01*
X15494800Y-13005100D02*
X15594800Y-13105100D01*
X15594800Y-13005100D02*
X15494800Y-13105100D01*
X15580156Y-13090456D02*
X15580156Y-13019744D01*
X15509444Y-13019744D01*
X15509444Y-13090456D01*
X15580156Y-13090456D01*
X15494800Y-13487700D02*
X15594800Y-13587700D01*
X15594800Y-13487700D02*
X15494800Y-13587700D01*
X15580156Y-13573056D02*
X15580156Y-13502344D01*
X15509444Y-13502344D01*
X15509444Y-13573056D01*
X15580156Y-13573056D01*
X15494800Y-13741700D02*
X15594800Y-13841700D01*
X15594800Y-13741700D02*
X15494800Y-13841700D01*
X15580156Y-13827056D02*
X15580156Y-13756344D01*
X15509444Y-13756344D01*
X15509444Y-13827056D01*
X15580156Y-13827056D01*
X15509500Y-6460500D02*
X15609500Y-6560500D01*
X15609500Y-6460500D02*
X15509500Y-6560500D01*
X15594856Y-6545856D02*
X15594856Y-6475144D01*
X15524144Y-6475144D01*
X15524144Y-6545856D01*
X15594856Y-6545856D01*
X15759500Y-6460500D02*
X15859500Y-6560500D01*
X15859500Y-6460500D02*
X15759500Y-6560500D01*
X15844856Y-6545856D02*
X15844856Y-6475144D01*
X15774144Y-6475144D01*
X15774144Y-6545856D01*
X15844856Y-6545856D01*
X16398500Y-6460500D02*
X16498500Y-6560500D01*
X16498500Y-6460500D02*
X16398500Y-6560500D01*
X16483856Y-6545856D02*
X16483856Y-6475144D01*
X16413144Y-6475144D01*
X16413144Y-6545856D01*
X16483856Y-6545856D01*
X16648500Y-6460500D02*
X16748500Y-6560500D01*
X16748500Y-6460500D02*
X16648500Y-6560500D01*
X16733856Y-6545856D02*
X16733856Y-6475144D01*
X16663144Y-6475144D01*
X16663144Y-6545856D01*
X16733856Y-6545856D01*
X17287500Y-6460500D02*
X17387500Y-6560500D01*
X17387500Y-6460500D02*
X17287500Y-6560500D01*
X17372856Y-6545856D02*
X17372856Y-6475144D01*
X17302144Y-6475144D01*
X17302144Y-6545856D01*
X17372856Y-6545856D01*
X17537500Y-6460500D02*
X17637500Y-6560500D01*
X17637500Y-6460500D02*
X17537500Y-6560500D01*
X17622856Y-6545856D02*
X17622856Y-6475144D01*
X17552144Y-6475144D01*
X17552144Y-6545856D01*
X17622856Y-6545856D01*
X18176500Y-6460500D02*
X18276500Y-6560500D01*
X18276500Y-6460500D02*
X18176500Y-6560500D01*
X18261856Y-6545856D02*
X18261856Y-6475144D01*
X18191144Y-6475144D01*
X18191144Y-6545856D01*
X18261856Y-6545856D01*
X18426500Y-6460500D02*
X18526500Y-6560500D01*
X18526500Y-6460500D02*
X18426500Y-6560500D01*
X18511856Y-6545856D02*
X18511856Y-6475144D01*
X18441144Y-6475144D01*
X18441144Y-6545856D01*
X18511856Y-6545856D01*
X19065500Y-6460500D02*
X19165500Y-6560500D01*
X19165500Y-6460500D02*
X19065500Y-6560500D01*
X19150856Y-6545856D02*
X19150856Y-6475144D01*
X19080144Y-6475144D01*
X19080144Y-6545856D01*
X19150856Y-6545856D01*
X19315500Y-6460500D02*
X19415500Y-6560500D01*
X19415500Y-6460500D02*
X19315500Y-6560500D01*
X19400856Y-6545856D02*
X19400856Y-6475144D01*
X19330144Y-6475144D01*
X19330144Y-6545856D01*
X19400856Y-6545856D01*
X19558800Y-12725700D02*
X19658800Y-12825700D01*
X19658800Y-12725700D02*
X19558800Y-12825700D01*
X19644156Y-12811056D02*
X19644156Y-12740344D01*
X19573444Y-12740344D01*
X19573444Y-12811056D01*
X19644156Y-12811056D01*
X19558800Y-12979700D02*
X19658800Y-13079700D01*
X19658800Y-12979700D02*
X19558800Y-13079700D01*
X19644156Y-13065056D02*
X19644156Y-12994344D01*
X19573444Y-12994344D01*
X19573444Y-13065056D01*
X19644156Y-13065056D01*
X19558800Y-13462300D02*
X19658800Y-13562300D01*
X19658800Y-13462300D02*
X19558800Y-13562300D01*
X19644156Y-13547656D02*
X19644156Y-13476944D01*
X19573444Y-13476944D01*
X19573444Y-13547656D01*
X19644156Y-13547656D01*
X19558800Y-13716300D02*
X19658800Y-13816300D01*
X19658800Y-13716300D02*
X19558800Y-13816300D01*
X19644156Y-13801656D02*
X19644156Y-13730944D01*
X19573444Y-13730944D01*
X19573444Y-13801656D01*
X19644156Y-13801656D01*
X19954500Y-6460500D02*
X20054500Y-6560500D01*
X20054500Y-6460500D02*
X19954500Y-6560500D01*
X20039856Y-6545856D02*
X20039856Y-6475144D01*
X19969144Y-6475144D01*
X19969144Y-6545856D01*
X20039856Y-6545856D01*
X20204500Y-6460500D02*
X20304500Y-6560500D01*
X20304500Y-6460500D02*
X20204500Y-6560500D01*
X20289856Y-6545856D02*
X20289856Y-6475144D01*
X20219144Y-6475144D01*
X20219144Y-6545856D01*
X20289856Y-6545856D01*
X22429000Y-9754400D02*
X22529000Y-9854400D01*
X22529000Y-9754400D02*
X22429000Y-9854400D01*
X22514356Y-9839756D02*
X22514356Y-9769044D01*
X22443644Y-9769044D01*
X22443644Y-9839756D01*
X22514356Y-9839756D01*
X22429000Y-10008400D02*
X22529000Y-10108400D01*
X22529000Y-10008400D02*
X22429000Y-10108400D01*
X22514356Y-10093756D02*
X22514356Y-10023044D01*
X22443644Y-10023044D01*
X22443644Y-10093756D01*
X22514356Y-10093756D01*
X22429000Y-10262400D02*
X22529000Y-10362400D01*
X22529000Y-10262400D02*
X22429000Y-10362400D01*
X22514356Y-10347756D02*
X22514356Y-10277044D01*
X22443644Y-10277044D01*
X22443644Y-10347756D01*
X22514356Y-10347756D01*
X22429000Y-10516400D02*
X22529000Y-10616400D01*
X22529000Y-10516400D02*
X22429000Y-10616400D01*
X22514356Y-10601756D02*
X22514356Y-10531044D01*
X22443644Y-10531044D01*
X22443644Y-10601756D01*
X22514356Y-10601756D01*
D19*
X13100000Y-9450200D02*
X13204000Y-9554200D01*
X13204000Y-9450200D02*
X13100000Y-9554200D01*
X13152000Y-9554200D02*
X13204000Y-9502200D01*
X13152000Y-9450200D01*
X13100000Y-9502200D01*
X13152000Y-9554200D01*
X13100000Y-11990200D02*
X13204000Y-12094200D01*
X13204000Y-11990200D02*
X13100000Y-12094200D01*
X13152000Y-12094200D02*
X13204000Y-12042200D01*
X13152000Y-11990200D01*
X13100000Y-12042200D01*
X13152000Y-12094200D01*
X13354000Y-9450200D02*
X13458000Y-9554200D01*
X13458000Y-9450200D02*
X13354000Y-9554200D01*
X13406000Y-9554200D02*
X13458000Y-9502200D01*
X13406000Y-9450200D01*
X13354000Y-9502200D01*
X13406000Y-9554200D01*
X13354000Y-11990200D02*
X13458000Y-12094200D01*
X13458000Y-11990200D02*
X13354000Y-12094200D01*
X13406000Y-12094200D02*
X13458000Y-12042200D01*
X13406000Y-11990200D01*
X13354000Y-12042200D01*
X13406000Y-12094200D01*
X13608000Y-9450200D02*
X13712000Y-9554200D01*
X13712000Y-9450200D02*
X13608000Y-9554200D01*
X13660000Y-9554200D02*
X13712000Y-9502200D01*
X13660000Y-9450200D01*
X13608000Y-9502200D01*
X13660000Y-9554200D01*
X13608000Y-11990200D02*
X13712000Y-12094200D01*
X13712000Y-11990200D02*
X13608000Y-12094200D01*
X13660000Y-12094200D02*
X13712000Y-12042200D01*
X13660000Y-11990200D01*
X13608000Y-12042200D01*
X13660000Y-12094200D01*
X13862000Y-9450200D02*
X13966000Y-9554200D01*
X13966000Y-9450200D02*
X13862000Y-9554200D01*
X13914000Y-9554200D02*
X13966000Y-9502200D01*
X13914000Y-9450200D01*
X13862000Y-9502200D01*
X13914000Y-9554200D01*
X13862000Y-11990200D02*
X13966000Y-12094200D01*
X13966000Y-11990200D02*
X13862000Y-12094200D01*
X13914000Y-12094200D02*
X13966000Y-12042200D01*
X13914000Y-11990200D01*
X13862000Y-12042200D01*
X13914000Y-12094200D01*
X14116000Y-9450200D02*
X14220000Y-9554200D01*
X14220000Y-9450200D02*
X14116000Y-9554200D01*
X14168000Y-9554200D02*
X14220000Y-9502200D01*
X14168000Y-9450200D01*
X14116000Y-9502200D01*
X14168000Y-9554200D01*
X14116000Y-11990200D02*
X14220000Y-12094200D01*
X14220000Y-11990200D02*
X14116000Y-12094200D01*
X14168000Y-12094200D02*
X14220000Y-12042200D01*
X14168000Y-11990200D01*
X14116000Y-12042200D01*
X14168000Y-12094200D01*
X14370000Y-9450200D02*
X14474000Y-9554200D01*
X14474000Y-9450200D02*
X14370000Y-9554200D01*
X14422000Y-9554200D02*
X14474000Y-9502200D01*
X14422000Y-9450200D01*
X14370000Y-9502200D01*
X14422000Y-9554200D01*
X14370000Y-11990200D02*
X14474000Y-12094200D01*
X14474000Y-11990200D02*
X14370000Y-12094200D01*
X14422000Y-12094200D02*
X14474000Y-12042200D01*
X14422000Y-11990200D01*
X14370000Y-12042200D01*
X14422000Y-12094200D01*
X14624000Y-9450200D02*
X14728000Y-9554200D01*
X14728000Y-9450200D02*
X14624000Y-9554200D01*
X14676000Y-9554200D02*
X14728000Y-9502200D01*
X14676000Y-9450200D01*
X14624000Y-9502200D01*
X14676000Y-9554200D01*
X14624000Y-11990200D02*
X14728000Y-12094200D01*
X14728000Y-11990200D02*
X14624000Y-12094200D01*
X14676000Y-12094200D02*
X14728000Y-12042200D01*
X14676000Y-11990200D01*
X14624000Y-12042200D01*
X14676000Y-12094200D01*
X14878000Y-9450200D02*
X14982000Y-9554200D01*
X14982000Y-9450200D02*
X14878000Y-9554200D01*
X14930000Y-9554200D02*
X14982000Y-9502200D01*
X14930000Y-9450200D01*
X14878000Y-9502200D01*
X14930000Y-9554200D01*
X14878000Y-11990200D02*
X14982000Y-12094200D01*
X14982000Y-11990200D02*
X14878000Y-12094200D01*
X14930000Y-12094200D02*
X14982000Y-12042200D01*
X14930000Y-11990200D01*
X14878000Y-12042200D01*
X14930000Y-12094200D01*
X15132000Y-9450200D02*
X15236000Y-9554200D01*
X15236000Y-9450200D02*
X15132000Y-9554200D01*
X15184000Y-9554200D02*
X15236000Y-9502200D01*
X15184000Y-9450200D01*
X15132000Y-9502200D01*
X15184000Y-9554200D01*
X15132000Y-11990200D02*
X15236000Y-12094200D01*
X15236000Y-11990200D02*
X15132000Y-12094200D01*
X15184000Y-12094200D02*
X15236000Y-12042200D01*
X15184000Y-11990200D01*
X15132000Y-12042200D01*
X15184000Y-12094200D01*
X15386000Y-9450200D02*
X15490000Y-9554200D01*
X15490000Y-9450200D02*
X15386000Y-9554200D01*
X15438000Y-9554200D02*
X15490000Y-9502200D01*
X15438000Y-9450200D01*
X15386000Y-9502200D01*
X15438000Y-9554200D01*
X15386000Y-11990200D02*
X15490000Y-12094200D01*
X15490000Y-11990200D02*
X15386000Y-12094200D01*
X15438000Y-12094200D02*
X15490000Y-12042200D01*
X15438000Y-11990200D01*
X15386000Y-12042200D01*
X15438000Y-12094200D01*
X15640000Y-9450200D02*
X15744000Y-9554200D01*
X15744000Y-9450200D02*
X15640000Y-9554200D01*
X15692000Y-9554200D02*
X15744000Y-9502200D01*
X15692000Y-9450200D01*
X15640000Y-9502200D01*
X15692000Y-9554200D01*
X15640000Y-11990200D02*
X15744000Y-12094200D01*
X15744000Y-11990200D02*
X15640000Y-12094200D01*
X15692000Y-12094200D02*
X15744000Y-12042200D01*
X15692000Y-11990200D01*
X15640000Y-12042200D01*
X15692000Y-12094200D01*
X15894000Y-9450200D02*
X15998000Y-9554200D01*
X15998000Y-9450200D02*
X15894000Y-9554200D01*
X15946000Y-9554200D02*
X15998000Y-9502200D01*
X15946000Y-9450200D01*
X15894000Y-9502200D01*
X15946000Y-9554200D01*
X15894000Y-11990200D02*
X15998000Y-12094200D01*
X15998000Y-11990200D02*
X15894000Y-12094200D01*
X15946000Y-12094200D02*
X15998000Y-12042200D01*
X15946000Y-11990200D01*
X15894000Y-12042200D01*
X15946000Y-12094200D01*
X16148000Y-9450200D02*
X16252000Y-9554200D01*
X16252000Y-9450200D02*
X16148000Y-9554200D01*
X16200000Y-9554200D02*
X16252000Y-9502200D01*
X16200000Y-9450200D01*
X16148000Y-9502200D01*
X16200000Y-9554200D01*
X16148000Y-11990200D02*
X16252000Y-12094200D01*
X16252000Y-11990200D02*
X16148000Y-12094200D01*
X16200000Y-12094200D02*
X16252000Y-12042200D01*
X16200000Y-11990200D01*
X16148000Y-12042200D01*
X16200000Y-12094200D01*
X16402000Y-9450200D02*
X16506000Y-9554200D01*
X16506000Y-9450200D02*
X16402000Y-9554200D01*
X16454000Y-9554200D02*
X16506000Y-9502200D01*
X16454000Y-9450200D01*
X16402000Y-9502200D01*
X16454000Y-9554200D01*
X16402000Y-11990200D02*
X16506000Y-12094200D01*
X16506000Y-11990200D02*
X16402000Y-12094200D01*
X16454000Y-12094200D02*
X16506000Y-12042200D01*
X16454000Y-11990200D01*
X16402000Y-12042200D01*
X16454000Y-12094200D01*
X16656000Y-9450200D02*
X16760000Y-9554200D01*
X16760000Y-9450200D02*
X16656000Y-9554200D01*
X16708000Y-9554200D02*
X16760000Y-9502200D01*
X16708000Y-9450200D01*
X16656000Y-9502200D01*
X16708000Y-9554200D01*
X16656000Y-11990200D02*
X16760000Y-12094200D01*
X16760000Y-11990200D02*
X16656000Y-12094200D01*
X16708000Y-12094200D02*
X16760000Y-12042200D01*
X16708000Y-11990200D01*
X16656000Y-12042200D01*
X16708000Y-12094200D01*
X16910000Y-9450200D02*
X17014000Y-9554200D01*
X17014000Y-9450200D02*
X16910000Y-9554200D01*
X16962000Y-9554200D02*
X17014000Y-9502200D01*
X16962000Y-9450200D01*
X16910000Y-9502200D01*
X16962000Y-9554200D01*
X16910000Y-11990200D02*
X17014000Y-12094200D01*
X17014000Y-11990200D02*
X16910000Y-12094200D01*
X16962000Y-12094200D02*
X17014000Y-12042200D01*
X16962000Y-11990200D01*
X16910000Y-12042200D01*
X16962000Y-12094200D01*
X17164000Y-9450200D02*
X17268000Y-9554200D01*
X17268000Y-9450200D02*
X17164000Y-9554200D01*
X17216000Y-9554200D02*
X17268000Y-9502200D01*
X17216000Y-9450200D01*
X17164000Y-9502200D01*
X17216000Y-9554200D01*
X17164000Y-11990200D02*
X17268000Y-12094200D01*
X17268000Y-11990200D02*
X17164000Y-12094200D01*
X17216000Y-12094200D02*
X17268000Y-12042200D01*
X17216000Y-11990200D01*
X17164000Y-12042200D01*
X17216000Y-12094200D01*
X17418000Y-9450200D02*
X17522000Y-9554200D01*
X17522000Y-9450200D02*
X17418000Y-9554200D01*
X17470000Y-9554200D02*
X17522000Y-9502200D01*
X17470000Y-9450200D01*
X17418000Y-9502200D01*
X17470000Y-9554200D01*
X17418000Y-11990200D02*
X17522000Y-12094200D01*
X17522000Y-11990200D02*
X17418000Y-12094200D01*
X17470000Y-12094200D02*
X17522000Y-12042200D01*
X17470000Y-11990200D01*
X17418000Y-12042200D01*
X17470000Y-12094200D01*
X17672000Y-9450200D02*
X17776000Y-9554200D01*
X17776000Y-9450200D02*
X17672000Y-9554200D01*
X17724000Y-9554200D02*
X17776000Y-9502200D01*
X17724000Y-9450200D01*
X17672000Y-9502200D01*
X17724000Y-9554200D01*
X17672000Y-11990200D02*
X17776000Y-12094200D01*
X17776000Y-11990200D02*
X17672000Y-12094200D01*
X17724000Y-12094200D02*
X17776000Y-12042200D01*
X17724000Y-11990200D01*
X17672000Y-12042200D01*
X17724000Y-12094200D01*
D20*
X13042900Y-12487600D02*
X13042900Y-12607600D01*
X12982900Y-12547600D02*
X13102900Y-12547600D01*
X13102900Y-12547600D02*
G75*
G03*
X13102900Y-12547600I-60000J0D01*
G01*
X13042900Y-12741600D02*
X13042900Y-12861600D01*
X12982900Y-12801600D02*
X13102900Y-12801600D01*
X13102900Y-12801600D02*
G75*
G03*
X13102900Y-12801600I-60000J0D01*
G01*
X13042900Y-13554400D02*
X13042900Y-13674400D01*
X12982900Y-13614400D02*
X13102900Y-13614400D01*
X13102900Y-13614400D02*
G75*
G03*
X13102900Y-13614400I-60000J0D01*
G01*
X13042900Y-13808400D02*
X13042900Y-13928400D01*
X12982900Y-13868400D02*
X13102900Y-13868400D01*
X13102900Y-13868400D02*
G75*
G03*
X13102900Y-13868400I-60000J0D01*
G01*
X13157200Y-14619250D02*
X13157200Y-14739250D01*
X13097200Y-14679250D02*
X13217200Y-14679250D01*
X13217200Y-14679250D02*
G75*
G03*
X13217200Y-14679250I-60000J0D01*
G01*
X13665200Y-14619250D02*
X13665200Y-14739250D01*
X13605200Y-14679250D02*
X13725200Y-14679250D01*
X13725200Y-14679250D02*
G75*
G03*
X13725200Y-14679250I-60000J0D01*
G01*
X14897100Y-12487600D02*
X14897100Y-12607600D01*
X14837100Y-12547600D02*
X14957100Y-12547600D01*
X14957100Y-12547600D02*
G75*
G03*
X14957100Y-12547600I-60000J0D01*
G01*
X14897100Y-12741600D02*
X14897100Y-12861600D01*
X14837100Y-12801600D02*
X14957100Y-12801600D01*
X14957100Y-12801600D02*
G75*
G03*
X14957100Y-12801600I-60000J0D01*
G01*
X14897100Y-13554400D02*
X14897100Y-13674400D01*
X14837100Y-13614400D02*
X14957100Y-13614400D01*
X14957100Y-13614400D02*
G75*
G03*
X14957100Y-13614400I-60000J0D01*
G01*
X14897100Y-13808400D02*
X14897100Y-13928400D01*
X14837100Y-13868400D02*
X14957100Y-13868400D01*
X14957100Y-13868400D02*
G75*
G03*
X14957100Y-13868400I-60000J0D01*
G01*
X16256000Y-14570400D02*
X16256000Y-14690400D01*
X16196000Y-14630400D02*
X16316000Y-14630400D01*
X16316000Y-14630400D02*
G75*
G03*
X16316000Y-14630400I-60000J0D01*
G01*
X16764000Y-14570400D02*
X16764000Y-14690400D01*
X16704000Y-14630400D02*
X16824000Y-14630400D01*
X16824000Y-14630400D02*
G75*
G03*
X16824000Y-14630400I-60000J0D01*
G01*
X17272000Y-14570400D02*
X17272000Y-14690400D01*
X17212000Y-14630400D02*
X17332000Y-14630400D01*
X17332000Y-14630400D02*
G75*
G03*
X17332000Y-14630400I-60000J0D01*
G01*
X17882250Y-14570400D02*
X17882250Y-14690400D01*
X17822250Y-14630400D02*
X17942250Y-14630400D01*
X17942250Y-14630400D02*
G75*
G03*
X17942250Y-14630400I-60000J0D01*
G01*
X18390250Y-14570400D02*
X18390250Y-14690400D01*
X18330250Y-14630400D02*
X18450250Y-14630400D01*
X18450250Y-14630400D02*
G75*
G03*
X18450250Y-14630400I-60000J0D01*
G01*
X18898250Y-14570400D02*
X18898250Y-14690400D01*
X18838250Y-14630400D02*
X18958250Y-14630400D01*
X18958250Y-14630400D02*
G75*
G03*
X18958250Y-14630400I-60000J0D01*
G01*
D21*
X16364298Y-13024898D02*
X16364298Y-12925902D01*
X16265302Y-12925902D01*
X16265302Y-13024898D01*
X16364298Y-13024898D01*
X16384800Y-12975400D02*
G75*
G03*
X16384800Y-12975400I-70000J0D01*
G01*
X16364298Y-14044898D02*
X16364298Y-13945902D01*
X16265302Y-13945902D01*
X16265302Y-14044898D01*
X16364298Y-14044898D01*
X16384800Y-13995400D02*
G75*
G03*
X16384800Y-13995400I-70000J0D01*
G01*
X16864298Y-12774898D02*
X16864298Y-12675902D01*
X16765302Y-12675902D01*
X16765302Y-12774898D01*
X16864298Y-12774898D01*
X16884800Y-12725400D02*
G75*
G03*
X16884800Y-12725400I-70000J0D01*
G01*
X17364298Y-13024898D02*
X17364298Y-12925902D01*
X17265302Y-12925902D01*
X17265302Y-13024898D01*
X17364298Y-13024898D01*
X17384800Y-12975400D02*
G75*
G03*
X17384800Y-12975400I-70000J0D01*
G01*
X17364298Y-14044898D02*
X17364298Y-13945902D01*
X17265302Y-13945902D01*
X17265302Y-14044898D01*
X17364298Y-14044898D01*
X17384800Y-13995400D02*
G75*
G03*
X17384800Y-13995400I-70000J0D01*
G01*
X17888298Y-13024898D02*
X17888298Y-12925902D01*
X17789302Y-12925902D01*
X17789302Y-13024898D01*
X17888298Y-13024898D01*
X17908800Y-12975400D02*
G75*
G03*
X17908800Y-12975400I-70000J0D01*
G01*
X17888298Y-14044898D02*
X17888298Y-13945902D01*
X17789302Y-13945902D01*
X17789302Y-14044898D01*
X17888298Y-14044898D01*
X17908800Y-13995400D02*
G75*
G03*
X17908800Y-13995400I-70000J0D01*
G01*
X18388298Y-12774898D02*
X18388298Y-12675902D01*
X18289302Y-12675902D01*
X18289302Y-12774898D01*
X18388298Y-12774898D01*
X18408800Y-12725400D02*
G75*
G03*
X18408800Y-12725400I-70000J0D01*
G01*
X18888298Y-13024898D02*
X18888298Y-12925902D01*
X18789302Y-12925902D01*
X18789302Y-13024898D01*
X18888298Y-13024898D01*
X18908800Y-12975400D02*
G75*
G03*
X18908800Y-12975400I-70000J0D01*
G01*
X18888298Y-14044898D02*
X18888298Y-13945902D01*
X18789302Y-13945902D01*
X18789302Y-14044898D01*
X18888298Y-14044898D01*
X18908800Y-13995400D02*
G75*
G03*
X18908800Y-13995400I-70000J0D01*
G01*
D11*
X12952619Y-15555476D02*
X12952619Y-15355476D01*
X13000238Y-15355476D01*
X13028809Y-15365000D01*
X13047857Y-15384048D01*
X13057381Y-15403095D01*
X13066905Y-15441190D01*
X13066905Y-15469762D01*
X13057381Y-15507857D01*
X13047857Y-15526905D01*
X13028809Y-15545952D01*
X13000238Y-15555476D01*
X12952619Y-15555476D01*
X13152619Y-15555476D02*
X13152619Y-15422143D01*
X13152619Y-15460238D02*
X13162143Y-15441190D01*
X13171667Y-15431667D01*
X13190714Y-15422143D01*
X13209762Y-15422143D01*
X13276428Y-15555476D02*
X13276428Y-15422143D01*
X13276428Y-15355476D02*
X13266905Y-15365000D01*
X13276428Y-15374524D01*
X13285952Y-15365000D01*
X13276428Y-15355476D01*
X13276428Y-15374524D01*
X13400238Y-15555476D02*
X13381190Y-15545952D01*
X13371667Y-15526905D01*
X13371667Y-15355476D01*
X13505000Y-15555476D02*
X13485952Y-15545952D01*
X13476428Y-15526905D01*
X13476428Y-15355476D01*
X13733571Y-15555476D02*
X13733571Y-15355476D01*
X13800238Y-15498333D01*
X13866905Y-15355476D01*
X13866905Y-15555476D01*
X14047857Y-15555476D02*
X14047857Y-15450714D01*
X14038333Y-15431667D01*
X14019286Y-15422143D01*
X13981190Y-15422143D01*
X13962143Y-15431667D01*
X14047857Y-15545952D02*
X14028809Y-15555476D01*
X13981190Y-15555476D01*
X13962143Y-15545952D01*
X13952619Y-15526905D01*
X13952619Y-15507857D01*
X13962143Y-15488809D01*
X13981190Y-15479286D01*
X14028809Y-15479286D01*
X14047857Y-15469762D01*
X14143095Y-15422143D02*
X14143095Y-15622143D01*
X14143095Y-15431667D02*
X14162143Y-15422143D01*
X14200238Y-15422143D01*
X14219286Y-15431667D01*
X14228809Y-15441190D01*
X14238333Y-15460238D01*
X14238333Y-15517381D01*
X14228809Y-15536428D01*
X14219286Y-15545952D01*
X14200238Y-15555476D01*
X14162143Y-15555476D01*
X14143095Y-15545952D01*
X14324048Y-15536428D02*
X14333571Y-15545952D01*
X14324048Y-15555476D01*
X14314524Y-15545952D01*
X14324048Y-15536428D01*
X14324048Y-15555476D01*
X14324048Y-15431667D02*
X14333571Y-15441190D01*
X14324048Y-15450714D01*
X14314524Y-15441190D01*
X14324048Y-15431667D01*
X14324048Y-15450714D01*
D12*
X12655000Y-15865000D02*
X12695000Y-15905000D01*
X12695000Y-15865000D02*
X12655000Y-15905000D01*
D11*
X12990714Y-15775476D02*
X13009762Y-15775476D01*
X13028809Y-15785000D01*
X13038333Y-15794524D01*
X13047857Y-15813571D01*
X13057381Y-15851667D01*
X13057381Y-15899286D01*
X13047857Y-15937381D01*
X13038333Y-15956428D01*
X13028809Y-15965952D01*
X13009762Y-15975476D01*
X12990714Y-15975476D01*
X12971667Y-15965952D01*
X12962143Y-15956428D01*
X12952619Y-15937381D01*
X12943095Y-15899286D01*
X12943095Y-15851667D01*
X12952619Y-15813571D01*
X12962143Y-15794524D01*
X12971667Y-15785000D01*
X12990714Y-15775476D01*
X13143095Y-15956428D02*
X13152619Y-15965952D01*
X13143095Y-15975476D01*
X13133571Y-15965952D01*
X13143095Y-15956428D01*
X13143095Y-15975476D01*
X13324048Y-15842143D02*
X13324048Y-15975476D01*
X13276428Y-15765952D02*
X13228809Y-15908809D01*
X13352619Y-15908809D01*
X13466905Y-15775476D02*
X13485952Y-15775476D01*
X13505000Y-15785000D01*
X13514524Y-15794524D01*
X13524048Y-15813571D01*
X13533571Y-15851667D01*
X13533571Y-15899286D01*
X13524048Y-15937381D01*
X13514524Y-15956428D01*
X13505000Y-15965952D01*
X13485952Y-15975476D01*
X13466905Y-15975476D01*
X13447857Y-15965952D01*
X13438333Y-15956428D01*
X13428809Y-15937381D01*
X13419286Y-15899286D01*
X13419286Y-15851667D01*
X13428809Y-15813571D01*
X13438333Y-15794524D01*
X13447857Y-15785000D01*
X13466905Y-15775476D01*
X13657381Y-15775476D02*
X13676428Y-15775476D01*
X13695476Y-15785000D01*
X13705000Y-15794524D01*
X13714524Y-15813571D01*
X13724048Y-15851667D01*
X13724048Y-15899286D01*
X13714524Y-15937381D01*
X13705000Y-15956428D01*
X13695476Y-15965952D01*
X13676428Y-15975476D01*
X13657381Y-15975476D01*
X13638333Y-15965952D01*
X13628809Y-15956428D01*
X13619286Y-15937381D01*
X13609762Y-15899286D01*
X13609762Y-15851667D01*
X13619286Y-15813571D01*
X13628809Y-15794524D01*
X13638333Y-15785000D01*
X13657381Y-15775476D01*
X13809762Y-15975476D02*
X13809762Y-15842143D01*
X13809762Y-15861190D02*
X13819286Y-15851667D01*
X13838333Y-15842143D01*
X13866905Y-15842143D01*
X13885952Y-15851667D01*
X13895476Y-15870714D01*
X13895476Y-15975476D01*
X13895476Y-15870714D02*
X13905000Y-15851667D01*
X13924048Y-15842143D01*
X13952619Y-15842143D01*
X13971667Y-15851667D01*
X13981190Y-15870714D01*
X13981190Y-15975476D01*
X14076428Y-15975476D02*
X14076428Y-15842143D01*
X14076428Y-15861190D02*
X14085952Y-15851667D01*
X14105000Y-15842143D01*
X14133571Y-15842143D01*
X14152619Y-15851667D01*
X14162143Y-15870714D01*
X14162143Y-15975476D01*
X14162143Y-15870714D02*
X14171667Y-15851667D01*
X14190714Y-15842143D01*
X14219286Y-15842143D01*
X14238333Y-15851667D01*
X14247857Y-15870714D01*
X14247857Y-15975476D01*
X14638333Y-15765952D02*
X14466905Y-16023095D01*
X14895476Y-15775476D02*
X14914524Y-15775476D01*
X14933571Y-15785000D01*
X14943095Y-15794524D01*
X14952619Y-15813571D01*
X14962143Y-15851667D01*
X14962143Y-15899286D01*
X14952619Y-15937381D01*
X14943095Y-15956428D01*
X14933571Y-15965952D01*
X14914524Y-15975476D01*
X14895476Y-15975476D01*
X14876428Y-15965952D01*
X14866905Y-15956428D01*
X14857381Y-15937381D01*
X14847857Y-15899286D01*
X14847857Y-15851667D01*
X14857381Y-15813571D01*
X14866905Y-15794524D01*
X14876428Y-15785000D01*
X14895476Y-15775476D01*
X15047857Y-15956428D02*
X15057381Y-15965952D01*
X15047857Y-15975476D01*
X15038333Y-15965952D01*
X15047857Y-15956428D01*
X15047857Y-15975476D01*
X15181190Y-15775476D02*
X15200238Y-15775476D01*
X15219286Y-15785000D01*
X15228809Y-15794524D01*
X15238333Y-15813571D01*
X15247857Y-15851667D01*
X15247857Y-15899286D01*
X15238333Y-15937381D01*
X15228809Y-15956428D01*
X15219286Y-15965952D01*
X15200238Y-15975476D01*
X15181190Y-15975476D01*
X15162143Y-15965952D01*
X15152619Y-15956428D01*
X15143095Y-15937381D01*
X15133571Y-15899286D01*
X15133571Y-15851667D01*
X15143095Y-15813571D01*
X15152619Y-15794524D01*
X15162143Y-15785000D01*
X15181190Y-15775476D01*
X15438333Y-15975476D02*
X15324048Y-15975476D01*
X15381190Y-15975476D02*
X15381190Y-15775476D01*
X15362143Y-15804048D01*
X15343095Y-15823095D01*
X15324048Y-15832619D01*
X15619286Y-15775476D02*
X15524048Y-15775476D01*
X15514524Y-15870714D01*
X15524048Y-15861190D01*
X15543095Y-15851667D01*
X15590714Y-15851667D01*
X15609762Y-15861190D01*
X15619286Y-15870714D01*
X15628809Y-15889762D01*
X15628809Y-15937381D01*
X15619286Y-15956428D01*
X15609762Y-15965952D01*
X15590714Y-15975476D01*
X15543095Y-15975476D01*
X15524048Y-15965952D01*
X15514524Y-15956428D01*
X15695476Y-15775476D02*
X15828809Y-15775476D01*
X15743095Y-15975476D01*
X15895476Y-15775476D02*
X15895476Y-15813571D01*
X15971667Y-15775476D02*
X15971667Y-15813571D01*
X16266905Y-16051667D02*
X16257381Y-16042143D01*
X16238333Y-16013571D01*
X16228809Y-15994524D01*
X16219286Y-15965952D01*
X16209762Y-15918333D01*
X16209762Y-15880238D01*
X16219286Y-15832619D01*
X16228809Y-15804048D01*
X16238333Y-15785000D01*
X16257381Y-15756428D01*
X16266905Y-15746905D01*
X16324048Y-15775476D02*
X16447857Y-15775476D01*
X16381190Y-15851667D01*
X16409762Y-15851667D01*
X16428809Y-15861190D01*
X16438333Y-15870714D01*
X16447857Y-15889762D01*
X16447857Y-15937381D01*
X16438333Y-15956428D01*
X16428809Y-15965952D01*
X16409762Y-15975476D01*
X16352619Y-15975476D01*
X16333571Y-15965952D01*
X16324048Y-15956428D01*
X16619286Y-15842143D02*
X16619286Y-15975476D01*
X16571667Y-15765952D02*
X16524048Y-15908809D01*
X16647857Y-15908809D01*
X16876429Y-15975476D02*
X16876429Y-15775476D01*
X16962143Y-15975476D02*
X16962143Y-15870714D01*
X16952619Y-15851667D01*
X16933571Y-15842143D01*
X16905000Y-15842143D01*
X16885952Y-15851667D01*
X16876429Y-15861190D01*
X17085952Y-15975476D02*
X17066905Y-15965952D01*
X17057381Y-15956428D01*
X17047857Y-15937381D01*
X17047857Y-15880238D01*
X17057381Y-15861190D01*
X17066905Y-15851667D01*
X17085952Y-15842143D01*
X17114524Y-15842143D01*
X17133571Y-15851667D01*
X17143095Y-15861190D01*
X17152619Y-15880238D01*
X17152619Y-15937381D01*
X17143095Y-15956428D01*
X17133571Y-15965952D01*
X17114524Y-15975476D01*
X17085952Y-15975476D01*
X17266905Y-15975476D02*
X17247857Y-15965952D01*
X17238333Y-15946905D01*
X17238333Y-15775476D01*
X17419286Y-15965952D02*
X17400238Y-15975476D01*
X17362143Y-15975476D01*
X17343095Y-15965952D01*
X17333571Y-15946905D01*
X17333571Y-15870714D01*
X17343095Y-15851667D01*
X17362143Y-15842143D01*
X17400238Y-15842143D01*
X17419286Y-15851667D01*
X17428810Y-15870714D01*
X17428810Y-15889762D01*
X17333571Y-15908809D01*
X17505000Y-15965952D02*
X17524048Y-15975476D01*
X17562143Y-15975476D01*
X17581190Y-15965952D01*
X17590714Y-15946905D01*
X17590714Y-15937381D01*
X17581190Y-15918333D01*
X17562143Y-15908809D01*
X17533571Y-15908809D01*
X17514524Y-15899286D01*
X17505000Y-15880238D01*
X17505000Y-15870714D01*
X17514524Y-15851667D01*
X17533571Y-15842143D01*
X17562143Y-15842143D01*
X17581190Y-15851667D01*
X17657381Y-16051667D02*
X17666905Y-16042143D01*
X17685952Y-16013571D01*
X17695476Y-15994524D01*
X17705000Y-15965952D01*
X17714524Y-15918333D01*
X17714524Y-15880238D01*
X17705000Y-15832619D01*
X17695476Y-15804048D01*
X17685952Y-15785000D01*
X17666905Y-15756428D01*
X17657381Y-15746905D01*
D13*
X12695000Y-16149000D02*
G75*
G03*
X12695000Y-16149000I-30000J0D01*
G01*
D11*
X12990714Y-16039476D02*
X13009762Y-16039476D01*
X13028809Y-16049000D01*
X13038333Y-16058524D01*
X13047857Y-16077571D01*
X13057381Y-16115667D01*
X13057381Y-16163286D01*
X13047857Y-16201381D01*
X13038333Y-16220428D01*
X13028809Y-16229952D01*
X13009762Y-16239476D01*
X12990714Y-16239476D01*
X12971667Y-16229952D01*
X12962143Y-16220428D01*
X12952619Y-16201381D01*
X12943095Y-16163286D01*
X12943095Y-16115667D01*
X12952619Y-16077571D01*
X12962143Y-16058524D01*
X12971667Y-16049000D01*
X12990714Y-16039476D01*
X13143095Y-16220428D02*
X13152619Y-16229952D01*
X13143095Y-16239476D01*
X13133571Y-16229952D01*
X13143095Y-16220428D01*
X13143095Y-16239476D01*
X13324048Y-16039476D02*
X13285952Y-16039476D01*
X13266905Y-16049000D01*
X13257381Y-16058524D01*
X13238333Y-16087095D01*
X13228809Y-16125190D01*
X13228809Y-16201381D01*
X13238333Y-16220428D01*
X13247857Y-16229952D01*
X13266905Y-16239476D01*
X13305000Y-16239476D01*
X13324048Y-16229952D01*
X13333571Y-16220428D01*
X13343095Y-16201381D01*
X13343095Y-16153762D01*
X13333571Y-16134714D01*
X13324048Y-16125190D01*
X13305000Y-16115667D01*
X13266905Y-16115667D01*
X13247857Y-16125190D01*
X13238333Y-16134714D01*
X13228809Y-16153762D01*
X13466905Y-16039476D02*
X13485952Y-16039476D01*
X13505000Y-16049000D01*
X13514524Y-16058524D01*
X13524048Y-16077571D01*
X13533571Y-16115667D01*
X13533571Y-16163286D01*
X13524048Y-16201381D01*
X13514524Y-16220428D01*
X13505000Y-16229952D01*
X13485952Y-16239476D01*
X13466905Y-16239476D01*
X13447857Y-16229952D01*
X13438333Y-16220428D01*
X13428809Y-16201381D01*
X13419286Y-16163286D01*
X13419286Y-16115667D01*
X13428809Y-16077571D01*
X13438333Y-16058524D01*
X13447857Y-16049000D01*
X13466905Y-16039476D01*
X13657381Y-16039476D02*
X13676428Y-16039476D01*
X13695476Y-16049000D01*
X13705000Y-16058524D01*
X13714524Y-16077571D01*
X13724048Y-16115667D01*
X13724048Y-16163286D01*
X13714524Y-16201381D01*
X13705000Y-16220428D01*
X13695476Y-16229952D01*
X13676428Y-16239476D01*
X13657381Y-16239476D01*
X13638333Y-16229952D01*
X13628809Y-16220428D01*
X13619286Y-16201381D01*
X13609762Y-16163286D01*
X13609762Y-16115667D01*
X13619286Y-16077571D01*
X13628809Y-16058524D01*
X13638333Y-16049000D01*
X13657381Y-16039476D01*
X13809762Y-16239476D02*
X13809762Y-16106143D01*
X13809762Y-16125190D02*
X13819286Y-16115667D01*
X13838333Y-16106143D01*
X13866905Y-16106143D01*
X13885952Y-16115667D01*
X13895476Y-16134714D01*
X13895476Y-16239476D01*
X13895476Y-16134714D02*
X13905000Y-16115667D01*
X13924048Y-16106143D01*
X13952619Y-16106143D01*
X13971667Y-16115667D01*
X13981190Y-16134714D01*
X13981190Y-16239476D01*
X14076428Y-16239476D02*
X14076428Y-16106143D01*
X14076428Y-16125190D02*
X14085952Y-16115667D01*
X14105000Y-16106143D01*
X14133571Y-16106143D01*
X14152619Y-16115667D01*
X14162143Y-16134714D01*
X14162143Y-16239476D01*
X14162143Y-16134714D02*
X14171667Y-16115667D01*
X14190714Y-16106143D01*
X14219286Y-16106143D01*
X14238333Y-16115667D01*
X14247857Y-16134714D01*
X14247857Y-16239476D01*
X14638333Y-16029952D02*
X14466905Y-16287095D01*
X14895476Y-16039476D02*
X14914524Y-16039476D01*
X14933571Y-16049000D01*
X14943095Y-16058524D01*
X14952619Y-16077571D01*
X14962143Y-16115667D01*
X14962143Y-16163286D01*
X14952619Y-16201381D01*
X14943095Y-16220428D01*
X14933571Y-16229952D01*
X14914524Y-16239476D01*
X14895476Y-16239476D01*
X14876428Y-16229952D01*
X14866905Y-16220428D01*
X14857381Y-16201381D01*
X14847857Y-16163286D01*
X14847857Y-16115667D01*
X14857381Y-16077571D01*
X14866905Y-16058524D01*
X14876428Y-16049000D01*
X14895476Y-16039476D01*
X15047857Y-16220428D02*
X15057381Y-16229952D01*
X15047857Y-16239476D01*
X15038333Y-16229952D01*
X15047857Y-16220428D01*
X15047857Y-16239476D01*
X15181190Y-16039476D02*
X15200238Y-16039476D01*
X15219286Y-16049000D01*
X15228809Y-16058524D01*
X15238333Y-16077571D01*
X15247857Y-16115667D01*
X15247857Y-16163286D01*
X15238333Y-16201381D01*
X15228809Y-16220428D01*
X15219286Y-16229952D01*
X15200238Y-16239476D01*
X15181190Y-16239476D01*
X15162143Y-16229952D01*
X15152619Y-16220428D01*
X15143095Y-16201381D01*
X15133571Y-16163286D01*
X15133571Y-16115667D01*
X15143095Y-16077571D01*
X15152619Y-16058524D01*
X15162143Y-16049000D01*
X15181190Y-16039476D01*
X15324048Y-16058524D02*
X15333571Y-16049000D01*
X15352619Y-16039476D01*
X15400238Y-16039476D01*
X15419286Y-16049000D01*
X15428809Y-16058524D01*
X15438333Y-16077571D01*
X15438333Y-16096619D01*
X15428809Y-16125190D01*
X15314524Y-16239476D01*
X15438333Y-16239476D01*
X15505000Y-16039476D02*
X15628809Y-16039476D01*
X15562143Y-16115667D01*
X15590714Y-16115667D01*
X15609762Y-16125190D01*
X15619286Y-16134714D01*
X15628809Y-16153762D01*
X15628809Y-16201381D01*
X15619286Y-16220428D01*
X15609762Y-16229952D01*
X15590714Y-16239476D01*
X15533571Y-16239476D01*
X15514524Y-16229952D01*
X15505000Y-16220428D01*
X15800238Y-16039476D02*
X15762143Y-16039476D01*
X15743095Y-16049000D01*
X15733571Y-16058524D01*
X15714524Y-16087095D01*
X15705000Y-16125190D01*
X15705000Y-16201381D01*
X15714524Y-16220428D01*
X15724048Y-16229952D01*
X15743095Y-16239476D01*
X15781190Y-16239476D01*
X15800238Y-16229952D01*
X15809762Y-16220428D01*
X15819286Y-16201381D01*
X15819286Y-16153762D01*
X15809762Y-16134714D01*
X15800238Y-16125190D01*
X15781190Y-16115667D01*
X15743095Y-16115667D01*
X15724048Y-16125190D01*
X15714524Y-16134714D01*
X15705000Y-16153762D01*
X15895476Y-16039476D02*
X15895476Y-16077571D01*
X15971667Y-16039476D02*
X15971667Y-16077571D01*
X16266905Y-16315667D02*
X16257381Y-16306143D01*
X16238333Y-16277571D01*
X16228809Y-16258524D01*
X16219286Y-16229952D01*
X16209762Y-16182333D01*
X16209762Y-16144238D01*
X16219286Y-16096619D01*
X16228809Y-16068048D01*
X16238333Y-16049000D01*
X16257381Y-16020428D01*
X16266905Y-16010905D01*
X16352619Y-16239476D02*
X16390714Y-16239476D01*
X16409762Y-16229952D01*
X16419286Y-16220428D01*
X16438333Y-16191857D01*
X16447857Y-16153762D01*
X16447857Y-16077571D01*
X16438333Y-16058524D01*
X16428809Y-16049000D01*
X16409762Y-16039476D01*
X16371667Y-16039476D01*
X16352619Y-16049000D01*
X16343095Y-16058524D01*
X16333571Y-16077571D01*
X16333571Y-16125190D01*
X16343095Y-16144238D01*
X16352619Y-16153762D01*
X16371667Y-16163286D01*
X16409762Y-16163286D01*
X16428809Y-16153762D01*
X16438333Y-16144238D01*
X16447857Y-16125190D01*
X16685952Y-16239476D02*
X16685952Y-16039476D01*
X16771667Y-16239476D02*
X16771667Y-16134714D01*
X16762143Y-16115667D01*
X16743095Y-16106143D01*
X16714524Y-16106143D01*
X16695476Y-16115667D01*
X16685952Y-16125190D01*
X16895476Y-16239476D02*
X16876429Y-16229952D01*
X16866905Y-16220428D01*
X16857381Y-16201381D01*
X16857381Y-16144238D01*
X16866905Y-16125190D01*
X16876429Y-16115667D01*
X16895476Y-16106143D01*
X16924048Y-16106143D01*
X16943095Y-16115667D01*
X16952619Y-16125190D01*
X16962143Y-16144238D01*
X16962143Y-16201381D01*
X16952619Y-16220428D01*
X16943095Y-16229952D01*
X16924048Y-16239476D01*
X16895476Y-16239476D01*
X17076429Y-16239476D02*
X17057381Y-16229952D01*
X17047857Y-16210905D01*
X17047857Y-16039476D01*
X17228810Y-16229952D02*
X17209762Y-16239476D01*
X17171667Y-16239476D01*
X17152619Y-16229952D01*
X17143095Y-16210905D01*
X17143095Y-16134714D01*
X17152619Y-16115667D01*
X17171667Y-16106143D01*
X17209762Y-16106143D01*
X17228810Y-16115667D01*
X17238333Y-16134714D01*
X17238333Y-16153762D01*
X17143095Y-16172809D01*
X17314524Y-16229952D02*
X17333571Y-16239476D01*
X17371667Y-16239476D01*
X17390714Y-16229952D01*
X17400238Y-16210905D01*
X17400238Y-16201381D01*
X17390714Y-16182333D01*
X17371667Y-16172809D01*
X17343095Y-16172809D01*
X17324048Y-16163286D01*
X17314524Y-16144238D01*
X17314524Y-16134714D01*
X17324048Y-16115667D01*
X17343095Y-16106143D01*
X17371667Y-16106143D01*
X17390714Y-16115667D01*
X17466905Y-16315667D02*
X17476429Y-16306143D01*
X17495476Y-16277571D01*
X17505000Y-16258524D01*
X17514524Y-16229952D01*
X17524048Y-16182333D01*
X17524048Y-16144238D01*
X17514524Y-16096619D01*
X17505000Y-16068048D01*
X17495476Y-16049000D01*
X17476429Y-16020428D01*
X17466905Y-16010905D01*
D14*
X12657500Y-16375500D02*
X12657500Y-16450500D01*
X12620000Y-16413000D02*
X12695000Y-16413000D01*
D11*
X12990714Y-16303476D02*
X13009762Y-16303476D01*
X13028809Y-16313000D01*
X13038333Y-16322524D01*
X13047857Y-16341571D01*
X13057381Y-16379667D01*
X13057381Y-16427286D01*
X13047857Y-16465381D01*
X13038333Y-16484428D01*
X13028809Y-16493952D01*
X13009762Y-16503476D01*
X12990714Y-16503476D01*
X12971667Y-16493952D01*
X12962143Y-16484428D01*
X12952619Y-16465381D01*
X12943095Y-16427286D01*
X12943095Y-16379667D01*
X12952619Y-16341571D01*
X12962143Y-16322524D01*
X12971667Y-16313000D01*
X12990714Y-16303476D01*
X13143095Y-16484428D02*
X13152619Y-16493952D01*
X13143095Y-16503476D01*
X13133571Y-16493952D01*
X13143095Y-16484428D01*
X13143095Y-16503476D01*
X13219286Y-16303476D02*
X13352619Y-16303476D01*
X13266905Y-16503476D01*
X13524048Y-16303476D02*
X13428809Y-16303476D01*
X13419286Y-16398714D01*
X13428809Y-16389190D01*
X13447857Y-16379667D01*
X13495476Y-16379667D01*
X13514524Y-16389190D01*
X13524048Y-16398714D01*
X13533571Y-16417762D01*
X13533571Y-16465381D01*
X13524048Y-16484428D01*
X13514524Y-16493952D01*
X13495476Y-16503476D01*
X13447857Y-16503476D01*
X13428809Y-16493952D01*
X13419286Y-16484428D01*
X13657381Y-16303476D02*
X13676428Y-16303476D01*
X13695476Y-16313000D01*
X13705000Y-16322524D01*
X13714524Y-16341571D01*
X13724048Y-16379667D01*
X13724048Y-16427286D01*
X13714524Y-16465381D01*
X13705000Y-16484428D01*
X13695476Y-16493952D01*
X13676428Y-16503476D01*
X13657381Y-16503476D01*
X13638333Y-16493952D01*
X13628809Y-16484428D01*
X13619286Y-16465381D01*
X13609762Y-16427286D01*
X13609762Y-16379667D01*
X13619286Y-16341571D01*
X13628809Y-16322524D01*
X13638333Y-16313000D01*
X13657381Y-16303476D01*
X13809762Y-16503476D02*
X13809762Y-16370143D01*
X13809762Y-16389190D02*
X13819286Y-16379667D01*
X13838333Y-16370143D01*
X13866905Y-16370143D01*
X13885952Y-16379667D01*
X13895476Y-16398714D01*
X13895476Y-16503476D01*
X13895476Y-16398714D02*
X13905000Y-16379667D01*
X13924048Y-16370143D01*
X13952619Y-16370143D01*
X13971667Y-16379667D01*
X13981190Y-16398714D01*
X13981190Y-16503476D01*
X14076428Y-16503476D02*
X14076428Y-16370143D01*
X14076428Y-16389190D02*
X14085952Y-16379667D01*
X14105000Y-16370143D01*
X14133571Y-16370143D01*
X14152619Y-16379667D01*
X14162143Y-16398714D01*
X14162143Y-16503476D01*
X14162143Y-16398714D02*
X14171667Y-16379667D01*
X14190714Y-16370143D01*
X14219286Y-16370143D01*
X14238333Y-16379667D01*
X14247857Y-16398714D01*
X14247857Y-16503476D01*
X14638333Y-16293952D02*
X14466905Y-16551095D01*
X14895476Y-16303476D02*
X14914524Y-16303476D01*
X14933571Y-16313000D01*
X14943095Y-16322524D01*
X14952619Y-16341571D01*
X14962143Y-16379667D01*
X14962143Y-16427286D01*
X14952619Y-16465381D01*
X14943095Y-16484428D01*
X14933571Y-16493952D01*
X14914524Y-16503476D01*
X14895476Y-16503476D01*
X14876428Y-16493952D01*
X14866905Y-16484428D01*
X14857381Y-16465381D01*
X14847857Y-16427286D01*
X14847857Y-16379667D01*
X14857381Y-16341571D01*
X14866905Y-16322524D01*
X14876428Y-16313000D01*
X14895476Y-16303476D01*
X15047857Y-16484428D02*
X15057381Y-16493952D01*
X15047857Y-16503476D01*
X15038333Y-16493952D01*
X15047857Y-16484428D01*
X15047857Y-16503476D01*
X15181190Y-16303476D02*
X15200238Y-16303476D01*
X15219286Y-16313000D01*
X15228809Y-16322524D01*
X15238333Y-16341571D01*
X15247857Y-16379667D01*
X15247857Y-16427286D01*
X15238333Y-16465381D01*
X15228809Y-16484428D01*
X15219286Y-16493952D01*
X15200238Y-16503476D01*
X15181190Y-16503476D01*
X15162143Y-16493952D01*
X15152619Y-16484428D01*
X15143095Y-16465381D01*
X15133571Y-16427286D01*
X15133571Y-16379667D01*
X15143095Y-16341571D01*
X15152619Y-16322524D01*
X15162143Y-16313000D01*
X15181190Y-16303476D01*
X15324048Y-16322524D02*
X15333571Y-16313000D01*
X15352619Y-16303476D01*
X15400238Y-16303476D01*
X15419286Y-16313000D01*
X15428809Y-16322524D01*
X15438333Y-16341571D01*
X15438333Y-16360619D01*
X15428809Y-16389190D01*
X15314524Y-16503476D01*
X15438333Y-16503476D01*
X15533571Y-16503476D02*
X15571667Y-16503476D01*
X15590714Y-16493952D01*
X15600238Y-16484428D01*
X15619286Y-16455857D01*
X15628809Y-16417762D01*
X15628809Y-16341571D01*
X15619286Y-16322524D01*
X15609762Y-16313000D01*
X15590714Y-16303476D01*
X15552619Y-16303476D01*
X15533571Y-16313000D01*
X15524048Y-16322524D01*
X15514524Y-16341571D01*
X15514524Y-16389190D01*
X15524048Y-16408238D01*
X15533571Y-16417762D01*
X15552619Y-16427286D01*
X15590714Y-16427286D01*
X15609762Y-16417762D01*
X15619286Y-16408238D01*
X15628809Y-16389190D01*
X15809762Y-16303476D02*
X15714524Y-16303476D01*
X15705000Y-16398714D01*
X15714524Y-16389190D01*
X15733571Y-16379667D01*
X15781190Y-16379667D01*
X15800238Y-16389190D01*
X15809762Y-16398714D01*
X15819286Y-16417762D01*
X15819286Y-16465381D01*
X15809762Y-16484428D01*
X15800238Y-16493952D01*
X15781190Y-16503476D01*
X15733571Y-16503476D01*
X15714524Y-16493952D01*
X15705000Y-16484428D01*
X15895476Y-16303476D02*
X15895476Y-16341571D01*
X15971667Y-16303476D02*
X15971667Y-16341571D01*
X16266905Y-16579667D02*
X16257381Y-16570143D01*
X16238333Y-16541571D01*
X16228809Y-16522524D01*
X16219286Y-16493952D01*
X16209762Y-16446333D01*
X16209762Y-16408238D01*
X16219286Y-16360619D01*
X16228809Y-16332048D01*
X16238333Y-16313000D01*
X16257381Y-16284428D01*
X16266905Y-16274905D01*
X16324048Y-16303476D02*
X16447857Y-16303476D01*
X16381190Y-16379667D01*
X16409762Y-16379667D01*
X16428809Y-16389190D01*
X16438333Y-16398714D01*
X16447857Y-16417762D01*
X16447857Y-16465381D01*
X16438333Y-16484428D01*
X16428809Y-16493952D01*
X16409762Y-16503476D01*
X16352619Y-16503476D01*
X16333571Y-16493952D01*
X16324048Y-16484428D01*
X16619286Y-16303476D02*
X16581190Y-16303476D01*
X16562143Y-16313000D01*
X16552619Y-16322524D01*
X16533571Y-16351095D01*
X16524048Y-16389190D01*
X16524048Y-16465381D01*
X16533571Y-16484428D01*
X16543095Y-16493952D01*
X16562143Y-16503476D01*
X16600238Y-16503476D01*
X16619286Y-16493952D01*
X16628809Y-16484428D01*
X16638333Y-16465381D01*
X16638333Y-16417762D01*
X16628809Y-16398714D01*
X16619286Y-16389190D01*
X16600238Y-16379667D01*
X16562143Y-16379667D01*
X16543095Y-16389190D01*
X16533571Y-16398714D01*
X16524048Y-16417762D01*
X16876429Y-16503476D02*
X16876429Y-16303476D01*
X16962143Y-16503476D02*
X16962143Y-16398714D01*
X16952619Y-16379667D01*
X16933571Y-16370143D01*
X16905000Y-16370143D01*
X16885952Y-16379667D01*
X16876429Y-16389190D01*
X17085952Y-16503476D02*
X17066905Y-16493952D01*
X17057381Y-16484428D01*
X17047857Y-16465381D01*
X17047857Y-16408238D01*
X17057381Y-16389190D01*
X17066905Y-16379667D01*
X17085952Y-16370143D01*
X17114524Y-16370143D01*
X17133571Y-16379667D01*
X17143095Y-16389190D01*
X17152619Y-16408238D01*
X17152619Y-16465381D01*
X17143095Y-16484428D01*
X17133571Y-16493952D01*
X17114524Y-16503476D01*
X17085952Y-16503476D01*
X17266905Y-16503476D02*
X17247857Y-16493952D01*
X17238333Y-16474905D01*
X17238333Y-16303476D01*
X17419286Y-16493952D02*
X17400238Y-16503476D01*
X17362143Y-16503476D01*
X17343095Y-16493952D01*
X17333571Y-16474905D01*
X17333571Y-16398714D01*
X17343095Y-16379667D01*
X17362143Y-16370143D01*
X17400238Y-16370143D01*
X17419286Y-16379667D01*
X17428810Y-16398714D01*
X17428810Y-16417762D01*
X17333571Y-16436809D01*
X17505000Y-16493952D02*
X17524048Y-16503476D01*
X17562143Y-16503476D01*
X17581190Y-16493952D01*
X17590714Y-16474905D01*
X17590714Y-16465381D01*
X17581190Y-16446333D01*
X17562143Y-16436809D01*
X17533571Y-16436809D01*
X17514524Y-16427286D01*
X17505000Y-16408238D01*
X17505000Y-16398714D01*
X17514524Y-16379667D01*
X17533571Y-16370143D01*
X17562143Y-16370143D01*
X17581190Y-16379667D01*
X17657381Y-16579667D02*
X17666905Y-16570143D01*
X17685952Y-16541571D01*
X17695476Y-16522524D01*
X17705000Y-16493952D01*
X17714524Y-16446333D01*
X17714524Y-16408238D01*
X17705000Y-16360619D01*
X17695476Y-16332048D01*
X17685952Y-16313000D01*
X17666905Y-16284428D01*
X17657381Y-16274905D01*
D15*
X12683724Y-16704224D02*
X12683724Y-16649776D01*
X12629276Y-16649776D01*
X12629276Y-16704224D01*
X12683724Y-16704224D01*
D11*
X12990714Y-16567476D02*
X13009762Y-16567476D01*
X13028809Y-16577000D01*
X13038333Y-16586524D01*
X13047857Y-16605571D01*
X13057381Y-16643667D01*
X13057381Y-16691286D01*
X13047857Y-16729381D01*
X13038333Y-16748428D01*
X13028809Y-16757952D01*
X13009762Y-16767476D01*
X12990714Y-16767476D01*
X12971667Y-16757952D01*
X12962143Y-16748428D01*
X12952619Y-16729381D01*
X12943095Y-16691286D01*
X12943095Y-16643667D01*
X12952619Y-16605571D01*
X12962143Y-16586524D01*
X12971667Y-16577000D01*
X12990714Y-16567476D01*
X13143095Y-16748428D02*
X13152619Y-16757952D01*
X13143095Y-16767476D01*
X13133571Y-16757952D01*
X13143095Y-16748428D01*
X13143095Y-16767476D01*
X13219286Y-16567476D02*
X13352619Y-16567476D01*
X13266905Y-16767476D01*
X13409762Y-16567476D02*
X13543095Y-16567476D01*
X13457381Y-16767476D01*
X13657381Y-16567476D02*
X13676428Y-16567476D01*
X13695476Y-16577000D01*
X13705000Y-16586524D01*
X13714524Y-16605571D01*
X13724048Y-16643667D01*
X13724048Y-16691286D01*
X13714524Y-16729381D01*
X13705000Y-16748428D01*
X13695476Y-16757952D01*
X13676428Y-16767476D01*
X13657381Y-16767476D01*
X13638333Y-16757952D01*
X13628809Y-16748428D01*
X13619286Y-16729381D01*
X13609762Y-16691286D01*
X13609762Y-16643667D01*
X13619286Y-16605571D01*
X13628809Y-16586524D01*
X13638333Y-16577000D01*
X13657381Y-16567476D01*
X13809762Y-16767476D02*
X13809762Y-16634143D01*
X13809762Y-16653190D02*
X13819286Y-16643667D01*
X13838333Y-16634143D01*
X13866905Y-16634143D01*
X13885952Y-16643667D01*
X13895476Y-16662714D01*
X13895476Y-16767476D01*
X13895476Y-16662714D02*
X13905000Y-16643667D01*
X13924048Y-16634143D01*
X13952619Y-16634143D01*
X13971667Y-16643667D01*
X13981190Y-16662714D01*
X13981190Y-16767476D01*
X14076428Y-16767476D02*
X14076428Y-16634143D01*
X14076428Y-16653190D02*
X14085952Y-16643667D01*
X14105000Y-16634143D01*
X14133571Y-16634143D01*
X14152619Y-16643667D01*
X14162143Y-16662714D01*
X14162143Y-16767476D01*
X14162143Y-16662714D02*
X14171667Y-16643667D01*
X14190714Y-16634143D01*
X14219286Y-16634143D01*
X14238333Y-16643667D01*
X14247857Y-16662714D01*
X14247857Y-16767476D01*
X14638333Y-16557952D02*
X14466905Y-16815095D01*
X14895476Y-16567476D02*
X14914524Y-16567476D01*
X14933571Y-16577000D01*
X14943095Y-16586524D01*
X14952619Y-16605571D01*
X14962143Y-16643667D01*
X14962143Y-16691286D01*
X14952619Y-16729381D01*
X14943095Y-16748428D01*
X14933571Y-16757952D01*
X14914524Y-16767476D01*
X14895476Y-16767476D01*
X14876428Y-16757952D01*
X14866905Y-16748428D01*
X14857381Y-16729381D01*
X14847857Y-16691286D01*
X14847857Y-16643667D01*
X14857381Y-16605571D01*
X14866905Y-16586524D01*
X14876428Y-16577000D01*
X14895476Y-16567476D01*
X15047857Y-16748428D02*
X15057381Y-16757952D01*
X15047857Y-16767476D01*
X15038333Y-16757952D01*
X15047857Y-16748428D01*
X15047857Y-16767476D01*
X15181190Y-16567476D02*
X15200238Y-16567476D01*
X15219286Y-16577000D01*
X15228809Y-16586524D01*
X15238333Y-16605571D01*
X15247857Y-16643667D01*
X15247857Y-16691286D01*
X15238333Y-16729381D01*
X15228809Y-16748428D01*
X15219286Y-16757952D01*
X15200238Y-16767476D01*
X15181190Y-16767476D01*
X15162143Y-16757952D01*
X15152619Y-16748428D01*
X15143095Y-16729381D01*
X15133571Y-16691286D01*
X15133571Y-16643667D01*
X15143095Y-16605571D01*
X15152619Y-16586524D01*
X15162143Y-16577000D01*
X15181190Y-16567476D01*
X15314524Y-16567476D02*
X15438333Y-16567476D01*
X15371667Y-16643667D01*
X15400238Y-16643667D01*
X15419286Y-16653190D01*
X15428809Y-16662714D01*
X15438333Y-16681762D01*
X15438333Y-16729381D01*
X15428809Y-16748428D01*
X15419286Y-16757952D01*
X15400238Y-16767476D01*
X15343095Y-16767476D01*
X15324048Y-16757952D01*
X15314524Y-16748428D01*
X15562143Y-16567476D02*
X15581190Y-16567476D01*
X15600238Y-16577000D01*
X15609762Y-16586524D01*
X15619286Y-16605571D01*
X15628809Y-16643667D01*
X15628809Y-16691286D01*
X15619286Y-16729381D01*
X15609762Y-16748428D01*
X15600238Y-16757952D01*
X15581190Y-16767476D01*
X15562143Y-16767476D01*
X15543095Y-16757952D01*
X15533571Y-16748428D01*
X15524048Y-16729381D01*
X15514524Y-16691286D01*
X15514524Y-16643667D01*
X15524048Y-16605571D01*
X15533571Y-16586524D01*
X15543095Y-16577000D01*
X15562143Y-16567476D01*
X15695476Y-16567476D02*
X15819286Y-16567476D01*
X15752619Y-16643667D01*
X15781190Y-16643667D01*
X15800238Y-16653190D01*
X15809762Y-16662714D01*
X15819286Y-16681762D01*
X15819286Y-16729381D01*
X15809762Y-16748428D01*
X15800238Y-16757952D01*
X15781190Y-16767476D01*
X15724048Y-16767476D01*
X15705000Y-16757952D01*
X15695476Y-16748428D01*
X15895476Y-16567476D02*
X15895476Y-16605571D01*
X15971667Y-16567476D02*
X15971667Y-16605571D01*
X16266905Y-16843667D02*
X16257381Y-16834143D01*
X16238333Y-16805571D01*
X16228809Y-16786524D01*
X16219286Y-16757952D01*
X16209762Y-16710333D01*
X16209762Y-16672238D01*
X16219286Y-16624619D01*
X16228809Y-16596048D01*
X16238333Y-16577000D01*
X16257381Y-16548428D01*
X16266905Y-16538905D01*
X16333571Y-16586524D02*
X16343095Y-16577000D01*
X16362143Y-16567476D01*
X16409762Y-16567476D01*
X16428809Y-16577000D01*
X16438333Y-16586524D01*
X16447857Y-16605571D01*
X16447857Y-16624619D01*
X16438333Y-16653190D01*
X16324048Y-16767476D01*
X16447857Y-16767476D01*
X16562143Y-16653190D02*
X16543095Y-16643667D01*
X16533571Y-16634143D01*
X16524048Y-16615095D01*
X16524048Y-16605571D01*
X16533571Y-16586524D01*
X16543095Y-16577000D01*
X16562143Y-16567476D01*
X16600238Y-16567476D01*
X16619286Y-16577000D01*
X16628809Y-16586524D01*
X16638333Y-16605571D01*
X16638333Y-16615095D01*
X16628809Y-16634143D01*
X16619286Y-16643667D01*
X16600238Y-16653190D01*
X16562143Y-16653190D01*
X16543095Y-16662714D01*
X16533571Y-16672238D01*
X16524048Y-16691286D01*
X16524048Y-16729381D01*
X16533571Y-16748428D01*
X16543095Y-16757952D01*
X16562143Y-16767476D01*
X16600238Y-16767476D01*
X16619286Y-16757952D01*
X16628809Y-16748428D01*
X16638333Y-16729381D01*
X16638333Y-16691286D01*
X16628809Y-16672238D01*
X16619286Y-16662714D01*
X16600238Y-16653190D01*
X16876429Y-16767476D02*
X16876429Y-16567476D01*
X16962143Y-16767476D02*
X16962143Y-16662714D01*
X16952619Y-16643667D01*
X16933571Y-16634143D01*
X16905000Y-16634143D01*
X16885952Y-16643667D01*
X16876429Y-16653190D01*
X17085952Y-16767476D02*
X17066905Y-16757952D01*
X17057381Y-16748428D01*
X17047857Y-16729381D01*
X17047857Y-16672238D01*
X17057381Y-16653190D01*
X17066905Y-16643667D01*
X17085952Y-16634143D01*
X17114524Y-16634143D01*
X17133571Y-16643667D01*
X17143095Y-16653190D01*
X17152619Y-16672238D01*
X17152619Y-16729381D01*
X17143095Y-16748428D01*
X17133571Y-16757952D01*
X17114524Y-16767476D01*
X17085952Y-16767476D01*
X17266905Y-16767476D02*
X17247857Y-16757952D01*
X17238333Y-16738905D01*
X17238333Y-16567476D01*
X17419286Y-16757952D02*
X17400238Y-16767476D01*
X17362143Y-16767476D01*
X17343095Y-16757952D01*
X17333571Y-16738905D01*
X17333571Y-16662714D01*
X17343095Y-16643667D01*
X17362143Y-16634143D01*
X17400238Y-16634143D01*
X17419286Y-16643667D01*
X17428810Y-16662714D01*
X17428810Y-16681762D01*
X17333571Y-16700809D01*
X17505000Y-16757952D02*
X17524048Y-16767476D01*
X17562143Y-16767476D01*
X17581190Y-16757952D01*
X17590714Y-16738905D01*
X17590714Y-16729381D01*
X17581190Y-16710333D01*
X17562143Y-16700809D01*
X17533571Y-16700809D01*
X17514524Y-16691286D01*
X17505000Y-16672238D01*
X17505000Y-16662714D01*
X17514524Y-16643667D01*
X17533571Y-16634143D01*
X17562143Y-16634143D01*
X17581190Y-16643667D01*
X17657381Y-16843667D02*
X17666905Y-16834143D01*
X17685952Y-16805571D01*
X17695476Y-16786524D01*
X17705000Y-16757952D01*
X17714524Y-16710333D01*
X17714524Y-16672238D01*
X17705000Y-16624619D01*
X17695476Y-16596048D01*
X17685952Y-16577000D01*
X17666905Y-16548428D01*
X17657381Y-16538905D01*
D16*
X12655000Y-16981000D02*
X12695000Y-16941000D01*
X12655000Y-16901000D01*
X12615000Y-16941000D01*
X12655000Y-16981000D01*
D11*
X12990714Y-16831476D02*
X13009762Y-16831476D01*
X13028809Y-16841000D01*
X13038333Y-16850524D01*
X13047857Y-16869571D01*
X13057381Y-16907667D01*
X13057381Y-16955286D01*
X13047857Y-16993381D01*
X13038333Y-17012429D01*
X13028809Y-17021952D01*
X13009762Y-17031476D01*
X12990714Y-17031476D01*
X12971667Y-17021952D01*
X12962143Y-17012429D01*
X12952619Y-16993381D01*
X12943095Y-16955286D01*
X12943095Y-16907667D01*
X12952619Y-16869571D01*
X12962143Y-16850524D01*
X12971667Y-16841000D01*
X12990714Y-16831476D01*
X13143095Y-17012429D02*
X13152619Y-17021952D01*
X13143095Y-17031476D01*
X13133571Y-17021952D01*
X13143095Y-17012429D01*
X13143095Y-17031476D01*
X13266905Y-16917190D02*
X13247857Y-16907667D01*
X13238333Y-16898143D01*
X13228809Y-16879095D01*
X13228809Y-16869571D01*
X13238333Y-16850524D01*
X13247857Y-16841000D01*
X13266905Y-16831476D01*
X13305000Y-16831476D01*
X13324048Y-16841000D01*
X13333571Y-16850524D01*
X13343095Y-16869571D01*
X13343095Y-16879095D01*
X13333571Y-16898143D01*
X13324048Y-16907667D01*
X13305000Y-16917190D01*
X13266905Y-16917190D01*
X13247857Y-16926714D01*
X13238333Y-16936238D01*
X13228809Y-16955286D01*
X13228809Y-16993381D01*
X13238333Y-17012429D01*
X13247857Y-17021952D01*
X13266905Y-17031476D01*
X13305000Y-17031476D01*
X13324048Y-17021952D01*
X13333571Y-17012429D01*
X13343095Y-16993381D01*
X13343095Y-16955286D01*
X13333571Y-16936238D01*
X13324048Y-16926714D01*
X13305000Y-16917190D01*
X13466905Y-16831476D02*
X13485952Y-16831476D01*
X13505000Y-16841000D01*
X13514524Y-16850524D01*
X13524048Y-16869571D01*
X13533571Y-16907667D01*
X13533571Y-16955286D01*
X13524048Y-16993381D01*
X13514524Y-17012429D01*
X13505000Y-17021952D01*
X13485952Y-17031476D01*
X13466905Y-17031476D01*
X13447857Y-17021952D01*
X13438333Y-17012429D01*
X13428809Y-16993381D01*
X13419286Y-16955286D01*
X13419286Y-16907667D01*
X13428809Y-16869571D01*
X13438333Y-16850524D01*
X13447857Y-16841000D01*
X13466905Y-16831476D01*
X13657381Y-16831476D02*
X13676428Y-16831476D01*
X13695476Y-16841000D01*
X13705000Y-16850524D01*
X13714524Y-16869571D01*
X13724048Y-16907667D01*
X13724048Y-16955286D01*
X13714524Y-16993381D01*
X13705000Y-17012429D01*
X13695476Y-17021952D01*
X13676428Y-17031476D01*
X13657381Y-17031476D01*
X13638333Y-17021952D01*
X13628809Y-17012429D01*
X13619286Y-16993381D01*
X13609762Y-16955286D01*
X13609762Y-16907667D01*
X13619286Y-16869571D01*
X13628809Y-16850524D01*
X13638333Y-16841000D01*
X13657381Y-16831476D01*
X13809762Y-17031476D02*
X13809762Y-16898143D01*
X13809762Y-16917190D02*
X13819286Y-16907667D01*
X13838333Y-16898143D01*
X13866905Y-16898143D01*
X13885952Y-16907667D01*
X13895476Y-16926714D01*
X13895476Y-17031476D01*
X13895476Y-16926714D02*
X13905000Y-16907667D01*
X13924048Y-16898143D01*
X13952619Y-16898143D01*
X13971667Y-16907667D01*
X13981190Y-16926714D01*
X13981190Y-17031476D01*
X14076428Y-17031476D02*
X14076428Y-16898143D01*
X14076428Y-16917190D02*
X14085952Y-16907667D01*
X14105000Y-16898143D01*
X14133571Y-16898143D01*
X14152619Y-16907667D01*
X14162143Y-16926714D01*
X14162143Y-17031476D01*
X14162143Y-16926714D02*
X14171667Y-16907667D01*
X14190714Y-16898143D01*
X14219286Y-16898143D01*
X14238333Y-16907667D01*
X14247857Y-16926714D01*
X14247857Y-17031476D01*
X14638333Y-16821952D02*
X14466905Y-17079095D01*
X14895476Y-16831476D02*
X14914524Y-16831476D01*
X14933571Y-16841000D01*
X14943095Y-16850524D01*
X14952619Y-16869571D01*
X14962143Y-16907667D01*
X14962143Y-16955286D01*
X14952619Y-16993381D01*
X14943095Y-17012429D01*
X14933571Y-17021952D01*
X14914524Y-17031476D01*
X14895476Y-17031476D01*
X14876428Y-17021952D01*
X14866905Y-17012429D01*
X14857381Y-16993381D01*
X14847857Y-16955286D01*
X14847857Y-16907667D01*
X14857381Y-16869571D01*
X14866905Y-16850524D01*
X14876428Y-16841000D01*
X14895476Y-16831476D01*
X15047857Y-17012429D02*
X15057381Y-17021952D01*
X15047857Y-17031476D01*
X15038333Y-17021952D01*
X15047857Y-17012429D01*
X15047857Y-17031476D01*
X15181190Y-16831476D02*
X15200238Y-16831476D01*
X15219286Y-16841000D01*
X15228809Y-16850524D01*
X15238333Y-16869571D01*
X15247857Y-16907667D01*
X15247857Y-16955286D01*
X15238333Y-16993381D01*
X15228809Y-17012429D01*
X15219286Y-17021952D01*
X15200238Y-17031476D01*
X15181190Y-17031476D01*
X15162143Y-17021952D01*
X15152619Y-17012429D01*
X15143095Y-16993381D01*
X15133571Y-16955286D01*
X15133571Y-16907667D01*
X15143095Y-16869571D01*
X15152619Y-16850524D01*
X15162143Y-16841000D01*
X15181190Y-16831476D01*
X15314524Y-16831476D02*
X15438333Y-16831476D01*
X15371667Y-16907667D01*
X15400238Y-16907667D01*
X15419286Y-16917190D01*
X15428809Y-16926714D01*
X15438333Y-16945762D01*
X15438333Y-16993381D01*
X15428809Y-17012429D01*
X15419286Y-17021952D01*
X15400238Y-17031476D01*
X15343095Y-17031476D01*
X15324048Y-17021952D01*
X15314524Y-17012429D01*
X15628809Y-17031476D02*
X15514524Y-17031476D01*
X15571667Y-17031476D02*
X15571667Y-16831476D01*
X15552619Y-16860048D01*
X15533571Y-16879095D01*
X15514524Y-16888619D01*
X15809762Y-16831476D02*
X15714524Y-16831476D01*
X15705000Y-16926714D01*
X15714524Y-16917190D01*
X15733571Y-16907667D01*
X15781190Y-16907667D01*
X15800238Y-16917190D01*
X15809762Y-16926714D01*
X15819286Y-16945762D01*
X15819286Y-16993381D01*
X15809762Y-17012429D01*
X15800238Y-17021952D01*
X15781190Y-17031476D01*
X15733571Y-17031476D01*
X15714524Y-17021952D01*
X15705000Y-17012429D01*
X15895476Y-16831476D02*
X15895476Y-16869571D01*
X15971667Y-16831476D02*
X15971667Y-16869571D01*
X16266905Y-17107667D02*
X16257381Y-17098143D01*
X16238333Y-17069571D01*
X16228809Y-17050524D01*
X16219286Y-17021952D01*
X16209762Y-16974333D01*
X16209762Y-16936238D01*
X16219286Y-16888619D01*
X16228809Y-16860048D01*
X16238333Y-16841000D01*
X16257381Y-16812429D01*
X16266905Y-16802905D01*
X16352619Y-17031476D02*
X16390714Y-17031476D01*
X16409762Y-17021952D01*
X16419286Y-17012429D01*
X16438333Y-16983857D01*
X16447857Y-16945762D01*
X16447857Y-16869571D01*
X16438333Y-16850524D01*
X16428809Y-16841000D01*
X16409762Y-16831476D01*
X16371667Y-16831476D01*
X16352619Y-16841000D01*
X16343095Y-16850524D01*
X16333571Y-16869571D01*
X16333571Y-16917190D01*
X16343095Y-16936238D01*
X16352619Y-16945762D01*
X16371667Y-16955286D01*
X16409762Y-16955286D01*
X16428809Y-16945762D01*
X16438333Y-16936238D01*
X16447857Y-16917190D01*
X16619286Y-16898143D02*
X16619286Y-17031476D01*
X16571667Y-16821952D02*
X16524048Y-16964810D01*
X16647857Y-16964810D01*
X16876429Y-17031476D02*
X16876429Y-16831476D01*
X16962143Y-17031476D02*
X16962143Y-16926714D01*
X16952619Y-16907667D01*
X16933571Y-16898143D01*
X16905000Y-16898143D01*
X16885952Y-16907667D01*
X16876429Y-16917190D01*
X17085952Y-17031476D02*
X17066905Y-17021952D01*
X17057381Y-17012429D01*
X17047857Y-16993381D01*
X17047857Y-16936238D01*
X17057381Y-16917190D01*
X17066905Y-16907667D01*
X17085952Y-16898143D01*
X17114524Y-16898143D01*
X17133571Y-16907667D01*
X17143095Y-16917190D01*
X17152619Y-16936238D01*
X17152619Y-16993381D01*
X17143095Y-17012429D01*
X17133571Y-17021952D01*
X17114524Y-17031476D01*
X17085952Y-17031476D01*
X17266905Y-17031476D02*
X17247857Y-17021952D01*
X17238333Y-17002905D01*
X17238333Y-16831476D01*
X17419286Y-17021952D02*
X17400238Y-17031476D01*
X17362143Y-17031476D01*
X17343095Y-17021952D01*
X17333571Y-17002905D01*
X17333571Y-16926714D01*
X17343095Y-16907667D01*
X17362143Y-16898143D01*
X17400238Y-16898143D01*
X17419286Y-16907667D01*
X17428810Y-16926714D01*
X17428810Y-16945762D01*
X17333571Y-16964810D01*
X17505000Y-17021952D02*
X17524048Y-17031476D01*
X17562143Y-17031476D01*
X17581190Y-17021952D01*
X17590714Y-17002905D01*
X17590714Y-16993381D01*
X17581190Y-16974333D01*
X17562143Y-16964810D01*
X17533571Y-16964810D01*
X17514524Y-16955286D01*
X17505000Y-16936238D01*
X17505000Y-16926714D01*
X17514524Y-16907667D01*
X17533571Y-16898143D01*
X17562143Y-16898143D01*
X17581190Y-16907667D01*
X17657381Y-17107667D02*
X17666905Y-17098143D01*
X17685952Y-17069571D01*
X17695476Y-17050524D01*
X17705000Y-17021952D01*
X17714524Y-16974333D01*
X17714524Y-16936238D01*
X17705000Y-16888619D01*
X17695476Y-16860048D01*
X17685952Y-16841000D01*
X17666905Y-16812429D01*
X17657381Y-16802905D01*
D17*
X12605000Y-17160000D02*
X12695000Y-17250000D01*
X12695000Y-17160000D02*
X12605000Y-17250000D01*
X12695000Y-17205000D02*
G75*
G03*
X12695000Y-17205000I-45000J0D01*
G01*
D11*
X12990714Y-17095476D02*
X13009762Y-17095476D01*
X13028809Y-17105000D01*
X13038333Y-17114524D01*
X13047857Y-17133571D01*
X13057381Y-17171667D01*
X13057381Y-17219286D01*
X13047857Y-17257381D01*
X13038333Y-17276429D01*
X13028809Y-17285952D01*
X13009762Y-17295476D01*
X12990714Y-17295476D01*
X12971667Y-17285952D01*
X12962143Y-17276429D01*
X12952619Y-17257381D01*
X12943095Y-17219286D01*
X12943095Y-17171667D01*
X12952619Y-17133571D01*
X12962143Y-17114524D01*
X12971667Y-17105000D01*
X12990714Y-17095476D01*
X13143095Y-17276429D02*
X13152619Y-17285952D01*
X13143095Y-17295476D01*
X13133571Y-17285952D01*
X13143095Y-17276429D01*
X13143095Y-17295476D01*
X13247857Y-17295476D02*
X13285952Y-17295476D01*
X13305000Y-17285952D01*
X13314524Y-17276429D01*
X13333571Y-17247857D01*
X13343095Y-17209762D01*
X13343095Y-17133571D01*
X13333571Y-17114524D01*
X13324048Y-17105000D01*
X13305000Y-17095476D01*
X13266905Y-17095476D01*
X13247857Y-17105000D01*
X13238333Y-17114524D01*
X13228809Y-17133571D01*
X13228809Y-17181190D01*
X13238333Y-17200238D01*
X13247857Y-17209762D01*
X13266905Y-17219286D01*
X13305000Y-17219286D01*
X13324048Y-17209762D01*
X13333571Y-17200238D01*
X13343095Y-17181190D01*
X13466905Y-17095476D02*
X13485952Y-17095476D01*
X13505000Y-17105000D01*
X13514524Y-17114524D01*
X13524048Y-17133571D01*
X13533571Y-17171667D01*
X13533571Y-17219286D01*
X13524048Y-17257381D01*
X13514524Y-17276429D01*
X13505000Y-17285952D01*
X13485952Y-17295476D01*
X13466905Y-17295476D01*
X13447857Y-17285952D01*
X13438333Y-17276429D01*
X13428809Y-17257381D01*
X13419286Y-17219286D01*
X13419286Y-17171667D01*
X13428809Y-17133571D01*
X13438333Y-17114524D01*
X13447857Y-17105000D01*
X13466905Y-17095476D01*
X13657381Y-17095476D02*
X13676428Y-17095476D01*
X13695476Y-17105000D01*
X13705000Y-17114524D01*
X13714524Y-17133571D01*
X13724048Y-17171667D01*
X13724048Y-17219286D01*
X13714524Y-17257381D01*
X13705000Y-17276429D01*
X13695476Y-17285952D01*
X13676428Y-17295476D01*
X13657381Y-17295476D01*
X13638333Y-17285952D01*
X13628809Y-17276429D01*
X13619286Y-17257381D01*
X13609762Y-17219286D01*
X13609762Y-17171667D01*
X13619286Y-17133571D01*
X13628809Y-17114524D01*
X13638333Y-17105000D01*
X13657381Y-17095476D01*
X13809762Y-17295476D02*
X13809762Y-17162143D01*
X13809762Y-17181190D02*
X13819286Y-17171667D01*
X13838333Y-17162143D01*
X13866905Y-17162143D01*
X13885952Y-17171667D01*
X13895476Y-17190714D01*
X13895476Y-17295476D01*
X13895476Y-17190714D02*
X13905000Y-17171667D01*
X13924048Y-17162143D01*
X13952619Y-17162143D01*
X13971667Y-17171667D01*
X13981190Y-17190714D01*
X13981190Y-17295476D01*
X14076428Y-17295476D02*
X14076428Y-17162143D01*
X14076428Y-17181190D02*
X14085952Y-17171667D01*
X14105000Y-17162143D01*
X14133571Y-17162143D01*
X14152619Y-17171667D01*
X14162143Y-17190714D01*
X14162143Y-17295476D01*
X14162143Y-17190714D02*
X14171667Y-17171667D01*
X14190714Y-17162143D01*
X14219286Y-17162143D01*
X14238333Y-17171667D01*
X14247857Y-17190714D01*
X14247857Y-17295476D01*
X14638333Y-17085952D02*
X14466905Y-17343095D01*
X14895476Y-17095476D02*
X14914524Y-17095476D01*
X14933571Y-17105000D01*
X14943095Y-17114524D01*
X14952619Y-17133571D01*
X14962143Y-17171667D01*
X14962143Y-17219286D01*
X14952619Y-17257381D01*
X14943095Y-17276429D01*
X14933571Y-17285952D01*
X14914524Y-17295476D01*
X14895476Y-17295476D01*
X14876428Y-17285952D01*
X14866905Y-17276429D01*
X14857381Y-17257381D01*
X14847857Y-17219286D01*
X14847857Y-17171667D01*
X14857381Y-17133571D01*
X14866905Y-17114524D01*
X14876428Y-17105000D01*
X14895476Y-17095476D01*
X15047857Y-17276429D02*
X15057381Y-17285952D01*
X15047857Y-17295476D01*
X15038333Y-17285952D01*
X15047857Y-17276429D01*
X15047857Y-17295476D01*
X15181190Y-17095476D02*
X15200238Y-17095476D01*
X15219286Y-17105000D01*
X15228809Y-17114524D01*
X15238333Y-17133571D01*
X15247857Y-17171667D01*
X15247857Y-17219286D01*
X15238333Y-17257381D01*
X15228809Y-17276429D01*
X15219286Y-17285952D01*
X15200238Y-17295476D01*
X15181190Y-17295476D01*
X15162143Y-17285952D01*
X15152619Y-17276429D01*
X15143095Y-17257381D01*
X15133571Y-17219286D01*
X15133571Y-17171667D01*
X15143095Y-17133571D01*
X15152619Y-17114524D01*
X15162143Y-17105000D01*
X15181190Y-17095476D01*
X15314524Y-17095476D02*
X15438333Y-17095476D01*
X15371667Y-17171667D01*
X15400238Y-17171667D01*
X15419286Y-17181190D01*
X15428809Y-17190714D01*
X15438333Y-17209762D01*
X15438333Y-17257381D01*
X15428809Y-17276429D01*
X15419286Y-17285952D01*
X15400238Y-17295476D01*
X15343095Y-17295476D01*
X15324048Y-17285952D01*
X15314524Y-17276429D01*
X15619286Y-17095476D02*
X15524048Y-17095476D01*
X15514524Y-17190714D01*
X15524048Y-17181190D01*
X15543095Y-17171667D01*
X15590714Y-17171667D01*
X15609762Y-17181190D01*
X15619286Y-17190714D01*
X15628809Y-17209762D01*
X15628809Y-17257381D01*
X15619286Y-17276429D01*
X15609762Y-17285952D01*
X15590714Y-17295476D01*
X15543095Y-17295476D01*
X15524048Y-17285952D01*
X15514524Y-17276429D01*
X15800238Y-17162143D02*
X15800238Y-17295476D01*
X15752619Y-17085952D02*
X15705000Y-17228810D01*
X15828809Y-17228810D01*
X15895476Y-17095476D02*
X15895476Y-17133571D01*
X15971667Y-17095476D02*
X15971667Y-17133571D01*
X16266905Y-17371667D02*
X16257381Y-17362143D01*
X16238333Y-17333571D01*
X16228809Y-17314524D01*
X16219286Y-17285952D01*
X16209762Y-17238333D01*
X16209762Y-17200238D01*
X16219286Y-17152619D01*
X16228809Y-17124048D01*
X16238333Y-17105000D01*
X16257381Y-17076429D01*
X16266905Y-17066905D01*
X16428809Y-17162143D02*
X16428809Y-17295476D01*
X16381190Y-17085952D02*
X16333571Y-17228810D01*
X16457381Y-17228810D01*
X16685952Y-17295476D02*
X16685952Y-17095476D01*
X16771667Y-17295476D02*
X16771667Y-17190714D01*
X16762143Y-17171667D01*
X16743095Y-17162143D01*
X16714524Y-17162143D01*
X16695476Y-17171667D01*
X16685952Y-17181190D01*
X16895476Y-17295476D02*
X16876429Y-17285952D01*
X16866905Y-17276429D01*
X16857381Y-17257381D01*
X16857381Y-17200238D01*
X16866905Y-17181190D01*
X16876429Y-17171667D01*
X16895476Y-17162143D01*
X16924048Y-17162143D01*
X16943095Y-17171667D01*
X16952619Y-17181190D01*
X16962143Y-17200238D01*
X16962143Y-17257381D01*
X16952619Y-17276429D01*
X16943095Y-17285952D01*
X16924048Y-17295476D01*
X16895476Y-17295476D01*
X17076429Y-17295476D02*
X17057381Y-17285952D01*
X17047857Y-17266905D01*
X17047857Y-17095476D01*
X17228810Y-17285952D02*
X17209762Y-17295476D01*
X17171667Y-17295476D01*
X17152619Y-17285952D01*
X17143095Y-17266905D01*
X17143095Y-17190714D01*
X17152619Y-17171667D01*
X17171667Y-17162143D01*
X17209762Y-17162143D01*
X17228810Y-17171667D01*
X17238333Y-17190714D01*
X17238333Y-17209762D01*
X17143095Y-17228810D01*
X17314524Y-17285952D02*
X17333571Y-17295476D01*
X17371667Y-17295476D01*
X17390714Y-17285952D01*
X17400238Y-17266905D01*
X17400238Y-17257381D01*
X17390714Y-17238333D01*
X17371667Y-17228810D01*
X17343095Y-17228810D01*
X17324048Y-17219286D01*
X17314524Y-17200238D01*
X17314524Y-17190714D01*
X17324048Y-17171667D01*
X17343095Y-17162143D01*
X17371667Y-17162143D01*
X17390714Y-17171667D01*
X17466905Y-17371667D02*
X17476429Y-17362143D01*
X17495476Y-17333571D01*
X17505000Y-17314524D01*
X17514524Y-17285952D01*
X17524048Y-17238333D01*
X17524048Y-17200238D01*
X17514524Y-17152619D01*
X17505000Y-17124048D01*
X17495476Y-17105000D01*
X17476429Y-17076429D01*
X17466905Y-17066905D01*
D18*
X12600000Y-17421500D02*
X12695000Y-17516500D01*
X12695000Y-17421500D02*
X12600000Y-17516500D01*
X12647500Y-17421500D02*
X12647500Y-17516500D01*
X12600000Y-17469000D02*
X12695000Y-17469000D01*
D11*
X12990714Y-17359476D02*
X13009762Y-17359476D01*
X13028809Y-17369000D01*
X13038333Y-17378524D01*
X13047857Y-17397571D01*
X13057381Y-17435667D01*
X13057381Y-17483286D01*
X13047857Y-17521381D01*
X13038333Y-17540429D01*
X13028809Y-17549952D01*
X13009762Y-17559476D01*
X12990714Y-17559476D01*
X12971667Y-17549952D01*
X12962143Y-17540429D01*
X12952619Y-17521381D01*
X12943095Y-17483286D01*
X12943095Y-17435667D01*
X12952619Y-17397571D01*
X12962143Y-17378524D01*
X12971667Y-17369000D01*
X12990714Y-17359476D01*
X13143095Y-17540429D02*
X13152619Y-17549952D01*
X13143095Y-17559476D01*
X13133571Y-17549952D01*
X13143095Y-17540429D01*
X13143095Y-17559476D01*
X13247857Y-17559476D02*
X13285952Y-17559476D01*
X13305000Y-17549952D01*
X13314524Y-17540429D01*
X13333571Y-17511857D01*
X13343095Y-17473762D01*
X13343095Y-17397571D01*
X13333571Y-17378524D01*
X13324048Y-17369000D01*
X13305000Y-17359476D01*
X13266905Y-17359476D01*
X13247857Y-17369000D01*
X13238333Y-17378524D01*
X13228809Y-17397571D01*
X13228809Y-17445190D01*
X13238333Y-17464238D01*
X13247857Y-17473762D01*
X13266905Y-17483286D01*
X13305000Y-17483286D01*
X13324048Y-17473762D01*
X13333571Y-17464238D01*
X13343095Y-17445190D01*
X13524048Y-17359476D02*
X13428809Y-17359476D01*
X13419286Y-17454714D01*
X13428809Y-17445190D01*
X13447857Y-17435667D01*
X13495476Y-17435667D01*
X13514524Y-17445190D01*
X13524048Y-17454714D01*
X13533571Y-17473762D01*
X13533571Y-17521381D01*
X13524048Y-17540429D01*
X13514524Y-17549952D01*
X13495476Y-17559476D01*
X13447857Y-17559476D01*
X13428809Y-17549952D01*
X13419286Y-17540429D01*
X13657381Y-17359476D02*
X13676428Y-17359476D01*
X13695476Y-17369000D01*
X13705000Y-17378524D01*
X13714524Y-17397571D01*
X13724048Y-17435667D01*
X13724048Y-17483286D01*
X13714524Y-17521381D01*
X13705000Y-17540429D01*
X13695476Y-17549952D01*
X13676428Y-17559476D01*
X13657381Y-17559476D01*
X13638333Y-17549952D01*
X13628809Y-17540429D01*
X13619286Y-17521381D01*
X13609762Y-17483286D01*
X13609762Y-17435667D01*
X13619286Y-17397571D01*
X13628809Y-17378524D01*
X13638333Y-17369000D01*
X13657381Y-17359476D01*
X13809762Y-17559476D02*
X13809762Y-17426143D01*
X13809762Y-17445190D02*
X13819286Y-17435667D01*
X13838333Y-17426143D01*
X13866905Y-17426143D01*
X13885952Y-17435667D01*
X13895476Y-17454714D01*
X13895476Y-17559476D01*
X13895476Y-17454714D02*
X13905000Y-17435667D01*
X13924048Y-17426143D01*
X13952619Y-17426143D01*
X13971667Y-17435667D01*
X13981190Y-17454714D01*
X13981190Y-17559476D01*
X14076428Y-17559476D02*
X14076428Y-17426143D01*
X14076428Y-17445190D02*
X14085952Y-17435667D01*
X14105000Y-17426143D01*
X14133571Y-17426143D01*
X14152619Y-17435667D01*
X14162143Y-17454714D01*
X14162143Y-17559476D01*
X14162143Y-17454714D02*
X14171667Y-17435667D01*
X14190714Y-17426143D01*
X14219286Y-17426143D01*
X14238333Y-17435667D01*
X14247857Y-17454714D01*
X14247857Y-17559476D01*
X14638333Y-17349952D02*
X14466905Y-17607095D01*
X14895476Y-17359476D02*
X14914524Y-17359476D01*
X14933571Y-17369000D01*
X14943095Y-17378524D01*
X14952619Y-17397571D01*
X14962143Y-17435667D01*
X14962143Y-17483286D01*
X14952619Y-17521381D01*
X14943095Y-17540429D01*
X14933571Y-17549952D01*
X14914524Y-17559476D01*
X14895476Y-17559476D01*
X14876428Y-17549952D01*
X14866905Y-17540429D01*
X14857381Y-17521381D01*
X14847857Y-17483286D01*
X14847857Y-17435667D01*
X14857381Y-17397571D01*
X14866905Y-17378524D01*
X14876428Y-17369000D01*
X14895476Y-17359476D01*
X15047857Y-17540429D02*
X15057381Y-17549952D01*
X15047857Y-17559476D01*
X15038333Y-17549952D01*
X15047857Y-17540429D01*
X15047857Y-17559476D01*
X15181190Y-17359476D02*
X15200238Y-17359476D01*
X15219286Y-17369000D01*
X15228809Y-17378524D01*
X15238333Y-17397571D01*
X15247857Y-17435667D01*
X15247857Y-17483286D01*
X15238333Y-17521381D01*
X15228809Y-17540429D01*
X15219286Y-17549952D01*
X15200238Y-17559476D01*
X15181190Y-17559476D01*
X15162143Y-17549952D01*
X15152619Y-17540429D01*
X15143095Y-17521381D01*
X15133571Y-17483286D01*
X15133571Y-17435667D01*
X15143095Y-17397571D01*
X15152619Y-17378524D01*
X15162143Y-17369000D01*
X15181190Y-17359476D01*
X15314524Y-17359476D02*
X15438333Y-17359476D01*
X15371667Y-17435667D01*
X15400238Y-17435667D01*
X15419286Y-17445190D01*
X15428809Y-17454714D01*
X15438333Y-17473762D01*
X15438333Y-17521381D01*
X15428809Y-17540429D01*
X15419286Y-17549952D01*
X15400238Y-17559476D01*
X15343095Y-17559476D01*
X15324048Y-17549952D01*
X15314524Y-17540429D01*
X15505000Y-17359476D02*
X15638333Y-17359476D01*
X15552619Y-17559476D01*
X15800238Y-17426143D02*
X15800238Y-17559476D01*
X15752619Y-17349952D02*
X15705000Y-17492810D01*
X15828809Y-17492810D01*
X15895476Y-17359476D02*
X15895476Y-17397571D01*
X15971667Y-17359476D02*
X15971667Y-17397571D01*
X16266905Y-17635667D02*
X16257381Y-17626143D01*
X16238333Y-17597571D01*
X16228809Y-17578524D01*
X16219286Y-17549952D01*
X16209762Y-17502333D01*
X16209762Y-17464238D01*
X16219286Y-17416619D01*
X16228809Y-17388048D01*
X16238333Y-17369000D01*
X16257381Y-17340429D01*
X16266905Y-17330905D01*
X16428809Y-17426143D02*
X16428809Y-17559476D01*
X16381190Y-17349952D02*
X16333571Y-17492810D01*
X16457381Y-17492810D01*
X16619286Y-17359476D02*
X16581190Y-17359476D01*
X16562143Y-17369000D01*
X16552619Y-17378524D01*
X16533571Y-17407095D01*
X16524048Y-17445190D01*
X16524048Y-17521381D01*
X16533571Y-17540429D01*
X16543095Y-17549952D01*
X16562143Y-17559476D01*
X16600238Y-17559476D01*
X16619286Y-17549952D01*
X16628809Y-17540429D01*
X16638333Y-17521381D01*
X16638333Y-17473762D01*
X16628809Y-17454714D01*
X16619286Y-17445190D01*
X16600238Y-17435667D01*
X16562143Y-17435667D01*
X16543095Y-17445190D01*
X16533571Y-17454714D01*
X16524048Y-17473762D01*
X16876429Y-17559476D02*
X16876429Y-17359476D01*
X16962143Y-17559476D02*
X16962143Y-17454714D01*
X16952619Y-17435667D01*
X16933571Y-17426143D01*
X16905000Y-17426143D01*
X16885952Y-17435667D01*
X16876429Y-17445190D01*
X17085952Y-17559476D02*
X17066905Y-17549952D01*
X17057381Y-17540429D01*
X17047857Y-17521381D01*
X17047857Y-17464238D01*
X17057381Y-17445190D01*
X17066905Y-17435667D01*
X17085952Y-17426143D01*
X17114524Y-17426143D01*
X17133571Y-17435667D01*
X17143095Y-17445190D01*
X17152619Y-17464238D01*
X17152619Y-17521381D01*
X17143095Y-17540429D01*
X17133571Y-17549952D01*
X17114524Y-17559476D01*
X17085952Y-17559476D01*
X17266905Y-17559476D02*
X17247857Y-17549952D01*
X17238333Y-17530905D01*
X17238333Y-17359476D01*
X17419286Y-17549952D02*
X17400238Y-17559476D01*
X17362143Y-17559476D01*
X17343095Y-17549952D01*
X17333571Y-17530905D01*
X17333571Y-17454714D01*
X17343095Y-17435667D01*
X17362143Y-17426143D01*
X17400238Y-17426143D01*
X17419286Y-17435667D01*
X17428810Y-17454714D01*
X17428810Y-17473762D01*
X17333571Y-17492810D01*
X17505000Y-17549952D02*
X17524048Y-17559476D01*
X17562143Y-17559476D01*
X17581190Y-17549952D01*
X17590714Y-17530905D01*
X17590714Y-17521381D01*
X17581190Y-17502333D01*
X17562143Y-17492810D01*
X17533571Y-17492810D01*
X17514524Y-17483286D01*
X17505000Y-17464238D01*
X17505000Y-17454714D01*
X17514524Y-17435667D01*
X17533571Y-17426143D01*
X17562143Y-17426143D01*
X17581190Y-17435667D01*
X17657381Y-17635667D02*
X17666905Y-17626143D01*
X17685952Y-17597571D01*
X17695476Y-17578524D01*
X17705000Y-17549952D01*
X17714524Y-17502333D01*
X17714524Y-17464238D01*
X17705000Y-17416619D01*
X17695476Y-17388048D01*
X17685952Y-17369000D01*
X17666905Y-17340429D01*
X17657381Y-17330905D01*
D10*
X12595000Y-17683000D02*
X12695000Y-17783000D01*
X12695000Y-17683000D02*
X12595000Y-17783000D01*
X12680356Y-17768356D02*
X12680356Y-17697644D01*
X12609644Y-17697644D01*
X12609644Y-17768356D01*
X12680356Y-17768356D01*
D11*
X13057381Y-17823476D02*
X12943095Y-17823476D01*
X13000238Y-17823476D02*
X13000238Y-17623476D01*
X12981190Y-17652048D01*
X12962143Y-17671095D01*
X12943095Y-17680619D01*
X13143095Y-17804429D02*
X13152619Y-17813952D01*
X13143095Y-17823476D01*
X13133571Y-17813952D01*
X13143095Y-17804429D01*
X13143095Y-17823476D01*
X13276428Y-17623476D02*
X13295476Y-17623476D01*
X13314524Y-17633000D01*
X13324048Y-17642524D01*
X13333571Y-17661571D01*
X13343095Y-17699667D01*
X13343095Y-17747286D01*
X13333571Y-17785381D01*
X13324048Y-17804429D01*
X13314524Y-17813952D01*
X13295476Y-17823476D01*
X13276428Y-17823476D01*
X13257381Y-17813952D01*
X13247857Y-17804429D01*
X13238333Y-17785381D01*
X13228809Y-17747286D01*
X13228809Y-17699667D01*
X13238333Y-17661571D01*
X13247857Y-17642524D01*
X13257381Y-17633000D01*
X13276428Y-17623476D01*
X13466905Y-17623476D02*
X13485952Y-17623476D01*
X13505000Y-17633000D01*
X13514524Y-17642524D01*
X13524048Y-17661571D01*
X13533571Y-17699667D01*
X13533571Y-17747286D01*
X13524048Y-17785381D01*
X13514524Y-17804429D01*
X13505000Y-17813952D01*
X13485952Y-17823476D01*
X13466905Y-17823476D01*
X13447857Y-17813952D01*
X13438333Y-17804429D01*
X13428809Y-17785381D01*
X13419286Y-17747286D01*
X13419286Y-17699667D01*
X13428809Y-17661571D01*
X13438333Y-17642524D01*
X13447857Y-17633000D01*
X13466905Y-17623476D01*
X13657381Y-17623476D02*
X13676428Y-17623476D01*
X13695476Y-17633000D01*
X13705000Y-17642524D01*
X13714524Y-17661571D01*
X13724048Y-17699667D01*
X13724048Y-17747286D01*
X13714524Y-17785381D01*
X13705000Y-17804429D01*
X13695476Y-17813952D01*
X13676428Y-17823476D01*
X13657381Y-17823476D01*
X13638333Y-17813952D01*
X13628809Y-17804429D01*
X13619286Y-17785381D01*
X13609762Y-17747286D01*
X13609762Y-17699667D01*
X13619286Y-17661571D01*
X13628809Y-17642524D01*
X13638333Y-17633000D01*
X13657381Y-17623476D01*
X13809762Y-17823476D02*
X13809762Y-17690143D01*
X13809762Y-17709190D02*
X13819286Y-17699667D01*
X13838333Y-17690143D01*
X13866905Y-17690143D01*
X13885952Y-17699667D01*
X13895476Y-17718714D01*
X13895476Y-17823476D01*
X13895476Y-17718714D02*
X13905000Y-17699667D01*
X13924048Y-17690143D01*
X13952619Y-17690143D01*
X13971667Y-17699667D01*
X13981190Y-17718714D01*
X13981190Y-17823476D01*
X14076428Y-17823476D02*
X14076428Y-17690143D01*
X14076428Y-17709190D02*
X14085952Y-17699667D01*
X14105000Y-17690143D01*
X14133571Y-17690143D01*
X14152619Y-17699667D01*
X14162143Y-17718714D01*
X14162143Y-17823476D01*
X14162143Y-17718714D02*
X14171667Y-17699667D01*
X14190714Y-17690143D01*
X14219286Y-17690143D01*
X14238333Y-17699667D01*
X14247857Y-17718714D01*
X14247857Y-17823476D01*
X14638333Y-17613952D02*
X14466905Y-17871095D01*
X14895476Y-17623476D02*
X14914524Y-17623476D01*
X14933571Y-17633000D01*
X14943095Y-17642524D01*
X14952619Y-17661571D01*
X14962143Y-17699667D01*
X14962143Y-17747286D01*
X14952619Y-17785381D01*
X14943095Y-17804429D01*
X14933571Y-17813952D01*
X14914524Y-17823476D01*
X14895476Y-17823476D01*
X14876428Y-17813952D01*
X14866905Y-17804429D01*
X14857381Y-17785381D01*
X14847857Y-17747286D01*
X14847857Y-17699667D01*
X14857381Y-17661571D01*
X14866905Y-17642524D01*
X14876428Y-17633000D01*
X14895476Y-17623476D01*
X15047857Y-17804429D02*
X15057381Y-17813952D01*
X15047857Y-17823476D01*
X15038333Y-17813952D01*
X15047857Y-17804429D01*
X15047857Y-17823476D01*
X15181190Y-17623476D02*
X15200238Y-17623476D01*
X15219286Y-17633000D01*
X15228809Y-17642524D01*
X15238333Y-17661571D01*
X15247857Y-17699667D01*
X15247857Y-17747286D01*
X15238333Y-17785381D01*
X15228809Y-17804429D01*
X15219286Y-17813952D01*
X15200238Y-17823476D01*
X15181190Y-17823476D01*
X15162143Y-17813952D01*
X15152619Y-17804429D01*
X15143095Y-17785381D01*
X15133571Y-17747286D01*
X15133571Y-17699667D01*
X15143095Y-17661571D01*
X15152619Y-17642524D01*
X15162143Y-17633000D01*
X15181190Y-17623476D01*
X15314524Y-17623476D02*
X15438333Y-17623476D01*
X15371667Y-17699667D01*
X15400238Y-17699667D01*
X15419286Y-17709190D01*
X15428809Y-17718714D01*
X15438333Y-17737762D01*
X15438333Y-17785381D01*
X15428809Y-17804429D01*
X15419286Y-17813952D01*
X15400238Y-17823476D01*
X15343095Y-17823476D01*
X15324048Y-17813952D01*
X15314524Y-17804429D01*
X15533571Y-17823476D02*
X15571667Y-17823476D01*
X15590714Y-17813952D01*
X15600238Y-17804429D01*
X15619286Y-17775857D01*
X15628809Y-17737762D01*
X15628809Y-17661571D01*
X15619286Y-17642524D01*
X15609762Y-17633000D01*
X15590714Y-17623476D01*
X15552619Y-17623476D01*
X15533571Y-17633000D01*
X15524048Y-17642524D01*
X15514524Y-17661571D01*
X15514524Y-17709190D01*
X15524048Y-17728238D01*
X15533571Y-17737762D01*
X15552619Y-17747286D01*
X15590714Y-17747286D01*
X15609762Y-17737762D01*
X15619286Y-17728238D01*
X15628809Y-17709190D01*
X15800238Y-17690143D02*
X15800238Y-17823476D01*
X15752619Y-17613952D02*
X15705000Y-17756810D01*
X15828809Y-17756810D01*
X15895476Y-17623476D02*
X15895476Y-17661571D01*
X15971667Y-17623476D02*
X15971667Y-17661571D01*
X16266905Y-17899667D02*
X16257381Y-17890143D01*
X16238333Y-17861571D01*
X16228809Y-17842524D01*
X16219286Y-17813952D01*
X16209762Y-17766333D01*
X16209762Y-17728238D01*
X16219286Y-17680619D01*
X16228809Y-17652048D01*
X16238333Y-17633000D01*
X16257381Y-17604429D01*
X16266905Y-17594905D01*
X16324048Y-17623476D02*
X16457381Y-17623476D01*
X16371667Y-17823476D01*
X16571667Y-17623476D02*
X16590714Y-17623476D01*
X16609762Y-17633000D01*
X16619286Y-17642524D01*
X16628809Y-17661571D01*
X16638333Y-17699667D01*
X16638333Y-17747286D01*
X16628809Y-17785381D01*
X16619286Y-17804429D01*
X16609762Y-17813952D01*
X16590714Y-17823476D01*
X16571667Y-17823476D01*
X16552619Y-17813952D01*
X16543095Y-17804429D01*
X16533571Y-17785381D01*
X16524048Y-17747286D01*
X16524048Y-17699667D01*
X16533571Y-17661571D01*
X16543095Y-17642524D01*
X16552619Y-17633000D01*
X16571667Y-17623476D01*
X16876429Y-17823476D02*
X16876429Y-17623476D01*
X16962143Y-17823476D02*
X16962143Y-17718714D01*
X16952619Y-17699667D01*
X16933571Y-17690143D01*
X16905000Y-17690143D01*
X16885952Y-17699667D01*
X16876429Y-17709190D01*
X17085952Y-17823476D02*
X17066905Y-17813952D01*
X17057381Y-17804429D01*
X17047857Y-17785381D01*
X17047857Y-17728238D01*
X17057381Y-17709190D01*
X17066905Y-17699667D01*
X17085952Y-17690143D01*
X17114524Y-17690143D01*
X17133571Y-17699667D01*
X17143095Y-17709190D01*
X17152619Y-17728238D01*
X17152619Y-17785381D01*
X17143095Y-17804429D01*
X17133571Y-17813952D01*
X17114524Y-17823476D01*
X17085952Y-17823476D01*
X17266905Y-17823476D02*
X17247857Y-17813952D01*
X17238333Y-17794905D01*
X17238333Y-17623476D01*
X17419286Y-17813952D02*
X17400238Y-17823476D01*
X17362143Y-17823476D01*
X17343095Y-17813952D01*
X17333571Y-17794905D01*
X17333571Y-17718714D01*
X17343095Y-17699667D01*
X17362143Y-17690143D01*
X17400238Y-17690143D01*
X17419286Y-17699667D01*
X17428810Y-17718714D01*
X17428810Y-17737762D01*
X17333571Y-17756810D01*
X17505000Y-17813952D02*
X17524048Y-17823476D01*
X17562143Y-17823476D01*
X17581190Y-17813952D01*
X17590714Y-17794905D01*
X17590714Y-17785381D01*
X17581190Y-17766333D01*
X17562143Y-17756810D01*
X17533571Y-17756810D01*
X17514524Y-17747286D01*
X17505000Y-17728238D01*
X17505000Y-17718714D01*
X17514524Y-17699667D01*
X17533571Y-17690143D01*
X17562143Y-17690143D01*
X17581190Y-17699667D01*
X17657381Y-17899667D02*
X17666905Y-17890143D01*
X17685952Y-17861571D01*
X17695476Y-17842524D01*
X17705000Y-17813952D01*
X17714524Y-17766333D01*
X17714524Y-17728238D01*
X17705000Y-17680619D01*
X17695476Y-17652048D01*
X17685952Y-17633000D01*
X17666905Y-17604429D01*
X17657381Y-17594905D01*
D19*
X12591000Y-17945000D02*
X12695000Y-18049000D01*
X12695000Y-17945000D02*
X12591000Y-18049000D01*
X12643000Y-18049000D02*
X12695000Y-17997000D01*
X12643000Y-17945000D01*
X12591000Y-17997000D01*
X12643000Y-18049000D01*
D11*
X13057381Y-18087476D02*
X12943095Y-18087476D01*
X13000238Y-18087476D02*
X13000238Y-17887476D01*
X12981190Y-17916048D01*
X12962143Y-17935095D01*
X12943095Y-17944619D01*
X13143095Y-18068429D02*
X13152619Y-18077952D01*
X13143095Y-18087476D01*
X13133571Y-18077952D01*
X13143095Y-18068429D01*
X13143095Y-18087476D01*
X13276428Y-17887476D02*
X13295476Y-17887476D01*
X13314524Y-17897000D01*
X13324048Y-17906524D01*
X13333571Y-17925571D01*
X13343095Y-17963667D01*
X13343095Y-18011286D01*
X13333571Y-18049381D01*
X13324048Y-18068429D01*
X13314524Y-18077952D01*
X13295476Y-18087476D01*
X13276428Y-18087476D01*
X13257381Y-18077952D01*
X13247857Y-18068429D01*
X13238333Y-18049381D01*
X13228809Y-18011286D01*
X13228809Y-17963667D01*
X13238333Y-17925571D01*
X13247857Y-17906524D01*
X13257381Y-17897000D01*
X13276428Y-17887476D01*
X13514524Y-17954143D02*
X13514524Y-18087476D01*
X13466905Y-17877952D02*
X13419286Y-18020810D01*
X13543095Y-18020810D01*
X13657381Y-17887476D02*
X13676428Y-17887476D01*
X13695476Y-17897000D01*
X13705000Y-17906524D01*
X13714524Y-17925571D01*
X13724048Y-17963667D01*
X13724048Y-18011286D01*
X13714524Y-18049381D01*
X13705000Y-18068429D01*
X13695476Y-18077952D01*
X13676428Y-18087476D01*
X13657381Y-18087476D01*
X13638333Y-18077952D01*
X13628809Y-18068429D01*
X13619286Y-18049381D01*
X13609762Y-18011286D01*
X13609762Y-17963667D01*
X13619286Y-17925571D01*
X13628809Y-17906524D01*
X13638333Y-17897000D01*
X13657381Y-17887476D01*
X13809762Y-18087476D02*
X13809762Y-17954143D01*
X13809762Y-17973190D02*
X13819286Y-17963667D01*
X13838333Y-17954143D01*
X13866905Y-17954143D01*
X13885952Y-17963667D01*
X13895476Y-17982714D01*
X13895476Y-18087476D01*
X13895476Y-17982714D02*
X13905000Y-17963667D01*
X13924048Y-17954143D01*
X13952619Y-17954143D01*
X13971667Y-17963667D01*
X13981190Y-17982714D01*
X13981190Y-18087476D01*
X14076428Y-18087476D02*
X14076428Y-17954143D01*
X14076428Y-17973190D02*
X14085952Y-17963667D01*
X14105000Y-17954143D01*
X14133571Y-17954143D01*
X14152619Y-17963667D01*
X14162143Y-17982714D01*
X14162143Y-18087476D01*
X14162143Y-17982714D02*
X14171667Y-17963667D01*
X14190714Y-17954143D01*
X14219286Y-17954143D01*
X14238333Y-17963667D01*
X14247857Y-17982714D01*
X14247857Y-18087476D01*
X14638333Y-17877952D02*
X14466905Y-18135095D01*
X14895476Y-17887476D02*
X14914524Y-17887476D01*
X14933571Y-17897000D01*
X14943095Y-17906524D01*
X14952619Y-17925571D01*
X14962143Y-17963667D01*
X14962143Y-18011286D01*
X14952619Y-18049381D01*
X14943095Y-18068429D01*
X14933571Y-18077952D01*
X14914524Y-18087476D01*
X14895476Y-18087476D01*
X14876428Y-18077952D01*
X14866905Y-18068429D01*
X14857381Y-18049381D01*
X14847857Y-18011286D01*
X14847857Y-17963667D01*
X14857381Y-17925571D01*
X14866905Y-17906524D01*
X14876428Y-17897000D01*
X14895476Y-17887476D01*
X15047857Y-18068429D02*
X15057381Y-18077952D01*
X15047857Y-18087476D01*
X15038333Y-18077952D01*
X15047857Y-18068429D01*
X15047857Y-18087476D01*
X15181190Y-17887476D02*
X15200238Y-17887476D01*
X15219286Y-17897000D01*
X15228809Y-17906524D01*
X15238333Y-17925571D01*
X15247857Y-17963667D01*
X15247857Y-18011286D01*
X15238333Y-18049381D01*
X15228809Y-18068429D01*
X15219286Y-18077952D01*
X15200238Y-18087476D01*
X15181190Y-18087476D01*
X15162143Y-18077952D01*
X15152619Y-18068429D01*
X15143095Y-18049381D01*
X15133571Y-18011286D01*
X15133571Y-17963667D01*
X15143095Y-17925571D01*
X15152619Y-17906524D01*
X15162143Y-17897000D01*
X15181190Y-17887476D01*
X15419286Y-17954143D02*
X15419286Y-18087476D01*
X15371667Y-17877952D02*
X15324048Y-18020810D01*
X15447857Y-18020810D01*
X15562143Y-17887476D02*
X15581190Y-17887476D01*
X15600238Y-17897000D01*
X15609762Y-17906524D01*
X15619286Y-17925571D01*
X15628809Y-17963667D01*
X15628809Y-18011286D01*
X15619286Y-18049381D01*
X15609762Y-18068429D01*
X15600238Y-18077952D01*
X15581190Y-18087476D01*
X15562143Y-18087476D01*
X15543095Y-18077952D01*
X15533571Y-18068429D01*
X15524048Y-18049381D01*
X15514524Y-18011286D01*
X15514524Y-17963667D01*
X15524048Y-17925571D01*
X15533571Y-17906524D01*
X15543095Y-17897000D01*
X15562143Y-17887476D01*
X15724048Y-18087476D02*
X15762143Y-18087476D01*
X15781190Y-18077952D01*
X15790714Y-18068429D01*
X15809762Y-18039857D01*
X15819286Y-18001762D01*
X15819286Y-17925571D01*
X15809762Y-17906524D01*
X15800238Y-17897000D01*
X15781190Y-17887476D01*
X15743095Y-17887476D01*
X15724048Y-17897000D01*
X15714524Y-17906524D01*
X15705000Y-17925571D01*
X15705000Y-17973190D01*
X15714524Y-17992238D01*
X15724048Y-18001762D01*
X15743095Y-18011286D01*
X15781190Y-18011286D01*
X15800238Y-18001762D01*
X15809762Y-17992238D01*
X15819286Y-17973190D01*
X15895476Y-17887476D02*
X15895476Y-17925571D01*
X15971667Y-17887476D02*
X15971667Y-17925571D01*
X16266905Y-18163667D02*
X16257381Y-18154143D01*
X16238333Y-18125571D01*
X16228809Y-18106524D01*
X16219286Y-18077952D01*
X16209762Y-18030333D01*
X16209762Y-17992238D01*
X16219286Y-17944619D01*
X16228809Y-17916048D01*
X16238333Y-17897000D01*
X16257381Y-17868429D01*
X16266905Y-17858905D01*
X16324048Y-17887476D02*
X16447857Y-17887476D01*
X16381190Y-17963667D01*
X16409762Y-17963667D01*
X16428809Y-17973190D01*
X16438333Y-17982714D01*
X16447857Y-18001762D01*
X16447857Y-18049381D01*
X16438333Y-18068429D01*
X16428809Y-18077952D01*
X16409762Y-18087476D01*
X16352619Y-18087476D01*
X16333571Y-18077952D01*
X16324048Y-18068429D01*
X16562143Y-17973190D02*
X16543095Y-17963667D01*
X16533571Y-17954143D01*
X16524048Y-17935095D01*
X16524048Y-17925571D01*
X16533571Y-17906524D01*
X16543095Y-17897000D01*
X16562143Y-17887476D01*
X16600238Y-17887476D01*
X16619286Y-17897000D01*
X16628809Y-17906524D01*
X16638333Y-17925571D01*
X16638333Y-17935095D01*
X16628809Y-17954143D01*
X16619286Y-17963667D01*
X16600238Y-17973190D01*
X16562143Y-17973190D01*
X16543095Y-17982714D01*
X16533571Y-17992238D01*
X16524048Y-18011286D01*
X16524048Y-18049381D01*
X16533571Y-18068429D01*
X16543095Y-18077952D01*
X16562143Y-18087476D01*
X16600238Y-18087476D01*
X16619286Y-18077952D01*
X16628809Y-18068429D01*
X16638333Y-18049381D01*
X16638333Y-18011286D01*
X16628809Y-17992238D01*
X16619286Y-17982714D01*
X16600238Y-17973190D01*
X16876429Y-18087476D02*
X16876429Y-17887476D01*
X16962143Y-18087476D02*
X16962143Y-17982714D01*
X16952619Y-17963667D01*
X16933571Y-17954143D01*
X16905000Y-17954143D01*
X16885952Y-17963667D01*
X16876429Y-17973190D01*
X17085952Y-18087476D02*
X17066905Y-18077952D01*
X17057381Y-18068429D01*
X17047857Y-18049381D01*
X17047857Y-17992238D01*
X17057381Y-17973190D01*
X17066905Y-17963667D01*
X17085952Y-17954143D01*
X17114524Y-17954143D01*
X17133571Y-17963667D01*
X17143095Y-17973190D01*
X17152619Y-17992238D01*
X17152619Y-18049381D01*
X17143095Y-18068429D01*
X17133571Y-18077952D01*
X17114524Y-18087476D01*
X17085952Y-18087476D01*
X17266905Y-18087476D02*
X17247857Y-18077952D01*
X17238333Y-18058905D01*
X17238333Y-17887476D01*
X17419286Y-18077952D02*
X17400238Y-18087476D01*
X17362143Y-18087476D01*
X17343095Y-18077952D01*
X17333571Y-18058905D01*
X17333571Y-17982714D01*
X17343095Y-17963667D01*
X17362143Y-17954143D01*
X17400238Y-17954143D01*
X17419286Y-17963667D01*
X17428810Y-17982714D01*
X17428810Y-18001762D01*
X17333571Y-18020810D01*
X17505000Y-18077952D02*
X17524048Y-18087476D01*
X17562143Y-18087476D01*
X17581190Y-18077952D01*
X17590714Y-18058905D01*
X17590714Y-18049381D01*
X17581190Y-18030333D01*
X17562143Y-18020810D01*
X17533571Y-18020810D01*
X17514524Y-18011286D01*
X17505000Y-17992238D01*
X17505000Y-17982714D01*
X17514524Y-17963667D01*
X17533571Y-17954143D01*
X17562143Y-17954143D01*
X17581190Y-17963667D01*
X17657381Y-18163667D02*
X17666905Y-18154143D01*
X17685952Y-18125571D01*
X17695476Y-18106524D01*
X17705000Y-18077952D01*
X17714524Y-18030333D01*
X17714524Y-17992238D01*
X17705000Y-17944619D01*
X17695476Y-17916048D01*
X17685952Y-17897000D01*
X17666905Y-17868429D01*
X17657381Y-17858905D01*
D20*
X12635000Y-18201000D02*
X12635000Y-18321000D01*
X12575000Y-18261000D02*
X12695000Y-18261000D01*
X12695000Y-18261000D02*
G75*
G03*
X12695000Y-18261000I-60000J0D01*
G01*
D11*
X13057381Y-18351476D02*
X12943095Y-18351476D01*
X13000238Y-18351476D02*
X13000238Y-18151476D01*
X12981190Y-18180048D01*
X12962143Y-18199095D01*
X12943095Y-18208619D01*
X13143095Y-18332429D02*
X13152619Y-18341952D01*
X13143095Y-18351476D01*
X13133571Y-18341952D01*
X13143095Y-18332429D01*
X13143095Y-18351476D01*
X13228809Y-18170524D02*
X13238333Y-18161000D01*
X13257381Y-18151476D01*
X13305000Y-18151476D01*
X13324048Y-18161000D01*
X13333571Y-18170524D01*
X13343095Y-18189571D01*
X13343095Y-18208619D01*
X13333571Y-18237190D01*
X13219286Y-18351476D01*
X13343095Y-18351476D01*
X13466905Y-18151476D02*
X13485952Y-18151476D01*
X13505000Y-18161000D01*
X13514524Y-18170524D01*
X13524048Y-18189571D01*
X13533571Y-18227667D01*
X13533571Y-18275286D01*
X13524048Y-18313381D01*
X13514524Y-18332429D01*
X13505000Y-18341952D01*
X13485952Y-18351476D01*
X13466905Y-18351476D01*
X13447857Y-18341952D01*
X13438333Y-18332429D01*
X13428809Y-18313381D01*
X13419286Y-18275286D01*
X13419286Y-18227667D01*
X13428809Y-18189571D01*
X13438333Y-18170524D01*
X13447857Y-18161000D01*
X13466905Y-18151476D01*
X13657381Y-18151476D02*
X13676428Y-18151476D01*
X13695476Y-18161000D01*
X13705000Y-18170524D01*
X13714524Y-18189571D01*
X13724048Y-18227667D01*
X13724048Y-18275286D01*
X13714524Y-18313381D01*
X13705000Y-18332429D01*
X13695476Y-18341952D01*
X13676428Y-18351476D01*
X13657381Y-18351476D01*
X13638333Y-18341952D01*
X13628809Y-18332429D01*
X13619286Y-18313381D01*
X13609762Y-18275286D01*
X13609762Y-18227667D01*
X13619286Y-18189571D01*
X13628809Y-18170524D01*
X13638333Y-18161000D01*
X13657381Y-18151476D01*
X13809762Y-18351476D02*
X13809762Y-18218143D01*
X13809762Y-18237190D02*
X13819286Y-18227667D01*
X13838333Y-18218143D01*
X13866905Y-18218143D01*
X13885952Y-18227667D01*
X13895476Y-18246714D01*
X13895476Y-18351476D01*
X13895476Y-18246714D02*
X13905000Y-18227667D01*
X13924048Y-18218143D01*
X13952619Y-18218143D01*
X13971667Y-18227667D01*
X13981190Y-18246714D01*
X13981190Y-18351476D01*
X14076428Y-18351476D02*
X14076428Y-18218143D01*
X14076428Y-18237190D02*
X14085952Y-18227667D01*
X14105000Y-18218143D01*
X14133571Y-18218143D01*
X14152619Y-18227667D01*
X14162143Y-18246714D01*
X14162143Y-18351476D01*
X14162143Y-18246714D02*
X14171667Y-18227667D01*
X14190714Y-18218143D01*
X14219286Y-18218143D01*
X14238333Y-18227667D01*
X14247857Y-18246714D01*
X14247857Y-18351476D01*
X14638333Y-18141952D02*
X14466905Y-18399095D01*
X14895476Y-18151476D02*
X14914524Y-18151476D01*
X14933571Y-18161000D01*
X14943095Y-18170524D01*
X14952619Y-18189571D01*
X14962143Y-18227667D01*
X14962143Y-18275286D01*
X14952619Y-18313381D01*
X14943095Y-18332429D01*
X14933571Y-18341952D01*
X14914524Y-18351476D01*
X14895476Y-18351476D01*
X14876428Y-18341952D01*
X14866905Y-18332429D01*
X14857381Y-18313381D01*
X14847857Y-18275286D01*
X14847857Y-18227667D01*
X14857381Y-18189571D01*
X14866905Y-18170524D01*
X14876428Y-18161000D01*
X14895476Y-18151476D01*
X15047857Y-18332429D02*
X15057381Y-18341952D01*
X15047857Y-18351476D01*
X15038333Y-18341952D01*
X15047857Y-18332429D01*
X15047857Y-18351476D01*
X15181190Y-18151476D02*
X15200238Y-18151476D01*
X15219286Y-18161000D01*
X15228809Y-18170524D01*
X15238333Y-18189571D01*
X15247857Y-18227667D01*
X15247857Y-18275286D01*
X15238333Y-18313381D01*
X15228809Y-18332429D01*
X15219286Y-18341952D01*
X15200238Y-18351476D01*
X15181190Y-18351476D01*
X15162143Y-18341952D01*
X15152619Y-18332429D01*
X15143095Y-18313381D01*
X15133571Y-18275286D01*
X15133571Y-18227667D01*
X15143095Y-18189571D01*
X15152619Y-18170524D01*
X15162143Y-18161000D01*
X15181190Y-18151476D01*
X15419286Y-18218143D02*
X15419286Y-18351476D01*
X15371667Y-18141952D02*
X15324048Y-18284810D01*
X15447857Y-18284810D01*
X15505000Y-18151476D02*
X15638333Y-18151476D01*
X15552619Y-18351476D01*
X15705000Y-18170524D02*
X15714524Y-18161000D01*
X15733571Y-18151476D01*
X15781190Y-18151476D01*
X15800238Y-18161000D01*
X15809762Y-18170524D01*
X15819286Y-18189571D01*
X15819286Y-18208619D01*
X15809762Y-18237190D01*
X15695476Y-18351476D01*
X15819286Y-18351476D01*
X15895476Y-18151476D02*
X15895476Y-18189571D01*
X15971667Y-18151476D02*
X15971667Y-18189571D01*
X16266905Y-18427667D02*
X16257381Y-18418143D01*
X16238333Y-18389571D01*
X16228809Y-18370524D01*
X16219286Y-18341952D01*
X16209762Y-18294333D01*
X16209762Y-18256238D01*
X16219286Y-18208619D01*
X16228809Y-18180048D01*
X16238333Y-18161000D01*
X16257381Y-18132429D01*
X16266905Y-18122905D01*
X16447857Y-18351476D02*
X16333571Y-18351476D01*
X16390714Y-18351476D02*
X16390714Y-18151476D01*
X16371667Y-18180048D01*
X16352619Y-18199095D01*
X16333571Y-18208619D01*
X16619286Y-18151476D02*
X16581190Y-18151476D01*
X16562143Y-18161000D01*
X16552619Y-18170524D01*
X16533571Y-18199095D01*
X16524048Y-18237190D01*
X16524048Y-18313381D01*
X16533571Y-18332429D01*
X16543095Y-18341952D01*
X16562143Y-18351476D01*
X16600238Y-18351476D01*
X16619286Y-18341952D01*
X16628809Y-18332429D01*
X16638333Y-18313381D01*
X16638333Y-18265762D01*
X16628809Y-18246714D01*
X16619286Y-18237190D01*
X16600238Y-18227667D01*
X16562143Y-18227667D01*
X16543095Y-18237190D01*
X16533571Y-18246714D01*
X16524048Y-18265762D01*
X16876429Y-18351476D02*
X16876429Y-18151476D01*
X16962143Y-18351476D02*
X16962143Y-18246714D01*
X16952619Y-18227667D01*
X16933571Y-18218143D01*
X16905000Y-18218143D01*
X16885952Y-18227667D01*
X16876429Y-18237190D01*
X17085952Y-18351476D02*
X17066905Y-18341952D01*
X17057381Y-18332429D01*
X17047857Y-18313381D01*
X17047857Y-18256238D01*
X17057381Y-18237190D01*
X17066905Y-18227667D01*
X17085952Y-18218143D01*
X17114524Y-18218143D01*
X17133571Y-18227667D01*
X17143095Y-18237190D01*
X17152619Y-18256238D01*
X17152619Y-18313381D01*
X17143095Y-18332429D01*
X17133571Y-18341952D01*
X17114524Y-18351476D01*
X17085952Y-18351476D01*
X17266905Y-18351476D02*
X17247857Y-18341952D01*
X17238333Y-18322905D01*
X17238333Y-18151476D01*
X17419286Y-18341952D02*
X17400238Y-18351476D01*
X17362143Y-18351476D01*
X17343095Y-18341952D01*
X17333571Y-18322905D01*
X17333571Y-18246714D01*
X17343095Y-18227667D01*
X17362143Y-18218143D01*
X17400238Y-18218143D01*
X17419286Y-18227667D01*
X17428810Y-18246714D01*
X17428810Y-18265762D01*
X17333571Y-18284810D01*
X17505000Y-18341952D02*
X17524048Y-18351476D01*
X17562143Y-18351476D01*
X17581190Y-18341952D01*
X17590714Y-18322905D01*
X17590714Y-18313381D01*
X17581190Y-18294333D01*
X17562143Y-18284810D01*
X17533571Y-18284810D01*
X17514524Y-18275286D01*
X17505000Y-18256238D01*
X17505000Y-18246714D01*
X17514524Y-18227667D01*
X17533571Y-18218143D01*
X17562143Y-18218143D01*
X17581190Y-18227667D01*
X17657381Y-18427667D02*
X17666905Y-18418143D01*
X17685952Y-18389571D01*
X17695476Y-18370524D01*
X17705000Y-18341952D01*
X17714524Y-18294333D01*
X17714524Y-18256238D01*
X17705000Y-18208619D01*
X17695476Y-18180048D01*
X17685952Y-18161000D01*
X17666905Y-18132429D01*
X17657381Y-18122905D01*
D21*
X12674498Y-18574498D02*
X12674498Y-18475502D01*
X12575502Y-18475502D01*
X12575502Y-18574498D01*
X12674498Y-18574498D01*
X12695000Y-18525000D02*
G75*
G03*
X12695000Y-18525000I-70000J0D01*
G01*
D11*
X13057381Y-18615476D02*
X12943095Y-18615476D01*
X13000238Y-18615476D02*
X13000238Y-18415476D01*
X12981190Y-18444048D01*
X12962143Y-18463095D01*
X12943095Y-18472619D01*
X13143095Y-18596429D02*
X13152619Y-18605952D01*
X13143095Y-18615476D01*
X13133571Y-18605952D01*
X13143095Y-18596429D01*
X13143095Y-18615476D01*
X13324048Y-18482143D02*
X13324048Y-18615476D01*
X13276428Y-18405952D02*
X13228809Y-18548810D01*
X13352619Y-18548810D01*
X13466905Y-18415476D02*
X13485952Y-18415476D01*
X13505000Y-18425000D01*
X13514524Y-18434524D01*
X13524048Y-18453571D01*
X13533571Y-18491667D01*
X13533571Y-18539286D01*
X13524048Y-18577381D01*
X13514524Y-18596429D01*
X13505000Y-18605952D01*
X13485952Y-18615476D01*
X13466905Y-18615476D01*
X13447857Y-18605952D01*
X13438333Y-18596429D01*
X13428809Y-18577381D01*
X13419286Y-18539286D01*
X13419286Y-18491667D01*
X13428809Y-18453571D01*
X13438333Y-18434524D01*
X13447857Y-18425000D01*
X13466905Y-18415476D01*
X13657381Y-18415476D02*
X13676428Y-18415476D01*
X13695476Y-18425000D01*
X13705000Y-18434524D01*
X13714524Y-18453571D01*
X13724048Y-18491667D01*
X13724048Y-18539286D01*
X13714524Y-18577381D01*
X13705000Y-18596429D01*
X13695476Y-18605952D01*
X13676428Y-18615476D01*
X13657381Y-18615476D01*
X13638333Y-18605952D01*
X13628809Y-18596429D01*
X13619286Y-18577381D01*
X13609762Y-18539286D01*
X13609762Y-18491667D01*
X13619286Y-18453571D01*
X13628809Y-18434524D01*
X13638333Y-18425000D01*
X13657381Y-18415476D01*
X13809762Y-18615476D02*
X13809762Y-18482143D01*
X13809762Y-18501190D02*
X13819286Y-18491667D01*
X13838333Y-18482143D01*
X13866905Y-18482143D01*
X13885952Y-18491667D01*
X13895476Y-18510714D01*
X13895476Y-18615476D01*
X13895476Y-18510714D02*
X13905000Y-18491667D01*
X13924048Y-18482143D01*
X13952619Y-18482143D01*
X13971667Y-18491667D01*
X13981190Y-18510714D01*
X13981190Y-18615476D01*
X14076428Y-18615476D02*
X14076428Y-18482143D01*
X14076428Y-18501190D02*
X14085952Y-18491667D01*
X14105000Y-18482143D01*
X14133571Y-18482143D01*
X14152619Y-18491667D01*
X14162143Y-18510714D01*
X14162143Y-18615476D01*
X14162143Y-18510714D02*
X14171667Y-18491667D01*
X14190714Y-18482143D01*
X14219286Y-18482143D01*
X14238333Y-18491667D01*
X14247857Y-18510714D01*
X14247857Y-18615476D01*
X14638333Y-18405952D02*
X14466905Y-18663095D01*
X14895476Y-18415476D02*
X14914524Y-18415476D01*
X14933571Y-18425000D01*
X14943095Y-18434524D01*
X14952619Y-18453571D01*
X14962143Y-18491667D01*
X14962143Y-18539286D01*
X14952619Y-18577381D01*
X14943095Y-18596429D01*
X14933571Y-18605952D01*
X14914524Y-18615476D01*
X14895476Y-18615476D01*
X14876428Y-18605952D01*
X14866905Y-18596429D01*
X14857381Y-18577381D01*
X14847857Y-18539286D01*
X14847857Y-18491667D01*
X14857381Y-18453571D01*
X14866905Y-18434524D01*
X14876428Y-18425000D01*
X14895476Y-18415476D01*
X15047857Y-18596429D02*
X15057381Y-18605952D01*
X15047857Y-18615476D01*
X15038333Y-18605952D01*
X15047857Y-18596429D01*
X15047857Y-18615476D01*
X15181190Y-18415476D02*
X15200238Y-18415476D01*
X15219286Y-18425000D01*
X15228809Y-18434524D01*
X15238333Y-18453571D01*
X15247857Y-18491667D01*
X15247857Y-18539286D01*
X15238333Y-18577381D01*
X15228809Y-18596429D01*
X15219286Y-18605952D01*
X15200238Y-18615476D01*
X15181190Y-18615476D01*
X15162143Y-18605952D01*
X15152619Y-18596429D01*
X15143095Y-18577381D01*
X15133571Y-18539286D01*
X15133571Y-18491667D01*
X15143095Y-18453571D01*
X15152619Y-18434524D01*
X15162143Y-18425000D01*
X15181190Y-18415476D01*
X15428809Y-18415476D02*
X15333571Y-18415476D01*
X15324048Y-18510714D01*
X15333571Y-18501190D01*
X15352619Y-18491667D01*
X15400238Y-18491667D01*
X15419286Y-18501190D01*
X15428809Y-18510714D01*
X15438333Y-18529762D01*
X15438333Y-18577381D01*
X15428809Y-18596429D01*
X15419286Y-18605952D01*
X15400238Y-18615476D01*
X15352619Y-18615476D01*
X15333571Y-18605952D01*
X15324048Y-18596429D01*
X15619286Y-18415476D02*
X15524048Y-18415476D01*
X15514524Y-18510714D01*
X15524048Y-18501190D01*
X15543095Y-18491667D01*
X15590714Y-18491667D01*
X15609762Y-18501190D01*
X15619286Y-18510714D01*
X15628809Y-18529762D01*
X15628809Y-18577381D01*
X15619286Y-18596429D01*
X15609762Y-18605952D01*
X15590714Y-18615476D01*
X15543095Y-18615476D01*
X15524048Y-18605952D01*
X15514524Y-18596429D01*
X15819286Y-18615476D02*
X15705000Y-18615476D01*
X15762143Y-18615476D02*
X15762143Y-18415476D01*
X15743095Y-18444048D01*
X15724048Y-18463095D01*
X15705000Y-18472619D01*
X15895476Y-18415476D02*
X15895476Y-18453571D01*
X15971667Y-18415476D02*
X15971667Y-18453571D01*
X16266905Y-18691667D02*
X16257381Y-18682143D01*
X16238333Y-18653571D01*
X16228809Y-18634524D01*
X16219286Y-18605952D01*
X16209762Y-18558333D01*
X16209762Y-18520238D01*
X16219286Y-18472619D01*
X16228809Y-18444048D01*
X16238333Y-18425000D01*
X16257381Y-18396429D01*
X16266905Y-18386905D01*
X16447857Y-18615476D02*
X16333571Y-18615476D01*
X16390714Y-18615476D02*
X16390714Y-18415476D01*
X16371667Y-18444048D01*
X16352619Y-18463095D01*
X16333571Y-18472619D01*
X16571667Y-18415476D02*
X16590714Y-18415476D01*
X16609762Y-18425000D01*
X16619286Y-18434524D01*
X16628809Y-18453571D01*
X16638333Y-18491667D01*
X16638333Y-18539286D01*
X16628809Y-18577381D01*
X16619286Y-18596429D01*
X16609762Y-18605952D01*
X16590714Y-18615476D01*
X16571667Y-18615476D01*
X16552619Y-18605952D01*
X16543095Y-18596429D01*
X16533571Y-18577381D01*
X16524048Y-18539286D01*
X16524048Y-18491667D01*
X16533571Y-18453571D01*
X16543095Y-18434524D01*
X16552619Y-18425000D01*
X16571667Y-18415476D01*
X16876429Y-18615476D02*
X16876429Y-18415476D01*
X16962143Y-18615476D02*
X16962143Y-18510714D01*
X16952619Y-18491667D01*
X16933571Y-18482143D01*
X16905000Y-18482143D01*
X16885952Y-18491667D01*
X16876429Y-18501190D01*
X17085952Y-18615476D02*
X17066905Y-18605952D01*
X17057381Y-18596429D01*
X17047857Y-18577381D01*
X17047857Y-18520238D01*
X17057381Y-18501190D01*
X17066905Y-18491667D01*
X17085952Y-18482143D01*
X17114524Y-18482143D01*
X17133571Y-18491667D01*
X17143095Y-18501190D01*
X17152619Y-18520238D01*
X17152619Y-18577381D01*
X17143095Y-18596429D01*
X17133571Y-18605952D01*
X17114524Y-18615476D01*
X17085952Y-18615476D01*
X17266905Y-18615476D02*
X17247857Y-18605952D01*
X17238333Y-18586905D01*
X17238333Y-18415476D01*
X17419286Y-18605952D02*
X17400238Y-18615476D01*
X17362143Y-18615476D01*
X17343095Y-18605952D01*
X17333571Y-18586905D01*
X17333571Y-18510714D01*
X17343095Y-18491667D01*
X17362143Y-18482143D01*
X17400238Y-18482143D01*
X17419286Y-18491667D01*
X17428810Y-18510714D01*
X17428810Y-18529762D01*
X17333571Y-18548810D01*
X17505000Y-18605952D02*
X17524048Y-18615476D01*
X17562143Y-18615476D01*
X17581190Y-18605952D01*
X17590714Y-18586905D01*
X17590714Y-18577381D01*
X17581190Y-18558333D01*
X17562143Y-18548810D01*
X17533571Y-18548810D01*
X17514524Y-18539286D01*
X17505000Y-18520238D01*
X17505000Y-18510714D01*
X17514524Y-18491667D01*
X17533571Y-18482143D01*
X17562143Y-18482143D01*
X17581190Y-18491667D01*
X17657381Y-18691667D02*
X17666905Y-18682143D01*
X17685952Y-18653571D01*
X17695476Y-18634524D01*
X17705000Y-18605952D01*
X17714524Y-18558333D01*
X17714524Y-18520238D01*
X17705000Y-18472619D01*
X17695476Y-18444048D01*
X17685952Y-18425000D01*
X17666905Y-18396429D01*
X17657381Y-18386905D01*
M02*
