M48
; DRILL file {KiCad (6.0.7)} date Sun Nov 13 23:25:28 2022
; FORMAT={-:-/ absolute / metric / decimal}
; #@! TF.CreationDate,2022-11-13T23:25:28+01:00
; #@! TF.GenerationSoftware,Kicad,Pcbnew,(6.0.7)
; #@! TF.FileFunction,Plated,1,2,PTH
FMAT,2
METRIC
; #@! TA.AperFunction,Plated,PTH,ViaDrill
T1C0.400
; #@! TA.AperFunction,Plated,PTH,ViaDrill
T2C0.600
; #@! TA.AperFunction,Plated,PTH,ComponentDrill
T3C0.750
; #@! TA.AperFunction,Plated,PTH,ComponentDrill
T4C0.770
; #@! TA.AperFunction,Plated,PTH,ComponentDrill
T5C0.800
; #@! TA.AperFunction,Plated,PTH,ComponentDrill
T6C0.900
; #@! TA.AperFunction,Plated,PTH,ComponentDrill
T7C0.950
; #@! TA.AperFunction,Plated,PTH,ComponentDrill
T8C1.000
; #@! TA.AperFunction,Plated,PTH,ComponentDrill
T9C1.040
; #@! TA.AperFunction,Plated,PTH,ComponentDrill
T10C1.200
; #@! TA.AperFunction,Plated,PTH,ComponentDrill
T11C1.400
%
G90
G05
T1
X129.539Y-105.919
X140.462Y-116.332
X141.732Y-109.22
X151.384Y-117.856
X151.892Y-97.282
X151.918Y-88.066
X163.454Y-109.417
X164.871Y-116.144
X180.086Y-97.282
X181.356Y-105.918
X182.372Y-99.822
X183.997Y-119.929
X187.706Y-127.508
X192.786Y-103.124
X195.83Y-102.776
X197.866Y-94.996
X199.226Y-102.344
X199.644Y-125.222
X200.152Y-110.744
X204.919Y-118.926
X205.232Y-114.554
X205.752Y-130.194
X206.502Y-105.156
X208.228Y-119.951
X208.28Y-124.968
X212.833Y-138.605
X217.678Y-118.364
X218.44Y-123.952
X219.105Y-102.463
X219.896Y-100.154
X223.774Y-83.312
X226.822Y-90.932
X228.9Y-67.066
X241.046Y-113.03
T2
X144.272Y-104.14
X174.752Y-113.792
X183.896Y-123.19
X191.979Y-129.553
X201.93Y-93.726
X206.947Y-130.365
X207.264Y-121.878
X213.868Y-103.886
X218.181Y-109.982
T3
X187.452Y-112.04
X187.452Y-117.628
X188.722Y-110.77
X188.722Y-113.31
X188.722Y-116.358
X188.722Y-118.898
X203.454Y-144.018
X204.724Y-142.748
X205.994Y-144.018
X209.169Y-144.018
X210.439Y-142.748
X211.709Y-144.018
X227.651Y-144.044
X228.921Y-142.774
X230.191Y-144.044
X232.618Y-121.058
X232.618Y-126.773
X232.63Y-69.195
X232.63Y-74.91
X232.745Y-94.895
X232.745Y-100.885
X233.526Y-144.044
X233.888Y-119.788
X233.888Y-122.328
X233.888Y-125.503
X233.888Y-128.043
X233.9Y-67.925
X233.9Y-70.465
X233.9Y-73.64
X233.9Y-76.18
X234.015Y-93.625
X234.015Y-96.165
X234.015Y-99.615
X234.015Y-102.155
X234.796Y-142.774
X236.066Y-144.044
T4
X201.676Y-99.662
X201.676Y-107.602
X204.216Y-99.662
X204.216Y-107.602
X206.756Y-99.662
X206.756Y-107.602
X209.296Y-99.662
X209.296Y-107.602
X211.836Y-99.662
X211.836Y-107.602
X213.2Y-76.434
X213.2Y-78.974
X213.2Y-81.514
X213.2Y-84.054
X213.2Y-86.594
X213.2Y-89.134
X213.2Y-91.674
X214.376Y-99.662
X214.376Y-107.602
X216.916Y-99.662
X216.916Y-107.602
X221.14Y-76.434
X221.14Y-78.974
X221.14Y-81.514
X221.14Y-84.054
X221.14Y-86.594
X221.14Y-89.134
X221.14Y-91.674
T5
X154.686Y-85.979
X155.194Y-73.914
X155.194Y-81.534
X157.186Y-85.979
X157.734Y-73.914
X157.734Y-81.534
X160.406Y-85.979
X161.036Y-73.914
X161.036Y-81.534
X162.906Y-85.979
X163.576Y-73.914
X163.576Y-81.534
X166.116Y-85.979
X166.878Y-73.914
X166.878Y-81.534
X168.616Y-85.979
X169.418Y-73.914
X169.418Y-81.534
X171.724Y-85.979
X172.72Y-73.904
X172.72Y-81.524
X174.224Y-85.979
X175.26Y-73.904
X175.26Y-81.524
X180.091Y-73.914
X180.091Y-81.534
X180.106Y-85.989
X182.606Y-85.989
X182.631Y-73.914
X182.631Y-81.534
X185.811Y-73.924
X185.811Y-81.544
X185.851Y-85.989
X187.286Y-97.562
X187.286Y-105.156
X188.351Y-73.924
X188.351Y-81.544
X188.351Y-85.989
X189.786Y-97.562
X189.786Y-105.156
X191.526Y-73.924
X191.526Y-81.544
X191.526Y-85.989
X194.026Y-85.989
X194.066Y-73.924
X194.066Y-81.544
X197.241Y-73.924
X197.241Y-81.544
X197.261Y-85.989
X197.612Y-100.33
X197.612Y-102.83
X199.761Y-85.989
X199.781Y-73.924
X199.781Y-81.544
X202.692Y-114.046
X202.692Y-116.586
X202.692Y-119.126
X202.692Y-121.666
X202.692Y-124.206
X202.692Y-126.746
X202.692Y-129.286
X202.692Y-131.826
X204.724Y-73.924
X204.724Y-81.544
X204.764Y-86.096
X207.264Y-73.924
X207.264Y-81.544
X207.264Y-86.096
X210.312Y-114.046
X210.312Y-116.586
X210.312Y-119.126
X210.312Y-121.666
X210.312Y-124.206
X210.312Y-126.746
X210.312Y-129.286
X210.312Y-131.826
X215.392Y-114.046
X215.392Y-116.586
X215.392Y-119.126
X215.392Y-121.666
X215.392Y-124.206
X215.392Y-126.746
X215.392Y-129.286
X215.392Y-131.826
X223.012Y-114.046
X223.012Y-116.586
X223.012Y-119.126
X223.012Y-121.666
X223.012Y-124.206
X223.012Y-126.746
X223.012Y-129.286
X223.012Y-131.826
X223.774Y-75.224
X223.774Y-77.724
T6
X159.004Y-127.381
X159.004Y-135.001
X192.532Y-127.0
X192.532Y-134.62
T7
X196.649Y-148.902
X199.149Y-148.902
X201.649Y-148.902
X204.149Y-148.902
X206.649Y-148.902
X209.149Y-148.902
X209.55Y-65.024
X211.649Y-148.902
X212.05Y-65.024
X214.149Y-148.902
X214.55Y-65.024
X217.05Y-65.024
X219.55Y-65.024
X220.752Y-148.916
X222.05Y-65.024
X223.252Y-148.916
X225.752Y-148.916
X228.252Y-148.916
X230.752Y-148.916
X233.252Y-148.916
X235.752Y-148.916
X238.252Y-148.916
X238.76Y-66.12
X238.76Y-68.62
X238.76Y-71.12
X238.76Y-73.62
X238.76Y-76.12
X238.76Y-78.62
X238.76Y-81.12
X238.76Y-83.62
X238.76Y-91.46
X238.76Y-93.96
X238.76Y-96.46
X238.76Y-98.96
X238.76Y-101.46
X238.76Y-103.96
X238.76Y-106.46
X238.76Y-108.96
X238.76Y-117.348
X238.76Y-119.848
X238.76Y-122.348
X238.76Y-124.848
X238.76Y-127.348
X238.76Y-129.848
X238.76Y-132.348
X238.76Y-134.848
T8
X131.572Y-65.024
X131.572Y-69.85
X131.572Y-84.328
X131.587Y-74.93
X131.587Y-79.756
X134.112Y-65.024
X134.112Y-69.85
X134.112Y-84.328
X134.127Y-74.93
X134.127Y-79.756
X136.652Y-65.024
X136.652Y-69.85
X136.652Y-84.328
X136.652Y-89.916
X136.667Y-74.93
X136.667Y-79.756
X139.192Y-65.024
X139.192Y-69.85
X139.192Y-84.328
X139.192Y-89.916
X139.207Y-74.93
X139.207Y-79.756
X141.732Y-65.024
X141.732Y-69.85
X141.732Y-84.328
X141.732Y-89.916
X141.747Y-74.93
X141.747Y-79.756
X144.272Y-65.024
X144.272Y-69.85
X144.272Y-84.328
X144.272Y-89.916
X144.287Y-74.93
X144.287Y-79.756
X146.812Y-65.024
X146.812Y-69.85
X146.812Y-84.328
X146.812Y-89.916
X146.827Y-74.93
X146.827Y-79.756
X149.352Y-65.024
X149.352Y-69.85
X149.352Y-84.328
X149.352Y-89.916
X149.367Y-74.93
X149.367Y-79.756
X155.448Y-128.011
X155.448Y-130.551
X155.448Y-135.377
X155.448Y-137.917
X155.595Y-65.105
X158.095Y-65.105
X164.485Y-65.105
X166.985Y-65.105
X173.375Y-65.105
X175.875Y-65.105
X182.265Y-65.105
X184.765Y-65.105
X191.155Y-65.105
X193.655Y-65.105
X196.088Y-127.757
X196.088Y-130.297
X196.088Y-135.123
X196.088Y-137.663
X200.045Y-65.105
X202.545Y-65.105
X224.79Y-98.044
X224.79Y-100.584
X224.79Y-103.124
X224.79Y-105.664
T9
X131.52Y-95.022
X131.52Y-120.422
X134.06Y-95.022
X134.06Y-120.422
X136.6Y-95.022
X136.6Y-120.422
X139.14Y-95.022
X139.14Y-120.422
X141.68Y-95.022
X141.68Y-120.422
X144.22Y-95.022
X144.22Y-120.422
X146.76Y-95.022
X146.76Y-120.422
X149.3Y-95.022
X149.3Y-120.422
X151.84Y-95.022
X151.84Y-120.422
X154.38Y-95.022
X154.38Y-120.422
X156.92Y-95.022
X156.92Y-120.422
X159.46Y-95.022
X159.46Y-120.422
X162.0Y-95.022
X162.0Y-120.422
X164.54Y-95.022
X164.54Y-120.422
X167.08Y-95.022
X167.08Y-120.422
X169.62Y-95.022
X169.62Y-120.422
X172.16Y-95.022
X172.16Y-120.422
X174.7Y-95.022
X174.7Y-120.422
X177.24Y-95.022
X177.24Y-120.422
T10
X130.429Y-125.476
X130.429Y-128.016
X130.429Y-136.144
X130.429Y-138.684
X131.572Y-146.792
X136.652Y-146.792
X148.971Y-125.476
X148.971Y-128.016
X148.971Y-136.144
X148.971Y-138.684
X162.56Y-146.304
X167.64Y-146.304
X172.72Y-146.304
X178.822Y-146.304
X183.903Y-146.304
X188.982Y-146.304
T11
X163.148Y-129.754
X163.148Y-139.954
X168.148Y-127.254
X173.148Y-129.754
X173.148Y-139.954
X178.388Y-129.754
X178.388Y-139.954
X183.388Y-127.254
X188.388Y-129.754
X188.388Y-139.954
T0
M30
