G04 #@! TF.GenerationSoftware,KiCad,Pcbnew,(6.0.7)*
G04 #@! TF.CreationDate,2022-11-13T23:24:52+01:00*
G04 #@! TF.ProjectId,cncBord4sdo,636e6342-6f72-4643-9473-646f2e6b6963,rev?*
G04 #@! TF.SameCoordinates,Original*
G04 #@! TF.FileFunction,Legend,Bot*
G04 #@! TF.FilePolarity,Positive*
%FSLAX46Y46*%
G04 Gerber Fmt 4.6, Leading zero omitted, Abs format (unit mm)*
G04 Created by KiCad (PCBNEW (6.0.7)) date 2022-11-13 23:24:52*
%MOMM*%
%LPD*%
G01*
G04 APERTURE LIST*
G04 Aperture macros list*
%AMRoundRect*
0 Rectangle with rounded corners*
0 $1 Rounding radius*
0 $2 $3 $4 $5 $6 $7 $8 $9 X,Y pos of 4 corners*
0 Add a 4 corners polygon primitive as box body*
4,1,4,$2,$3,$4,$5,$6,$7,$8,$9,$2,$3,0*
0 Add four circle primitives for the rounded corners*
1,1,$1+$1,$2,$3*
1,1,$1+$1,$4,$5*
1,1,$1+$1,$6,$7*
1,1,$1+$1,$8,$9*
0 Add four rect primitives between the rounded corners*
20,1,$1+$1,$2,$3,$4,$5,0*
20,1,$1+$1,$4,$5,$6,$7,0*
20,1,$1+$1,$6,$7,$8,$9,0*
20,1,$1+$1,$8,$9,$2,$3,0*%
G04 Aperture macros list end*
%ADD10C,0.100000*%
%ADD11C,0.150000*%
%ADD12C,0.300000*%
%ADD13C,0.400000*%
%ADD14RoundRect,0.101600X-1.000000X-1.000000X1.000000X-1.000000X1.000000X1.000000X-1.000000X1.000000X0*%
%ADD15C,2.203200*%
%ADD16R,1.600000X1.600000*%
%ADD17C,1.600000*%
%ADD18R,1.800000X1.800000*%
%ADD19O,1.800000X1.800000*%
%ADD20RoundRect,0.250000X0.600000X0.725000X-0.600000X0.725000X-0.600000X-0.725000X0.600000X-0.725000X0*%
%ADD21O,1.700000X1.950000*%
%ADD22RoundRect,0.250000X-0.725000X0.600000X-0.725000X-0.600000X0.725000X-0.600000X0.725000X0.600000X0*%
%ADD23O,1.950000X1.700000*%
%ADD24R,1.700000X1.700000*%
%ADD25O,1.700000X1.700000*%
%ADD26RoundRect,0.250000X-0.650000X-1.550000X0.650000X-1.550000X0.650000X1.550000X-0.650000X1.550000X0*%
%ADD27O,1.800000X3.600000*%
%ADD28C,2.303200*%
%ADD29RoundRect,0.250000X0.650000X1.550000X-0.650000X1.550000X-0.650000X-1.550000X0.650000X-1.550000X0*%
%ADD30RoundRect,0.101600X-0.780000X0.780000X-0.780000X-0.780000X0.780000X-0.780000X0.780000X0.780000X0*%
%ADD31C,1.763200*%
%ADD32R,1.800000X1.100000*%
%ADD33RoundRect,0.275000X0.625000X-0.275000X0.625000X0.275000X-0.625000X0.275000X-0.625000X-0.275000X0*%
%ADD34O,1.600000X1.600000*%
%ADD35R,1.100000X1.800000*%
%ADD36RoundRect,0.275000X-0.275000X-0.625000X0.275000X-0.625000X0.275000X0.625000X-0.275000X0.625000X0*%
%ADD37R,1.170000X1.170000*%
%ADD38C,1.170000*%
%ADD39RoundRect,0.250000X-0.600000X-0.750000X0.600000X-0.750000X0.600000X0.750000X-0.600000X0.750000X0*%
%ADD40O,1.700000X2.000000*%
%ADD41RoundRect,0.250000X-0.600000X-0.725000X0.600000X-0.725000X0.600000X0.725000X-0.600000X0.725000X0*%
G04 APERTURE END LIST*
D10*
D11*
X177002200Y-166007200D02*
X177002200Y-198007200D01*
X285002200Y-198007200D01*
X285002200Y-166007200D01*
X177002200Y-166007200D01*
D10*
D11*
X10000000Y-10000000D02*
X10000000Y-200007200D01*
X287002200Y-200007200D01*
X287002200Y-10000000D01*
X10000000Y-10000000D01*
D10*
D11*
X12000000Y-12000000D02*
X12000000Y-198007200D01*
X285002200Y-198007200D01*
X285002200Y-12000000D01*
X12000000Y-12000000D01*
D10*
D11*
X60000000Y-12000000D02*
X60000000Y-10000000D01*
D10*
D11*
X110000000Y-12000000D02*
X110000000Y-10000000D01*
D10*
D11*
X160000000Y-12000000D02*
X160000000Y-10000000D01*
D10*
D11*
X210000000Y-12000000D02*
X210000000Y-10000000D01*
D10*
D11*
X260000000Y-12000000D02*
X260000000Y-10000000D01*
D10*
D11*
X36065476Y-11588095D02*
X35322619Y-11588095D01*
X35694047Y-11588095D02*
X35694047Y-10288095D01*
X35570238Y-10473809D01*
X35446428Y-10597619D01*
X35322619Y-10659523D01*
D10*
D11*
X85322619Y-10411904D02*
X85384523Y-10350000D01*
X85508333Y-10288095D01*
X85817857Y-10288095D01*
X85941666Y-10350000D01*
X86003571Y-10411904D01*
X86065476Y-10535714D01*
X86065476Y-10659523D01*
X86003571Y-10845238D01*
X85260714Y-11588095D01*
X86065476Y-11588095D01*
D10*
D11*
X135260714Y-10288095D02*
X136065476Y-10288095D01*
X135632142Y-10783333D01*
X135817857Y-10783333D01*
X135941666Y-10845238D01*
X136003571Y-10907142D01*
X136065476Y-11030952D01*
X136065476Y-11340476D01*
X136003571Y-11464285D01*
X135941666Y-11526190D01*
X135817857Y-11588095D01*
X135446428Y-11588095D01*
X135322619Y-11526190D01*
X135260714Y-11464285D01*
D10*
D11*
X185941666Y-10721428D02*
X185941666Y-11588095D01*
X185632142Y-10226190D02*
X185322619Y-11154761D01*
X186127380Y-11154761D01*
D10*
D11*
X236003571Y-10288095D02*
X235384523Y-10288095D01*
X235322619Y-10907142D01*
X235384523Y-10845238D01*
X235508333Y-10783333D01*
X235817857Y-10783333D01*
X235941666Y-10845238D01*
X236003571Y-10907142D01*
X236065476Y-11030952D01*
X236065476Y-11340476D01*
X236003571Y-11464285D01*
X235941666Y-11526190D01*
X235817857Y-11588095D01*
X235508333Y-11588095D01*
X235384523Y-11526190D01*
X235322619Y-11464285D01*
D10*
D11*
X285941666Y-10288095D02*
X285694047Y-10288095D01*
X285570238Y-10350000D01*
X285508333Y-10411904D01*
X285384523Y-10597619D01*
X285322619Y-10845238D01*
X285322619Y-11340476D01*
X285384523Y-11464285D01*
X285446428Y-11526190D01*
X285570238Y-11588095D01*
X285817857Y-11588095D01*
X285941666Y-11526190D01*
X286003571Y-11464285D01*
X286065476Y-11340476D01*
X286065476Y-11030952D01*
X286003571Y-10907142D01*
X285941666Y-10845238D01*
X285817857Y-10783333D01*
X285570238Y-10783333D01*
X285446428Y-10845238D01*
X285384523Y-10907142D01*
X285322619Y-11030952D01*
D10*
D11*
X60000000Y-198007200D02*
X60000000Y-200007200D01*
D10*
D11*
X110000000Y-198007200D02*
X110000000Y-200007200D01*
D10*
D11*
X160000000Y-198007200D02*
X160000000Y-200007200D01*
D10*
D11*
X210000000Y-198007200D02*
X210000000Y-200007200D01*
D10*
D11*
X260000000Y-198007200D02*
X260000000Y-200007200D01*
D10*
D11*
X36065476Y-199595295D02*
X35322619Y-199595295D01*
X35694047Y-199595295D02*
X35694047Y-198295295D01*
X35570238Y-198481009D01*
X35446428Y-198604819D01*
X35322619Y-198666723D01*
D10*
D11*
X85322619Y-198419104D02*
X85384523Y-198357200D01*
X85508333Y-198295295D01*
X85817857Y-198295295D01*
X85941666Y-198357200D01*
X86003571Y-198419104D01*
X86065476Y-198542914D01*
X86065476Y-198666723D01*
X86003571Y-198852438D01*
X85260714Y-199595295D01*
X86065476Y-199595295D01*
D10*
D11*
X135260714Y-198295295D02*
X136065476Y-198295295D01*
X135632142Y-198790533D01*
X135817857Y-198790533D01*
X135941666Y-198852438D01*
X136003571Y-198914342D01*
X136065476Y-199038152D01*
X136065476Y-199347676D01*
X136003571Y-199471485D01*
X135941666Y-199533390D01*
X135817857Y-199595295D01*
X135446428Y-199595295D01*
X135322619Y-199533390D01*
X135260714Y-199471485D01*
D10*
D11*
X185941666Y-198728628D02*
X185941666Y-199595295D01*
X185632142Y-198233390D02*
X185322619Y-199161961D01*
X186127380Y-199161961D01*
D10*
D11*
X236003571Y-198295295D02*
X235384523Y-198295295D01*
X235322619Y-198914342D01*
X235384523Y-198852438D01*
X235508333Y-198790533D01*
X235817857Y-198790533D01*
X235941666Y-198852438D01*
X236003571Y-198914342D01*
X236065476Y-199038152D01*
X236065476Y-199347676D01*
X236003571Y-199471485D01*
X235941666Y-199533390D01*
X235817857Y-199595295D01*
X235508333Y-199595295D01*
X235384523Y-199533390D01*
X235322619Y-199471485D01*
D10*
D11*
X285941666Y-198295295D02*
X285694047Y-198295295D01*
X285570238Y-198357200D01*
X285508333Y-198419104D01*
X285384523Y-198604819D01*
X285322619Y-198852438D01*
X285322619Y-199347676D01*
X285384523Y-199471485D01*
X285446428Y-199533390D01*
X285570238Y-199595295D01*
X285817857Y-199595295D01*
X285941666Y-199533390D01*
X286003571Y-199471485D01*
X286065476Y-199347676D01*
X286065476Y-199038152D01*
X286003571Y-198914342D01*
X285941666Y-198852438D01*
X285817857Y-198790533D01*
X285570238Y-198790533D01*
X285446428Y-198852438D01*
X285384523Y-198914342D01*
X285322619Y-199038152D01*
D10*
D11*
X10000000Y-60000000D02*
X12000000Y-60000000D01*
D10*
D11*
X10000000Y-110000000D02*
X12000000Y-110000000D01*
D10*
D11*
X10000000Y-160000000D02*
X12000000Y-160000000D01*
D10*
D11*
X10690476Y-35216666D02*
X11309523Y-35216666D01*
X10566666Y-35588095D02*
X11000000Y-34288095D01*
X11433333Y-35588095D01*
D10*
D11*
X11092857Y-84907142D02*
X11278571Y-84969047D01*
X11340476Y-85030952D01*
X11402380Y-85154761D01*
X11402380Y-85340476D01*
X11340476Y-85464285D01*
X11278571Y-85526190D01*
X11154761Y-85588095D01*
X10659523Y-85588095D01*
X10659523Y-84288095D01*
X11092857Y-84288095D01*
X11216666Y-84350000D01*
X11278571Y-84411904D01*
X11340476Y-84535714D01*
X11340476Y-84659523D01*
X11278571Y-84783333D01*
X11216666Y-84845238D01*
X11092857Y-84907142D01*
X10659523Y-84907142D01*
D10*
D11*
X11402380Y-135464285D02*
X11340476Y-135526190D01*
X11154761Y-135588095D01*
X11030952Y-135588095D01*
X10845238Y-135526190D01*
X10721428Y-135402380D01*
X10659523Y-135278571D01*
X10597619Y-135030952D01*
X10597619Y-134845238D01*
X10659523Y-134597619D01*
X10721428Y-134473809D01*
X10845238Y-134350000D01*
X11030952Y-134288095D01*
X11154761Y-134288095D01*
X11340476Y-134350000D01*
X11402380Y-134411904D01*
D10*
D11*
X10659523Y-185588095D02*
X10659523Y-184288095D01*
X10969047Y-184288095D01*
X11154761Y-184350000D01*
X11278571Y-184473809D01*
X11340476Y-184597619D01*
X11402380Y-184845238D01*
X11402380Y-185030952D01*
X11340476Y-185278571D01*
X11278571Y-185402380D01*
X11154761Y-185526190D01*
X10969047Y-185588095D01*
X10659523Y-185588095D01*
D10*
D11*
X287002200Y-60000000D02*
X285002200Y-60000000D01*
D10*
D11*
X287002200Y-110000000D02*
X285002200Y-110000000D01*
D10*
D11*
X287002200Y-160000000D02*
X285002200Y-160000000D01*
D10*
D11*
X285692676Y-35216666D02*
X286311723Y-35216666D01*
X285568866Y-35588095D02*
X286002200Y-34288095D01*
X286435533Y-35588095D01*
D10*
D11*
X286095057Y-84907142D02*
X286280771Y-84969047D01*
X286342676Y-85030952D01*
X286404580Y-85154761D01*
X286404580Y-85340476D01*
X286342676Y-85464285D01*
X286280771Y-85526190D01*
X286156961Y-85588095D01*
X285661723Y-85588095D01*
X285661723Y-84288095D01*
X286095057Y-84288095D01*
X286218866Y-84350000D01*
X286280771Y-84411904D01*
X286342676Y-84535714D01*
X286342676Y-84659523D01*
X286280771Y-84783333D01*
X286218866Y-84845238D01*
X286095057Y-84907142D01*
X285661723Y-84907142D01*
D10*
D11*
X286404580Y-135464285D02*
X286342676Y-135526190D01*
X286156961Y-135588095D01*
X286033152Y-135588095D01*
X285847438Y-135526190D01*
X285723628Y-135402380D01*
X285661723Y-135278571D01*
X285599819Y-135030952D01*
X285599819Y-134845238D01*
X285661723Y-134597619D01*
X285723628Y-134473809D01*
X285847438Y-134350000D01*
X286033152Y-134288095D01*
X286156961Y-134288095D01*
X286342676Y-134350000D01*
X286404580Y-134411904D01*
D10*
D11*
X285661723Y-185588095D02*
X285661723Y-184288095D01*
X285971247Y-184288095D01*
X286156961Y-184350000D01*
X286280771Y-184473809D01*
X286342676Y-184597619D01*
X286404580Y-184845238D01*
X286404580Y-185030952D01*
X286342676Y-185278571D01*
X286280771Y-185402380D01*
X286156961Y-185526190D01*
X285971247Y-185588095D01*
X285661723Y-185588095D01*
D10*
D11*
X200434342Y-193785771D02*
X200434342Y-192285771D01*
X200791485Y-192285771D01*
X201005771Y-192357200D01*
X201148628Y-192500057D01*
X201220057Y-192642914D01*
X201291485Y-192928628D01*
X201291485Y-193142914D01*
X201220057Y-193428628D01*
X201148628Y-193571485D01*
X201005771Y-193714342D01*
X200791485Y-193785771D01*
X200434342Y-193785771D01*
X202577200Y-193785771D02*
X202577200Y-193000057D01*
X202505771Y-192857200D01*
X202362914Y-192785771D01*
X202077200Y-192785771D01*
X201934342Y-192857200D01*
X202577200Y-193714342D02*
X202434342Y-193785771D01*
X202077200Y-193785771D01*
X201934342Y-193714342D01*
X201862914Y-193571485D01*
X201862914Y-193428628D01*
X201934342Y-193285771D01*
X202077200Y-193214342D01*
X202434342Y-193214342D01*
X202577200Y-193142914D01*
X203077200Y-192785771D02*
X203648628Y-192785771D01*
X203291485Y-192285771D02*
X203291485Y-193571485D01*
X203362914Y-193714342D01*
X203505771Y-193785771D01*
X203648628Y-193785771D01*
X204720057Y-193714342D02*
X204577200Y-193785771D01*
X204291485Y-193785771D01*
X204148628Y-193714342D01*
X204077200Y-193571485D01*
X204077200Y-193000057D01*
X204148628Y-192857200D01*
X204291485Y-192785771D01*
X204577200Y-192785771D01*
X204720057Y-192857200D01*
X204791485Y-193000057D01*
X204791485Y-193142914D01*
X204077200Y-193285771D01*
X205434342Y-193642914D02*
X205505771Y-193714342D01*
X205434342Y-193785771D01*
X205362914Y-193714342D01*
X205434342Y-193642914D01*
X205434342Y-193785771D01*
X205434342Y-192857200D02*
X205505771Y-192928628D01*
X205434342Y-193000057D01*
X205362914Y-192928628D01*
X205434342Y-192857200D01*
X205434342Y-193000057D01*
D10*
D11*
X177002200Y-194507200D02*
X285002200Y-194507200D01*
D10*
D11*
X178434342Y-196585771D02*
X178434342Y-195085771D01*
X179291485Y-196585771D02*
X178648628Y-195728628D01*
X179291485Y-195085771D02*
X178434342Y-195942914D01*
X179934342Y-196585771D02*
X179934342Y-195585771D01*
X179934342Y-195085771D02*
X179862914Y-195157200D01*
X179934342Y-195228628D01*
X180005771Y-195157200D01*
X179934342Y-195085771D01*
X179934342Y-195228628D01*
X181505771Y-196442914D02*
X181434342Y-196514342D01*
X181220057Y-196585771D01*
X181077200Y-196585771D01*
X180862914Y-196514342D01*
X180720057Y-196371485D01*
X180648628Y-196228628D01*
X180577200Y-195942914D01*
X180577200Y-195728628D01*
X180648628Y-195442914D01*
X180720057Y-195300057D01*
X180862914Y-195157200D01*
X181077200Y-195085771D01*
X181220057Y-195085771D01*
X181434342Y-195157200D01*
X181505771Y-195228628D01*
X182791485Y-196585771D02*
X182791485Y-195800057D01*
X182720057Y-195657200D01*
X182577200Y-195585771D01*
X182291485Y-195585771D01*
X182148628Y-195657200D01*
X182791485Y-196514342D02*
X182648628Y-196585771D01*
X182291485Y-196585771D01*
X182148628Y-196514342D01*
X182077200Y-196371485D01*
X182077200Y-196228628D01*
X182148628Y-196085771D01*
X182291485Y-196014342D01*
X182648628Y-196014342D01*
X182791485Y-195942914D01*
X184148628Y-196585771D02*
X184148628Y-195085771D01*
X184148628Y-196514342D02*
X184005771Y-196585771D01*
X183720057Y-196585771D01*
X183577200Y-196514342D01*
X183505771Y-196442914D01*
X183434342Y-196300057D01*
X183434342Y-195871485D01*
X183505771Y-195728628D01*
X183577200Y-195657200D01*
X183720057Y-195585771D01*
X184005771Y-195585771D01*
X184148628Y-195657200D01*
X186005771Y-195800057D02*
X186505771Y-195800057D01*
X186720057Y-196585771D02*
X186005771Y-196585771D01*
X186005771Y-195085771D01*
X186720057Y-195085771D01*
X187362914Y-196442914D02*
X187434342Y-196514342D01*
X187362914Y-196585771D01*
X187291485Y-196514342D01*
X187362914Y-196442914D01*
X187362914Y-196585771D01*
X188077200Y-196585771D02*
X188077200Y-195085771D01*
X188434342Y-195085771D01*
X188648628Y-195157200D01*
X188791485Y-195300057D01*
X188862914Y-195442914D01*
X188934342Y-195728628D01*
X188934342Y-195942914D01*
X188862914Y-196228628D01*
X188791485Y-196371485D01*
X188648628Y-196514342D01*
X188434342Y-196585771D01*
X188077200Y-196585771D01*
X189577200Y-196442914D02*
X189648628Y-196514342D01*
X189577200Y-196585771D01*
X189505771Y-196514342D01*
X189577200Y-196442914D01*
X189577200Y-196585771D01*
X190220057Y-196157200D02*
X190934342Y-196157200D01*
X190077200Y-196585771D02*
X190577200Y-195085771D01*
X191077200Y-196585771D01*
X191577200Y-196442914D02*
X191648628Y-196514342D01*
X191577200Y-196585771D01*
X191505771Y-196514342D01*
X191577200Y-196442914D01*
X191577200Y-196585771D01*
X194577200Y-196585771D02*
X194577200Y-195085771D01*
X194720057Y-196014342D02*
X195148628Y-196585771D01*
X195148628Y-195585771D02*
X194577200Y-196157200D01*
X195791485Y-196585771D02*
X195791485Y-195585771D01*
X195791485Y-195085771D02*
X195720057Y-195157200D01*
X195791485Y-195228628D01*
X195862914Y-195157200D01*
X195791485Y-195085771D01*
X195791485Y-195228628D01*
X197148628Y-196514342D02*
X197005771Y-196585771D01*
X196720057Y-196585771D01*
X196577200Y-196514342D01*
X196505771Y-196442914D01*
X196434342Y-196300057D01*
X196434342Y-195871485D01*
X196505771Y-195728628D01*
X196577200Y-195657200D01*
X196720057Y-195585771D01*
X197005771Y-195585771D01*
X197148628Y-195657200D01*
X198434342Y-196585771D02*
X198434342Y-195800057D01*
X198362914Y-195657200D01*
X198220057Y-195585771D01*
X197934342Y-195585771D01*
X197791485Y-195657200D01*
X198434342Y-196514342D02*
X198291485Y-196585771D01*
X197934342Y-196585771D01*
X197791485Y-196514342D01*
X197720057Y-196371485D01*
X197720057Y-196228628D01*
X197791485Y-196085771D01*
X197934342Y-196014342D01*
X198291485Y-196014342D01*
X198434342Y-195942914D01*
X199791485Y-196585771D02*
X199791485Y-195085771D01*
X199791485Y-196514342D02*
X199648628Y-196585771D01*
X199362914Y-196585771D01*
X199220057Y-196514342D01*
X199148628Y-196442914D01*
X199077200Y-196300057D01*
X199077200Y-195871485D01*
X199148628Y-195728628D01*
X199220057Y-195657200D01*
X199362914Y-195585771D01*
X199648628Y-195585771D01*
X199791485Y-195657200D01*
X202077200Y-197157200D02*
X202005771Y-197085771D01*
X201862914Y-196871485D01*
X201791485Y-196728628D01*
X201720057Y-196514342D01*
X201648628Y-196157200D01*
X201648628Y-195871485D01*
X201720057Y-195514342D01*
X201791485Y-195300057D01*
X201862914Y-195157200D01*
X202005771Y-194942914D01*
X202077200Y-194871485D01*
X203291485Y-195085771D02*
X203005771Y-195085771D01*
X202862914Y-195157200D01*
X202791485Y-195228628D01*
X202648628Y-195442914D01*
X202577200Y-195728628D01*
X202577200Y-196300057D01*
X202648628Y-196442914D01*
X202720057Y-196514342D01*
X202862914Y-196585771D01*
X203148628Y-196585771D01*
X203291485Y-196514342D01*
X203362914Y-196442914D01*
X203434342Y-196300057D01*
X203434342Y-195942914D01*
X203362914Y-195800057D01*
X203291485Y-195728628D01*
X203148628Y-195657200D01*
X202862914Y-195657200D01*
X202720057Y-195728628D01*
X202648628Y-195800057D01*
X202577200Y-195942914D01*
X204077200Y-196442914D02*
X204148628Y-196514342D01*
X204077200Y-196585771D01*
X204005771Y-196514342D01*
X204077200Y-196442914D01*
X204077200Y-196585771D01*
X205077200Y-195085771D02*
X205220057Y-195085771D01*
X205362914Y-195157200D01*
X205434342Y-195228628D01*
X205505771Y-195371485D01*
X205577200Y-195657200D01*
X205577200Y-196014342D01*
X205505771Y-196300057D01*
X205434342Y-196442914D01*
X205362914Y-196514342D01*
X205220057Y-196585771D01*
X205077200Y-196585771D01*
X204934342Y-196514342D01*
X204862914Y-196442914D01*
X204791485Y-196300057D01*
X204720057Y-196014342D01*
X204720057Y-195657200D01*
X204791485Y-195371485D01*
X204862914Y-195228628D01*
X204934342Y-195157200D01*
X205077200Y-195085771D01*
X206220057Y-196442914D02*
X206291485Y-196514342D01*
X206220057Y-196585771D01*
X206148628Y-196514342D01*
X206220057Y-196442914D01*
X206220057Y-196585771D01*
X206791485Y-195085771D02*
X207791485Y-195085771D01*
X207148628Y-196585771D01*
X208220057Y-197157200D02*
X208291485Y-197085771D01*
X208434342Y-196871485D01*
X208505771Y-196728628D01*
X208577200Y-196514342D01*
X208648628Y-196157200D01*
X208648628Y-195871485D01*
X208577200Y-195514342D01*
X208505771Y-195300057D01*
X208434342Y-195157200D01*
X208291485Y-194942914D01*
X208220057Y-194871485D01*
D10*
D11*
X177002200Y-191507200D02*
X285002200Y-191507200D01*
D10*
D12*
X264411485Y-193785771D02*
X263911485Y-193071485D01*
X263554342Y-193785771D02*
X263554342Y-192285771D01*
X264125771Y-192285771D01*
X264268628Y-192357200D01*
X264340057Y-192428628D01*
X264411485Y-192571485D01*
X264411485Y-192785771D01*
X264340057Y-192928628D01*
X264268628Y-193000057D01*
X264125771Y-193071485D01*
X263554342Y-193071485D01*
X265625771Y-193714342D02*
X265482914Y-193785771D01*
X265197200Y-193785771D01*
X265054342Y-193714342D01*
X264982914Y-193571485D01*
X264982914Y-193000057D01*
X265054342Y-192857200D01*
X265197200Y-192785771D01*
X265482914Y-192785771D01*
X265625771Y-192857200D01*
X265697200Y-193000057D01*
X265697200Y-193142914D01*
X264982914Y-193285771D01*
X266197200Y-192785771D02*
X266554342Y-193785771D01*
X266911485Y-192785771D01*
X267482914Y-193642914D02*
X267554342Y-193714342D01*
X267482914Y-193785771D01*
X267411485Y-193714342D01*
X267482914Y-193642914D01*
X267482914Y-193785771D01*
X267482914Y-192857200D02*
X267554342Y-192928628D01*
X267482914Y-193000057D01*
X267411485Y-192928628D01*
X267482914Y-192857200D01*
X267482914Y-193000057D01*
D10*
D11*
X178362914Y-193714342D02*
X178577200Y-193785771D01*
X178934342Y-193785771D01*
X179077200Y-193714342D01*
X179148628Y-193642914D01*
X179220057Y-193500057D01*
X179220057Y-193357200D01*
X179148628Y-193214342D01*
X179077200Y-193142914D01*
X178934342Y-193071485D01*
X178648628Y-193000057D01*
X178505771Y-192928628D01*
X178434342Y-192857200D01*
X178362914Y-192714342D01*
X178362914Y-192571485D01*
X178434342Y-192428628D01*
X178505771Y-192357200D01*
X178648628Y-192285771D01*
X179005771Y-192285771D01*
X179220057Y-192357200D01*
X179862914Y-193785771D02*
X179862914Y-192785771D01*
X179862914Y-192285771D02*
X179791485Y-192357200D01*
X179862914Y-192428628D01*
X179934342Y-192357200D01*
X179862914Y-192285771D01*
X179862914Y-192428628D01*
X180434342Y-192785771D02*
X181220057Y-192785771D01*
X180434342Y-193785771D01*
X181220057Y-193785771D01*
X182362914Y-193714342D02*
X182220057Y-193785771D01*
X181934342Y-193785771D01*
X181791485Y-193714342D01*
X181720057Y-193571485D01*
X181720057Y-193000057D01*
X181791485Y-192857200D01*
X181934342Y-192785771D01*
X182220057Y-192785771D01*
X182362914Y-192857200D01*
X182434342Y-193000057D01*
X182434342Y-193142914D01*
X181720057Y-193285771D01*
X183077200Y-193642914D02*
X183148628Y-193714342D01*
X183077200Y-193785771D01*
X183005771Y-193714342D01*
X183077200Y-193642914D01*
X183077200Y-193785771D01*
X183077200Y-192857200D02*
X183148628Y-192928628D01*
X183077200Y-193000057D01*
X183005771Y-192928628D01*
X183077200Y-192857200D01*
X183077200Y-193000057D01*
X184862914Y-193357200D02*
X185577200Y-193357200D01*
X184720057Y-193785771D02*
X185220057Y-192285771D01*
X185720057Y-193785771D01*
X186862914Y-192785771D02*
X186862914Y-193785771D01*
X186505771Y-192214342D02*
X186148628Y-193285771D01*
X187077200Y-193285771D01*
D10*
D11*
X263434342Y-196585771D02*
X263434342Y-195085771D01*
X264791485Y-196585771D02*
X264791485Y-195085771D01*
X264791485Y-196514342D02*
X264648628Y-196585771D01*
X264362914Y-196585771D01*
X264220057Y-196514342D01*
X264148628Y-196442914D01*
X264077200Y-196300057D01*
X264077200Y-195871485D01*
X264148628Y-195728628D01*
X264220057Y-195657200D01*
X264362914Y-195585771D01*
X264648628Y-195585771D01*
X264791485Y-195657200D01*
X265505771Y-196442914D02*
X265577200Y-196514342D01*
X265505771Y-196585771D01*
X265434342Y-196514342D01*
X265505771Y-196442914D01*
X265505771Y-196585771D01*
X265505771Y-195657200D02*
X265577200Y-195728628D01*
X265505771Y-195800057D01*
X265434342Y-195728628D01*
X265505771Y-195657200D01*
X265505771Y-195800057D01*
X268148628Y-196585771D02*
X267291485Y-196585771D01*
X267720057Y-196585771D02*
X267720057Y-195085771D01*
X267577200Y-195300057D01*
X267434342Y-195442914D01*
X267291485Y-195514342D01*
X269862914Y-195014342D02*
X268577200Y-196942914D01*
X271148628Y-196585771D02*
X270291485Y-196585771D01*
X270720057Y-196585771D02*
X270720057Y-195085771D01*
X270577200Y-195300057D01*
X270434342Y-195442914D01*
X270291485Y-195514342D01*
D10*
D11*
X177002200Y-187507200D02*
X285002200Y-187507200D01*
D10*
D13*
X178714580Y-188211961D02*
X179857438Y-188211961D01*
X179036009Y-190211961D02*
X179286009Y-188211961D01*
X180274104Y-190211961D02*
X180440771Y-188878628D01*
X180524104Y-188211961D02*
X180416961Y-188307200D01*
X180500295Y-188402438D01*
X180607438Y-188307200D01*
X180524104Y-188211961D01*
X180500295Y-188402438D01*
X181107438Y-188878628D02*
X181869342Y-188878628D01*
X181476485Y-188211961D02*
X181262200Y-189926247D01*
X181333628Y-190116723D01*
X181512200Y-190211961D01*
X181702676Y-190211961D01*
X182655057Y-190211961D02*
X182476485Y-190116723D01*
X182405057Y-189926247D01*
X182619342Y-188211961D01*
X184190771Y-190116723D02*
X183988390Y-190211961D01*
X183607438Y-190211961D01*
X183428866Y-190116723D01*
X183357438Y-189926247D01*
X183452676Y-189164342D01*
X183571723Y-188973866D01*
X183774104Y-188878628D01*
X184155057Y-188878628D01*
X184333628Y-188973866D01*
X184405057Y-189164342D01*
X184381247Y-189354819D01*
X183405057Y-189545295D01*
X185155057Y-190021485D02*
X185238390Y-190116723D01*
X185131247Y-190211961D01*
X185047914Y-190116723D01*
X185155057Y-190021485D01*
X185131247Y-190211961D01*
X185286009Y-188973866D02*
X185369342Y-189069104D01*
X185262200Y-189164342D01*
X185178866Y-189069104D01*
X185286009Y-188973866D01*
X185262200Y-189164342D01*
D10*
D11*
X178934342Y-185600057D02*
X178434342Y-185600057D01*
X178434342Y-186385771D02*
X178434342Y-184885771D01*
X179148628Y-184885771D01*
X179720057Y-186385771D02*
X179720057Y-185385771D01*
X179720057Y-184885771D02*
X179648628Y-184957200D01*
X179720057Y-185028628D01*
X179791485Y-184957200D01*
X179720057Y-184885771D01*
X179720057Y-185028628D01*
X180648628Y-186385771D02*
X180505771Y-186314342D01*
X180434342Y-186171485D01*
X180434342Y-184885771D01*
X181791485Y-186314342D02*
X181648628Y-186385771D01*
X181362914Y-186385771D01*
X181220057Y-186314342D01*
X181148628Y-186171485D01*
X181148628Y-185600057D01*
X181220057Y-185457200D01*
X181362914Y-185385771D01*
X181648628Y-185385771D01*
X181791485Y-185457200D01*
X181862914Y-185600057D01*
X181862914Y-185742914D01*
X181148628Y-185885771D01*
X182505771Y-186242914D02*
X182577200Y-186314342D01*
X182505771Y-186385771D01*
X182434342Y-186314342D01*
X182505771Y-186242914D01*
X182505771Y-186385771D01*
X182505771Y-185457200D02*
X182577200Y-185528628D01*
X182505771Y-185600057D01*
X182434342Y-185528628D01*
X182505771Y-185457200D01*
X182505771Y-185600057D01*
X185005771Y-186314342D02*
X184862914Y-186385771D01*
X184577200Y-186385771D01*
X184434342Y-186314342D01*
X184362914Y-186242914D01*
X184291485Y-186100057D01*
X184291485Y-185671485D01*
X184362914Y-185528628D01*
X184434342Y-185457200D01*
X184577200Y-185385771D01*
X184862914Y-185385771D01*
X185005771Y-185457200D01*
X185648628Y-185385771D02*
X185648628Y-186385771D01*
X185648628Y-185528628D02*
X185720057Y-185457200D01*
X185862914Y-185385771D01*
X186077200Y-185385771D01*
X186220057Y-185457200D01*
X186291485Y-185600057D01*
X186291485Y-186385771D01*
X187648628Y-186314342D02*
X187505771Y-186385771D01*
X187220057Y-186385771D01*
X187077200Y-186314342D01*
X187005771Y-186242914D01*
X186934342Y-186100057D01*
X186934342Y-185671485D01*
X187005771Y-185528628D01*
X187077200Y-185457200D01*
X187220057Y-185385771D01*
X187505771Y-185385771D01*
X187648628Y-185457200D01*
X188791485Y-185600057D02*
X189005771Y-185671485D01*
X189077200Y-185742914D01*
X189148628Y-185885771D01*
X189148628Y-186100057D01*
X189077200Y-186242914D01*
X189005771Y-186314342D01*
X188862914Y-186385771D01*
X188291485Y-186385771D01*
X188291485Y-184885771D01*
X188791485Y-184885771D01*
X188934342Y-184957200D01*
X189005771Y-185028628D01*
X189077200Y-185171485D01*
X189077200Y-185314342D01*
X189005771Y-185457200D01*
X188934342Y-185528628D01*
X188791485Y-185600057D01*
X188291485Y-185600057D01*
X190005771Y-186385771D02*
X189862914Y-186314342D01*
X189791485Y-186242914D01*
X189720057Y-186100057D01*
X189720057Y-185671485D01*
X189791485Y-185528628D01*
X189862914Y-185457200D01*
X190005771Y-185385771D01*
X190220057Y-185385771D01*
X190362914Y-185457200D01*
X190434342Y-185528628D01*
X190505771Y-185671485D01*
X190505771Y-186100057D01*
X190434342Y-186242914D01*
X190362914Y-186314342D01*
X190220057Y-186385771D01*
X190005771Y-186385771D01*
X191148628Y-186385771D02*
X191148628Y-185385771D01*
X191148628Y-185671485D02*
X191220057Y-185528628D01*
X191291485Y-185457200D01*
X191434342Y-185385771D01*
X191577200Y-185385771D01*
X192720057Y-186385771D02*
X192720057Y-184885771D01*
X192720057Y-186314342D02*
X192577200Y-186385771D01*
X192291485Y-186385771D01*
X192148628Y-186314342D01*
X192077200Y-186242914D01*
X192005771Y-186100057D01*
X192005771Y-185671485D01*
X192077200Y-185528628D01*
X192148628Y-185457200D01*
X192291485Y-185385771D01*
X192577200Y-185385771D01*
X192720057Y-185457200D01*
X194077200Y-185385771D02*
X194077200Y-186385771D01*
X193720057Y-184814342D02*
X193362914Y-185885771D01*
X194291485Y-185885771D01*
X194791485Y-186314342D02*
X194934342Y-186385771D01*
X195220057Y-186385771D01*
X195362914Y-186314342D01*
X195434342Y-186171485D01*
X195434342Y-186100057D01*
X195362914Y-185957200D01*
X195220057Y-185885771D01*
X195005771Y-185885771D01*
X194862914Y-185814342D01*
X194791485Y-185671485D01*
X194791485Y-185600057D01*
X194862914Y-185457200D01*
X195005771Y-185385771D01*
X195220057Y-185385771D01*
X195362914Y-185457200D01*
X196720057Y-186385771D02*
X196720057Y-184885771D01*
X196720057Y-186314342D02*
X196577200Y-186385771D01*
X196291485Y-186385771D01*
X196148628Y-186314342D01*
X196077200Y-186242914D01*
X196005771Y-186100057D01*
X196005771Y-185671485D01*
X196077200Y-185528628D01*
X196148628Y-185457200D01*
X196291485Y-185385771D01*
X196577200Y-185385771D01*
X196720057Y-185457200D01*
X197648628Y-186385771D02*
X197505771Y-186314342D01*
X197434342Y-186242914D01*
X197362914Y-186100057D01*
X197362914Y-185671485D01*
X197434342Y-185528628D01*
X197505771Y-185457200D01*
X197648628Y-185385771D01*
X197862914Y-185385771D01*
X198005771Y-185457200D01*
X198077200Y-185528628D01*
X198148628Y-185671485D01*
X198148628Y-186100057D01*
X198077200Y-186242914D01*
X198005771Y-186314342D01*
X197862914Y-186385771D01*
X197648628Y-186385771D01*
X198791485Y-186242914D02*
X198862914Y-186314342D01*
X198791485Y-186385771D01*
X198720057Y-186314342D01*
X198791485Y-186242914D01*
X198791485Y-186385771D01*
X199505771Y-186385771D02*
X199505771Y-184885771D01*
X199648628Y-185814342D02*
X200077200Y-186385771D01*
X200077200Y-185385771D02*
X199505771Y-185957200D01*
X200720057Y-186385771D02*
X200720057Y-185385771D01*
X200720057Y-184885771D02*
X200648628Y-184957200D01*
X200720057Y-185028628D01*
X200791485Y-184957200D01*
X200720057Y-184885771D01*
X200720057Y-185028628D01*
X202077200Y-186314342D02*
X201934342Y-186385771D01*
X201648628Y-186385771D01*
X201505771Y-186314342D01*
X201434342Y-186242914D01*
X201362914Y-186100057D01*
X201362914Y-185671485D01*
X201434342Y-185528628D01*
X201505771Y-185457200D01*
X201648628Y-185385771D01*
X201934342Y-185385771D01*
X202077200Y-185457200D01*
X203362914Y-186385771D02*
X203362914Y-185600057D01*
X203291485Y-185457200D01*
X203148628Y-185385771D01*
X202862914Y-185385771D01*
X202720057Y-185457200D01*
X203362914Y-186314342D02*
X203220057Y-186385771D01*
X202862914Y-186385771D01*
X202720057Y-186314342D01*
X202648628Y-186171485D01*
X202648628Y-186028628D01*
X202720057Y-185885771D01*
X202862914Y-185814342D01*
X203220057Y-185814342D01*
X203362914Y-185742914D01*
X204720057Y-186385771D02*
X204720057Y-184885771D01*
X204720057Y-186314342D02*
X204577200Y-186385771D01*
X204291485Y-186385771D01*
X204148628Y-186314342D01*
X204077200Y-186242914D01*
X204005771Y-186100057D01*
X204005771Y-185671485D01*
X204077200Y-185528628D01*
X204148628Y-185457200D01*
X204291485Y-185385771D01*
X204577200Y-185385771D01*
X204720057Y-185457200D01*
X205077200Y-186528628D02*
X206220057Y-186528628D01*
X206577200Y-185385771D02*
X206577200Y-186885771D01*
X206577200Y-185457200D02*
X206720057Y-185385771D01*
X207005771Y-185385771D01*
X207148628Y-185457200D01*
X207220057Y-185528628D01*
X207291485Y-185671485D01*
X207291485Y-186100057D01*
X207220057Y-186242914D01*
X207148628Y-186314342D01*
X207005771Y-186385771D01*
X206720057Y-186385771D01*
X206577200Y-186314342D01*
X208577200Y-186314342D02*
X208434342Y-186385771D01*
X208148628Y-186385771D01*
X208005771Y-186314342D01*
X207934342Y-186242914D01*
X207862914Y-186100057D01*
X207862914Y-185671485D01*
X207934342Y-185528628D01*
X208005771Y-185457200D01*
X208148628Y-185385771D01*
X208434342Y-185385771D01*
X208577200Y-185457200D01*
X209220057Y-186385771D02*
X209220057Y-184885771D01*
X209220057Y-185457200D02*
X209362914Y-185385771D01*
X209648628Y-185385771D01*
X209791485Y-185457200D01*
X209862914Y-185528628D01*
X209934342Y-185671485D01*
X209934342Y-186100057D01*
X209862914Y-186242914D01*
X209791485Y-186314342D01*
X209648628Y-186385771D01*
X209362914Y-186385771D01*
X209220057Y-186314342D01*
D10*
D11*
X177002200Y-181507200D02*
X285002200Y-181507200D01*
D10*
D11*
X178362914Y-183614342D02*
X178577200Y-183685771D01*
X178934342Y-183685771D01*
X179077200Y-183614342D01*
X179148628Y-183542914D01*
X179220057Y-183400057D01*
X179220057Y-183257200D01*
X179148628Y-183114342D01*
X179077200Y-183042914D01*
X178934342Y-182971485D01*
X178648628Y-182900057D01*
X178505771Y-182828628D01*
X178434342Y-182757200D01*
X178362914Y-182614342D01*
X178362914Y-182471485D01*
X178434342Y-182328628D01*
X178505771Y-182257200D01*
X178648628Y-182185771D01*
X179005771Y-182185771D01*
X179220057Y-182257200D01*
X179862914Y-183685771D02*
X179862914Y-182185771D01*
X180505771Y-183685771D02*
X180505771Y-182900057D01*
X180434342Y-182757200D01*
X180291485Y-182685771D01*
X180077200Y-182685771D01*
X179934342Y-182757200D01*
X179862914Y-182828628D01*
X181791485Y-183614342D02*
X181648628Y-183685771D01*
X181362914Y-183685771D01*
X181220057Y-183614342D01*
X181148628Y-183471485D01*
X181148628Y-182900057D01*
X181220057Y-182757200D01*
X181362914Y-182685771D01*
X181648628Y-182685771D01*
X181791485Y-182757200D01*
X181862914Y-182900057D01*
X181862914Y-183042914D01*
X181148628Y-183185771D01*
X183077200Y-183614342D02*
X182934342Y-183685771D01*
X182648628Y-183685771D01*
X182505771Y-183614342D01*
X182434342Y-183471485D01*
X182434342Y-182900057D01*
X182505771Y-182757200D01*
X182648628Y-182685771D01*
X182934342Y-182685771D01*
X183077200Y-182757200D01*
X183148628Y-182900057D01*
X183148628Y-183042914D01*
X182434342Y-183185771D01*
X183577200Y-182685771D02*
X184148628Y-182685771D01*
X183791485Y-182185771D02*
X183791485Y-183471485D01*
X183862914Y-183614342D01*
X184005771Y-183685771D01*
X184148628Y-183685771D01*
X184648628Y-183542914D02*
X184720057Y-183614342D01*
X184648628Y-183685771D01*
X184577200Y-183614342D01*
X184648628Y-183542914D01*
X184648628Y-183685771D01*
X184648628Y-182757200D02*
X184720057Y-182828628D01*
X184648628Y-182900057D01*
X184577200Y-182828628D01*
X184648628Y-182757200D01*
X184648628Y-182900057D01*
D10*
D12*
D10*
D11*
D10*
D11*
D10*
D11*
D10*
D11*
D10*
D11*
X197002200Y-191507200D02*
X197002200Y-194507200D01*
D10*
D11*
X261002200Y-191507200D02*
X261002200Y-198007200D01*
%LPC*%
D14*
X130429000Y-136144000D03*
X130429000Y-138684000D03*
D15*
X130429000Y-125476000D03*
X130429000Y-128016000D03*
D14*
X148971000Y-136144000D03*
X148971000Y-138684000D03*
D15*
X148971000Y-125476000D03*
X148971000Y-128016000D03*
D16*
X187285600Y-97562000D03*
D17*
X189785600Y-97562000D03*
D16*
X187285600Y-105156000D03*
D17*
X189785600Y-105156000D03*
D18*
X159004000Y-135001000D03*
D19*
X159004000Y-127381000D03*
D18*
X192532000Y-134620000D03*
D19*
X192532000Y-127000000D03*
D20*
X238252000Y-148916000D03*
D21*
X235752000Y-148916000D03*
X233252000Y-148916000D03*
X230752000Y-148916000D03*
X228252000Y-148916000D03*
X225752000Y-148916000D03*
X223252000Y-148916000D03*
X220752000Y-148916000D03*
D22*
X238760000Y-117348000D03*
D23*
X238760000Y-119848000D03*
X238760000Y-122348000D03*
X238760000Y-124848000D03*
X238760000Y-127348000D03*
X238760000Y-129848000D03*
X238760000Y-132348000D03*
X238760000Y-134848000D03*
D22*
X238760000Y-91460000D03*
D23*
X238760000Y-93960000D03*
X238760000Y-96460000D03*
X238760000Y-98960000D03*
X238760000Y-101460000D03*
X238760000Y-103960000D03*
X238760000Y-106460000D03*
X238760000Y-108960000D03*
D22*
X238760000Y-66120000D03*
D23*
X238760000Y-68620000D03*
X238760000Y-71120000D03*
X238760000Y-73620000D03*
X238760000Y-76120000D03*
X238760000Y-78620000D03*
X238760000Y-81120000D03*
X238760000Y-83620000D03*
D20*
X214149000Y-148902000D03*
D21*
X211649000Y-148902000D03*
X209149000Y-148902000D03*
X206649000Y-148902000D03*
X204149000Y-148902000D03*
X201649000Y-148902000D03*
X199149000Y-148902000D03*
X196649000Y-148902000D03*
D24*
X155448000Y-128011000D03*
D25*
X155448000Y-130551000D03*
D24*
X155448000Y-135377000D03*
D25*
X155448000Y-137917000D03*
D24*
X196088000Y-127757000D03*
D25*
X196088000Y-130297000D03*
D24*
X196088000Y-135123000D03*
D25*
X196088000Y-137663000D03*
D24*
X149352000Y-84328000D03*
D25*
X146812000Y-84328000D03*
X144272000Y-84328000D03*
X141732000Y-84328000D03*
X139192000Y-84328000D03*
X136652000Y-84328000D03*
X134112000Y-84328000D03*
X131572000Y-84328000D03*
D24*
X149352000Y-65024000D03*
D25*
X146812000Y-65024000D03*
X144272000Y-65024000D03*
X141732000Y-65024000D03*
X139192000Y-65024000D03*
X136652000Y-65024000D03*
X134112000Y-65024000D03*
X131572000Y-65024000D03*
D24*
X149367000Y-74930000D03*
D25*
X146827000Y-74930000D03*
X144287000Y-74930000D03*
X141747000Y-74930000D03*
X139207000Y-74930000D03*
X136667000Y-74930000D03*
X134127000Y-74930000D03*
X131587000Y-74930000D03*
D24*
X149352000Y-69850000D03*
D25*
X146812000Y-69850000D03*
X144272000Y-69850000D03*
X141732000Y-69850000D03*
X139192000Y-69850000D03*
X136652000Y-69850000D03*
X134112000Y-69850000D03*
X131572000Y-69850000D03*
D24*
X149352000Y-89916000D03*
D25*
X146812000Y-89916000D03*
X144272000Y-89916000D03*
X141732000Y-89916000D03*
X139192000Y-89916000D03*
X136652000Y-89916000D03*
D26*
X131572000Y-146792500D03*
D27*
X136652000Y-146792500D03*
D28*
X163148000Y-129754000D03*
X163148000Y-139954000D03*
X173148000Y-139954000D03*
X173148000Y-129754000D03*
X168148000Y-127254000D03*
X178388000Y-129754000D03*
X178388000Y-139954000D03*
X188388000Y-139954000D03*
X188388000Y-129754000D03*
X183388000Y-127254000D03*
D29*
X172720000Y-146304000D03*
D27*
X167640000Y-146304000D03*
X162560000Y-146304000D03*
D29*
X188982500Y-146304000D03*
D27*
X183902500Y-146304000D03*
X178822500Y-146304000D03*
D30*
X177240000Y-95022000D03*
D31*
X174700000Y-95022000D03*
X172160000Y-95022000D03*
X169620000Y-95022000D03*
X167080000Y-95022000D03*
X164540000Y-95022000D03*
X162000000Y-95022000D03*
X159460000Y-95022000D03*
X156920000Y-95022000D03*
X154380000Y-95022000D03*
X151840000Y-95022000D03*
X149300000Y-95022000D03*
X146760000Y-95022000D03*
X144220000Y-95022000D03*
X141680000Y-95022000D03*
X139140000Y-95022000D03*
X136600000Y-95022000D03*
X134060000Y-95022000D03*
X131520000Y-95022000D03*
X177240000Y-120422000D03*
X174700000Y-120422000D03*
X172160000Y-120422000D03*
X169620000Y-120422000D03*
X167080000Y-120422000D03*
X164540000Y-120422000D03*
X162000000Y-120422000D03*
X159460000Y-120422000D03*
X156920000Y-120422000D03*
X154380000Y-120422000D03*
X151840000Y-120422000D03*
X149300000Y-120422000D03*
X146760000Y-120422000D03*
X144220000Y-120422000D03*
X141680000Y-120422000D03*
X139140000Y-120422000D03*
X136600000Y-120422000D03*
X134060000Y-120422000D03*
X131520000Y-120422000D03*
D32*
X234415000Y-96165000D03*
D33*
X232345000Y-94895000D03*
X234415000Y-93625000D03*
D17*
X191526000Y-85989000D03*
X194026000Y-85989000D03*
D16*
X188351000Y-73924000D03*
D34*
X185811000Y-73924000D03*
X185811000Y-81544000D03*
X188351000Y-81544000D03*
D35*
X227651000Y-144444000D03*
D36*
X228921000Y-142374000D03*
X230191000Y-144444000D03*
D32*
X234300000Y-76180000D03*
D33*
X232230000Y-74910000D03*
X234300000Y-73640000D03*
D16*
X194066000Y-73924000D03*
D34*
X191526000Y-73924000D03*
X191526000Y-81544000D03*
X194066000Y-81544000D03*
D16*
X169418000Y-73914000D03*
D34*
X166878000Y-73914000D03*
X166878000Y-81534000D03*
X169418000Y-81534000D03*
D17*
X154686000Y-85979000D03*
X157186000Y-85979000D03*
D16*
X157734000Y-73914000D03*
D34*
X155194000Y-73914000D03*
X155194000Y-81534000D03*
X157734000Y-81534000D03*
D16*
X163576000Y-73914000D03*
D34*
X161036000Y-73914000D03*
X161036000Y-81534000D03*
X163576000Y-81534000D03*
D35*
X233526000Y-144444000D03*
D36*
X234796000Y-142374000D03*
X236066000Y-144444000D03*
D35*
X203454000Y-144418000D03*
D36*
X204724000Y-142348000D03*
X205994000Y-144418000D03*
D17*
X171724000Y-85979000D03*
X174224000Y-85979000D03*
X197261000Y-85989000D03*
X199761000Y-85989000D03*
D32*
X234415000Y-102155000D03*
D33*
X232345000Y-100885000D03*
X234415000Y-99615000D03*
D16*
X182631000Y-73914000D03*
D34*
X180091000Y-73914000D03*
X180091000Y-81534000D03*
X182631000Y-81534000D03*
D16*
X215392000Y-114046000D03*
D34*
X215392000Y-116586000D03*
X215392000Y-119126000D03*
X215392000Y-121666000D03*
X215392000Y-124206000D03*
X215392000Y-126746000D03*
X215392000Y-129286000D03*
X215392000Y-131826000D03*
X223012000Y-131826000D03*
X223012000Y-129286000D03*
X223012000Y-126746000D03*
X223012000Y-124206000D03*
X223012000Y-121666000D03*
X223012000Y-119126000D03*
X223012000Y-116586000D03*
X223012000Y-114046000D03*
D17*
X160406000Y-85979000D03*
X162906000Y-85979000D03*
D16*
X202692000Y-114046000D03*
D34*
X202692000Y-116586000D03*
X202692000Y-119126000D03*
X202692000Y-121666000D03*
X202692000Y-124206000D03*
X202692000Y-126746000D03*
X202692000Y-129286000D03*
X202692000Y-131826000D03*
X210312000Y-131826000D03*
X210312000Y-129286000D03*
X210312000Y-126746000D03*
X210312000Y-124206000D03*
X210312000Y-121666000D03*
X210312000Y-119126000D03*
X210312000Y-116586000D03*
X210312000Y-114046000D03*
D32*
X234288000Y-122328000D03*
D33*
X232218000Y-121058000D03*
X234288000Y-119788000D03*
D24*
X149367000Y-79756000D03*
D25*
X146827000Y-79756000D03*
X144287000Y-79756000D03*
X141747000Y-79756000D03*
X139207000Y-79756000D03*
X136667000Y-79756000D03*
X134127000Y-79756000D03*
X131587000Y-79756000D03*
D32*
X234288000Y-128043000D03*
D33*
X232218000Y-126773000D03*
X234288000Y-125503000D03*
D16*
X207264000Y-73924000D03*
D34*
X204724000Y-73924000D03*
X204724000Y-81544000D03*
X207264000Y-81544000D03*
D37*
X201676000Y-107602000D03*
D38*
X204216000Y-107602000D03*
X206756000Y-107602000D03*
X209296000Y-107602000D03*
X211836000Y-107602000D03*
X214376000Y-107602000D03*
X216916000Y-107602000D03*
X216916000Y-99662000D03*
X214376000Y-99662000D03*
X211836000Y-99662000D03*
X209296000Y-99662000D03*
X206756000Y-99662000D03*
X204216000Y-99662000D03*
X201676000Y-99662000D03*
D37*
X213200000Y-76434000D03*
D38*
X213200000Y-78974000D03*
X213200000Y-81514000D03*
X213200000Y-84054000D03*
X213200000Y-86594000D03*
X213200000Y-89134000D03*
X213200000Y-91674000D03*
X221140000Y-91674000D03*
X221140000Y-89134000D03*
X221140000Y-86594000D03*
X221140000Y-84054000D03*
X221140000Y-81514000D03*
X221140000Y-78974000D03*
X221140000Y-76434000D03*
D39*
X191155000Y-65105000D03*
D40*
X193655000Y-65105000D03*
D39*
X164485000Y-65105000D03*
D40*
X166985000Y-65105000D03*
D32*
X189122000Y-113310000D03*
D33*
X187052000Y-112040000D03*
X189122000Y-110770000D03*
D39*
X173375000Y-65105000D03*
D40*
X175875000Y-65105000D03*
D35*
X209169000Y-144418000D03*
D36*
X210439000Y-142348000D03*
X211709000Y-144418000D03*
D24*
X224790000Y-105664000D03*
D25*
X224790000Y-103124000D03*
X224790000Y-100584000D03*
X224790000Y-98044000D03*
D41*
X209550000Y-65024000D03*
D21*
X212050000Y-65024000D03*
X214550000Y-65024000D03*
X217050000Y-65024000D03*
X219550000Y-65024000D03*
X222050000Y-65024000D03*
D39*
X182265000Y-65105000D03*
D40*
X184765000Y-65105000D03*
D32*
X189122000Y-118898000D03*
D33*
X187052000Y-117628000D03*
X189122000Y-116358000D03*
D17*
X185851000Y-85989000D03*
X188351000Y-85989000D03*
X223774000Y-77724000D03*
X223774000Y-75224000D03*
D32*
X234300000Y-70465000D03*
D33*
X232230000Y-69195000D03*
X234300000Y-67925000D03*
D17*
X204764000Y-86096000D03*
X207264000Y-86096000D03*
D39*
X200045000Y-65105000D03*
D40*
X202545000Y-65105000D03*
D17*
X166116000Y-85979000D03*
X168616000Y-85979000D03*
X197612000Y-100330000D03*
X197612000Y-102830000D03*
D39*
X155595000Y-65105000D03*
D40*
X158095000Y-65105000D03*
D16*
X199781000Y-73924000D03*
D34*
X197241000Y-73924000D03*
X197241000Y-81544000D03*
X199781000Y-81544000D03*
D17*
X180106000Y-85989000D03*
X182606000Y-85989000D03*
D16*
X175260000Y-73904000D03*
D34*
X172720000Y-73904000D03*
X172720000Y-81524000D03*
X175260000Y-81524000D03*
M02*
